<svg viewBox="0 0 16 9" fill="none" xmlns="http://www.w3.org/2000/svg">
<path d="M14.9999 0.991216C14.9978 0.877427 14.97 0.767078 14.92 0.674367C14.7825 0.469101 14.5477 0.441306 14.3847 0.610997L8.10429 7.43382C8.07217 7.46663 8.03301 7.48512 7.99243 7.48663C7.94921 7.48663 7.90715 7.4681 7.87257 7.43382L1.60016 0.610998C1.56225 0.569352 1.51893 0.537146 1.47232 0.515943C1.4247 0.505503 1.37611 0.505503 1.32849 0.515943C1.27844 0.527503 1.22996 0.548861 1.18467 0.579313C1.14232 0.608684 1.10441 0.64806 1.0728 0.695491C1.04367 0.746027 1.02199 0.803352 1.00888 0.864477C0.99704 0.926881 0.99704 0.992183 1.00888 1.05459C1.00177 1.11761 1.00177 1.18168 1.00888 1.2447C1.03406 1.30101 1.06651 1.35106 1.10476 1.39256L7.40114 8.21538C7.73399 8.59487 8.2269 8.59487 8.55974 8.21538L14.8641 1.37144C14.9076 1.32572 14.943 1.26806 14.968 1.20245C14.99 1.13588 15.0009 1.06384 14.9999 0.991216Z" fill="#263F5A" stroke="currentColor" stroke-width="0.5"/>
</svg>
