<svg viewBox="0 0 16 27" fill="none" xmlns="http://www.w3.org/2000/svg">
<path d="M9 1C9 0.447715 8.55228 -2.41411e-08 8 0C7.44772 2.41411e-08 7 0.447715 7 1L9 1ZM7.29289 26.7071C7.68342 27.0976 8.31658 27.0976 8.70711 26.7071L15.0711 20.3431C15.4616 19.9526 15.4616 19.3195 15.0711 18.9289C14.6805 18.5384 14.0474 18.5384 13.6569 18.9289L8 24.5858L2.34315 18.9289C1.95262 18.5384 1.31946 18.5384 0.928933 18.9289C0.538409 19.3195 0.538409 19.9526 0.928933 20.3431L7.29289 26.7071ZM7 1L7 26L9 26L9 1L7 1Z" fill="#4099F7"/>
</svg>
