<svg viewBox="0 0 71 30" fill="none" xmlns="http://www.w3.org/2000/svg">
<path d="M2 13C0.89543 13 -9.6564e-08 13.8954 0 15C2.15774e-07 16.1046 0.895431 17 2 17L2 13ZM70.4142 16.4142C71.1953 15.6332 71.1953 14.3668 70.4142 13.5858L57.6863 0.85786C56.9052 0.0768118 55.6389 0.0768119 54.8579 0.857861C54.0768 1.63891 54.0768 2.90524 54.8579 3.68629L66.1716 15L54.8579 26.3137C54.0768 27.0948 54.0768 28.3611 54.8579 29.1421C55.6389 29.9232 56.9052 29.9232 57.6863 29.1421L70.4142 16.4142ZM2 17L69 17L69 13L2 13L2 17Z" fill="#4099F7"/>
</svg>
