<svg viewBox="0 0 262 82" fill="none" xmlns="http://www.w3.org/2000/svg">
<path d="M113.501 79.9993V81.9993V79.9993ZM255.4 8.37387C255.055 7.32469 253.924 6.75417 252.875 7.09957L235.778 12.7282C234.729 13.0736 234.158 14.2042 234.504 15.2534C234.849 16.3025 235.98 16.8731 237.029 16.5276L252.226 11.5244L257.23 26.722C257.575 27.7712 258.706 28.3417 259.755 27.9963C260.804 27.6509 261.374 26.5204 261.029 25.4712L255.4 8.37387ZM2.00195 0.5C0.011379 0.693945 0.0115316 0.695507 0.0117152 0.697371C0.0118165 0.698397 0.0120318 0.700568 0.0122367 0.702619C0.012647 0.706722 0.0131836 0.712036 0.0138518 0.71855C0.015188 0.731577 0.0170503 0.749405 0.0194812 0.771958C0.024343 0.817062 0.0314797 0.88107 0.0412309 0.963372C0.0607327 1.12797 0.0906969 1.36578 0.133843 1.67192C0.220128 2.28415 0.359184 3.17005 0.572807 4.29054C0.999948 6.53096 1.72588 9.7128 2.92574 13.5225C5.32421 21.138 9.62563 31.2914 17.244 41.4496C32.5464 61.8534 61.0274 81.9992 113.501 81.9993V77.9993C62.2215 77.9992 34.9529 58.3954 20.444 39.0496C13.1568 29.333 9.03715 19.6116 6.741 12.3209C5.59355 8.67765 4.90378 5.64861 4.50203 3.54142C4.30122 2.48811 4.17254 1.66601 4.0947 1.1137C4.05578 0.837577 4.02959 0.628981 4.01345 0.492739C4.00538 0.424621 3.99982 0.374601 3.99644 0.343283C3.99476 0.327625 3.99361 0.316642 3.99298 0.310412C3.99266 0.307297 3.99246 0.30537 3.99239 0.304641C3.99235 0.304275 3.99239 0.304631 3.99237 0.304446C3.99243 0.3051 3.99253 0.306055 2.00195 0.5ZM113.501 81.9993C151.366 81.9993 179.983 77.6191 202.581 66.3521C225.25 55.0498 241.647 36.928 255.286 9.90034L251.715 8.09821C238.355 34.5717 222.503 51.9499 200.796 62.7724C179.019 73.6301 151.136 77.9993 113.501 77.9993V81.9993Z" fill="#52A7F9"/>
</svg>
