<svg viewBox="0 0 50 50" fill="none" xmlns="http://www.w3.org/2000/svg">
<path d="M20.0163 10.0001C19.7809 10.0047 19.5526 10.0643 19.3608 10.1713C18.9361 10.4661 18.8786 10.9693 19.2297 11.3185L33.3458 24.7765C33.4137 24.8453 33.452 24.9293 33.4551 25.0162C33.4551 25.1088 33.4168 25.199 33.3458 25.2731L19.2297 38.7139C19.1435 38.7952 19.0769 38.888 19.033 38.9879C19.0114 39.0899 19.0114 39.1941 19.033 39.2961C19.0569 39.4034 19.1011 39.5072 19.1641 39.6043C19.2249 39.695 19.3063 39.7763 19.4045 39.844C19.509 39.9064 19.6276 39.9529 19.7541 39.981C19.8832 40.0063 20.0183 40.0063 20.1474 39.981C20.2778 39.9962 20.4104 39.9962 20.5408 39.981C20.6573 39.927 20.7608 39.8575 20.8467 39.7755L34.9629 26.2833C35.748 25.57 35.748 24.5138 34.9629 23.8006L20.803 10.2912C20.7084 10.198 20.5891 10.1221 20.4533 10.0686C20.3156 10.0215 20.1666 9.99815 20.0163 10.0001Z" fill="#4099F7" stroke="#4099F7" stroke-width="0.5"/>
<circle cx="25" cy="25" r="24" stroke="#4099F7" stroke-width="2"/>
</svg>
