<svg viewBox="0 0 43 69" fill="none" xmlns="http://www.w3.org/2000/svg">
<path d="M32.132 9.50036L30.4993 15.075L32.0082 15.5204L33.641 9.94578L32.132 9.50036Z" fill="#E54B42"/>
<path d="M33.635 9.94378L32.0051 15.519L33.5142 15.9636L35.1441 10.3884L33.635 9.94378Z" fill="#B7281D"/>
<path d="M5.4733 39.6631C2.51646 43.0421 0 45.0631 0 45.0631C3.80614 46.2 14.0293 49.2 21.4843 51.4105L23.3716 44.9368C17.3321 43.1684 11.1039 41.3368 5.4733 39.6631Z" fill="#FFDF5A"/>
<path d="M21.4844 51.4105C28.9708 53.621 39.1625 56.621 42.9686 57.7579C42.9686 57.7579 41.9621 54.6947 41.27 50.2421C36.1113 48.7263 29.8516 46.8632 23.3717 44.9684L21.4844 51.4105Z" fill="#EAB828"/>
<path d="M27.5237 54.3789L27.335 59.4631C25.6049 60.1579 24.3467 61.8315 24.2523 63.8526C24.1265 66.6 26.2655 68.9052 28.9707 69L29.5369 54.9789C28.8449 54.7579 28.1843 54.5684 27.5237 54.3789Z" fill="#FFDF5A"/>
<path d="M31.3613 59.621L31.5186 55.5789C30.858 55.3895 30.1974 55.2 29.5054 54.9789L28.9392 68.9684C31.6759 69.0947 33.9721 66.9474 34.0665 64.2316C34.1609 62.2105 33.0285 60.4421 31.3613 59.621Z" fill="#EAB828"/>
<path d="M24.9445 39.6316C19.6914 38.0842 14.281 36.4737 9.15371 34.9895C7.92694 36.7579 6.66871 38.3368 5.47339 39.6947C11.104 41.3684 17.3322 43.2 23.3717 44.9684L24.9445 39.6316Z" fill="#E54B42"/>
<path d="M24.9444 39.6316L23.3716 44.9684C29.8515 46.8947 36.1426 48.7263 41.2699 50.2421C40.9868 48.4421 40.7666 46.421 40.7037 44.2737C36.1112 42.9158 30.6379 41.3052 24.9444 39.6316Z" fill="#B7281D"/>
<path d="M32.1792 14.7158C23.9063 12.2842 17.0175 19.2 12.771 28.6737C11.7644 30.9474 10.5062 33.0632 9.15356 34.9579C14.2494 36.4737 19.6912 38.0526 24.9443 39.6L32.2421 14.7158C32.2106 14.7474 32.2106 14.7158 32.1792 14.7158Z" fill="#FFDF5A"/>
<path d="M41.0811 37.0421C42.6225 26.7474 40.5464 17.2105 32.2735 14.7789C32.2421 14.7789 32.2421 14.7789 32.2421 14.7789L24.9443 39.6631C30.6378 41.3368 36.1111 42.9474 40.7351 44.3052C40.6408 41.9368 40.7351 39.4737 41.0811 37.0421Z" fill="#EAB828"/>
<path d="M31.7389 5.27366C32.2107 3.59998 33.9722 2.65261 35.6079 3.15787L36.4572 0.252611C33.2173 -0.694757 29.7886 1.1684 28.8449 4.42103C27.9013 7.70524 29.7572 11.1158 32.9971 12.0947L33.8464 9.18945C32.2107 8.68419 31.267 6.94735 31.7389 5.27366Z" fill="#FFDF5A"/>
<path d="M40.6409 7.89473C41.5845 4.6421 39.7286 1.19999 36.4887 0.252625L35.6394 3.15789C37.3065 3.63157 38.2502 5.39999 37.7469 7.0421C37.2751 8.71578 35.5136 9.66315 33.8779 9.15789L33.0286 12.0632C36.2685 13.0421 39.6657 11.1789 40.6409 7.89473Z" fill="#EAB828"/>
</svg>
