<svg viewBox="0 0 53 76" fill="none" xmlns="http://www.w3.org/2000/svg">
<g clip-path="url(#clip0_137_15224)">
<path d="M52.9999 26.5C52.9999 11.8641 41.1359 0 26.4999 0C11.864 0 -0.0536267 11.9578 -6.42972e-05 26.5937C0.0267169 33.8648 2.97265 40.4396 7.7397 45.2067C11.4489 48.9159 14.1538 53.5088 15.5196 58.5705L17.6621 66.4709H35.0298L37.0517 58.9856C38.4444 53.8168 41.2564 49.1435 45.0727 45.3807C49.9603 40.5869 52.9999 33.8916 52.9999 26.5Z" fill="#F4D242"/>
<path d="M30.517 75.7377H22.0541C19.6572 75.7377 17.5951 73.9701 17.4612 71.7205L16.7515 63.0434L35.9268 62.9229L35.11 71.7205C34.9627 73.9701 32.9139 75.7377 30.517 75.7377Z" fill="#59595B"/>
<path d="M34.1993 66.6988C28.8431 66.9264 23.4601 66.6586 18.1038 66.8862C17.6218 66.913 17.6619 67.5959 18.1306 67.6227C23.4869 67.7968 28.8699 67.462 34.2261 67.6361C34.8287 67.6629 34.8019 66.672 34.1993 66.6988Z" fill="#808183"/>
<path d="M34.1993 69.0289C28.8431 69.2565 23.4601 68.9887 18.1038 69.2163C17.6218 69.2431 17.6619 69.926 18.1306 69.9528C23.4869 70.1269 28.8699 69.7921 34.2261 69.9662C34.8287 69.9796 34.8019 69.0021 34.1993 69.0289Z" fill="#808183"/>
<path d="M37.9349 39.998C37.0779 39.3686 36.4218 38.5652 35.9397 37.6412C36.9038 36.4494 37.3189 34.856 37.5064 33.3696C37.6135 32.459 37.6403 31.5485 37.6537 30.6379C37.6671 29.7541 37.5466 29.0177 36.8101 28.4687C36.1406 27.9866 35.2568 28.4151 34.7479 28.8971C34.1588 29.4462 33.8775 30.3433 33.6499 31.0798C33.1946 32.5796 33.1946 34.1998 33.4892 35.7264C33.583 36.262 33.7436 36.7842 33.9311 37.2931C33.5562 37.5876 33.1277 37.8153 32.659 37.976C31.2128 38.4446 30.1148 37.601 29.4453 36.3691C29.3381 36.1682 29.231 35.954 29.1373 35.7264C29.2578 35.4184 29.3649 35.1104 29.4587 34.8158C29.9541 33.3428 30.2219 31.8163 30.3424 30.2764C30.4496 29.0043 30.4763 27.4777 29.2578 26.7145C28.8695 26.4734 28.4142 26.6609 28.1732 26.9957C26.3788 29.4863 26.4859 32.7804 27.4501 35.6058C27.1421 36.3557 26.7671 37.0788 26.3654 37.7885C25.9101 38.5652 25.0531 39.7569 24.0087 39.6096C23.0446 39.4623 22.2679 38.2572 21.7858 37.4939C21.4377 36.9449 21.1565 36.3557 20.9422 35.7397C21.0627 35.4184 21.1833 35.0836 21.2904 34.7622C21.7055 33.4633 21.9331 32.0975 22.0403 30.7317C22.134 29.5935 22.1608 28 20.9288 27.451C20.5673 27.2903 20.0317 27.3037 19.8442 27.7322C18.7596 30.1559 18.5453 32.8206 19.2282 35.405C19.255 35.4987 19.2818 35.5791 19.3086 35.6594C18.5587 37.5743 17.4071 39.3552 16.0145 40.8683C15.3851 41.5513 16.376 42.5422 17.0322 41.886C18.2775 40.6139 19.3086 39.1811 20.112 37.6144C20.353 38.0697 20.6209 38.4982 20.9154 38.9133C21.7323 40.0381 22.75 41.096 24.2095 41.1629C25.5754 41.2433 26.6868 40.0917 27.4233 39.0874C27.7714 38.6053 28.0928 38.0831 28.3606 37.5475C29.0302 38.6187 29.9943 39.4623 31.3066 39.6364C32.5117 39.8105 33.6901 39.4356 34.681 38.766C35.2568 39.7569 36.0067 40.6407 36.8904 41.3772C37.8412 42.2342 38.9794 40.7612 37.9349 39.998ZM28.8025 28.9373C28.8561 29.5667 28.7088 30.3567 28.682 30.7451C28.615 31.4414 28.4945 32.1511 28.3338 32.834C28.1732 31.4815 28.2803 30.0889 28.8025 28.9373ZM35.0024 32.9277C35.0559 32.2716 35.23 31.6154 35.4443 30.9995C35.538 30.7183 35.6719 30.4505 35.8326 30.196C35.846 30.1826 35.8995 30.1023 35.9531 30.0354C35.9665 30.0755 35.9799 30.1425 35.9799 30.2228C36.0602 31.8297 35.9263 33.5705 35.4309 35.097C35.3639 35.2845 35.297 35.4719 35.2166 35.646C35.0024 34.7756 34.9354 33.8383 35.0024 32.9277Z" fill="white"/>
<path d="M39.4486 36.0874C36.6365 44.6842 33.6638 53.2408 30.4769 61.717C30.1019 62.7347 31.6552 63.3507 32.0436 62.333C35.2171 53.8434 38.1631 45.2868 40.8144 36.6231C41.0822 35.7393 39.7432 35.1903 39.4486 36.0874Z" fill="white"/>
<path d="M13.8185 35.5524C16.0681 44.3233 18.1704 53.1343 20.0317 61.9855C20.2593 63.0433 21.9064 62.7353 21.6787 61.6775C19.7907 52.8129 17.6749 44.0153 15.2512 35.2846C14.9968 34.374 13.5774 34.6285 13.8185 35.5524Z" fill="white"/>
</g>
<defs>
<clipPath id="clip0_137_15224">
<rect width="53" height="75.7372" fill="white"/>
</clipPath>
</defs>
</svg>
