<svg viewBox="0 0 82 82" fill="none" xmlns="http://www.w3.org/2000/svg">
<g clip-path="url(#clip0_137_14788)">
<path d="M42.2098 78.2957L27.6804 68.815L27.6557 66.3447C27.648 65.6188 27.1767 64.9791 26.4857 64.7566L21.786 63.2409L18.6605 60.1771C18.2524 59.776 17.6688 59.6091 17.1103 59.7336L15.3256 60.1463C6.63288 62.9028 0.744037 70.9935 0.792705 80.1127C0.801995 81.0446 1.56503 81.7925 2.49692 81.7832L41.3056 81.3963C42.2375 81.3863 42.9848 80.6228 42.9747 79.6909C42.9691 79.1271 42.682 78.6036 42.2098 78.2957Z" fill="#607D8B"/>
<path d="M59.3278 27.2162C59.2248 27.2196 59.1222 27.2307 59.021 27.2496L22.5171 27.6135C22.4144 27.5965 22.3106 27.5873 22.2063 27.5863C19.321 27.615 17.1805 31.2644 17.2284 36.0734C17.2752 40.7676 19.3828 44.3139 22.1652 44.4616C25.3343 54.5956 32.795 61.2308 41.1035 61.1479C49.412 61.0651 56.7389 54.2758 59.7053 44.0874C62.4844 43.8909 64.5207 40.3032 64.4739 35.6024C64.4259 30.7935 62.2131 27.1874 59.3278 27.2162Z" fill="#FFE082"/>
<path d="M66.6492 59.5802L65.0597 59.2586C64.4988 59.1453 63.9187 59.3238 63.5186 59.7329L60.4548 62.8584L55.7863 64.4675C55.1024 64.7046 54.6457 65.3514 54.6514 66.0753L54.676 68.5456L40.3384 78.3141C39.5683 78.8388 39.3693 79.8885 39.894 80.6587C40.2114 81.1246 40.7403 81.4011 41.304 81.3959L80.1127 81.009C81.0445 80.9997 81.7925 80.2367 81.7832 79.3048C81.6271 70.1166 75.4838 62.1098 66.6492 59.5802Z" fill="#607D8B"/>
<path d="M41.4139 29.2312C40.1659 27.9578 37.9567 27.4297 34.0185 27.469C29.925 27.5098 27.7603 28.0647 26.5483 29.3794C25.6646 30.5025 25.3187 31.9571 25.6025 33.3579C25.6225 33.6614 25.6492 33.9784 25.6524 34.299C25.3699 37.7132 27.9084 40.7099 31.3226 40.9926C31.7043 41.0242 32.0881 41.0204 32.4691 40.9811C36.6976 40.939 42.5675 38.312 42.5258 34.1308C42.523 33.8506 42.5203 33.574 42.5412 33.3037C42.7703 31.8472 42.3593 30.3626 41.4139 29.2312Z" fill="#455A64"/>
<path d="M55.0707 29.095C53.8327 27.8045 51.6575 27.2931 47.5639 27.3339C43.6257 27.3732 41.4274 27.9451 40.2051 29.2432C39.2827 30.3946 38.9026 31.8884 39.1626 33.3408C39.1653 33.6108 39.1916 33.8839 39.1944 34.1674C39.2361 38.3486 45.1303 40.8583 49.3384 40.8163C52.7992 41.0756 55.8151 38.4803 56.0743 35.0195C56.0997 34.6798 56.0976 34.3386 56.0677 33.9993C56.0643 33.6619 56.0815 33.3613 56.0988 33.0574C56.3549 31.6495 55.9788 30.2005 55.0707 29.095Z" fill="#455A64"/>
<path d="M59.4934 15.4257C58.574 15.278 57.7089 15.9028 57.56 16.822C57.5526 16.9164 57.5535 17.0113 57.5628 17.1055L23.7587 17.4425C23.7662 17.3481 23.7652 17.2532 23.7559 17.159C23.5887 16.2429 22.7111 15.6355 21.795 15.8015C8.73039 18.1795 6.94804 20.5091 6.96964 22.6757C7.03605 29.3374 28.2669 30.901 40.8004 30.7761C53.334 30.6511 74.5294 28.6646 74.463 22.003C74.4414 19.8365 72.613 17.5427 59.4934 15.4257Z" fill="#607D8B"/>
<path d="M60.9114 20.1128C61.0485 20.7928 60.7623 21.4884 60.1865 21.8749C54.2532 25.1722 47.5463 26.8238 40.7605 26.6586C33.9792 26.9589 27.2407 25.4415 21.2429 22.2632C20.6593 21.888 20.3595 21.1983 20.483 20.5158C20.8562 18.6451 21.3566 16.8021 21.9805 14.9997C22.3794 13.7687 22.8403 12.5589 23.3618 11.3746C26.0349 5.3066 29.8683 0.509622 33.7492 0.470935C36.249 0.482084 38.6588 1.40633 40.5251 3.06959C42.3579 1.36946 44.7486 0.397351 47.248 0.336365C51.1288 0.297677 55.0572 5.01728 57.8509 11.0307C58.3959 12.2042 58.8809 13.4048 59.3043 14.6276C59.9638 16.4172 60.5008 18.2499 60.9114 20.1128Z" fill="#455A64"/>
<path d="M59.3041 14.6275C57.0994 16.9109 51.8369 20.5408 40.7004 20.6518C29.564 20.7629 24.2302 17.2386 21.9803 14.9996C22.3792 13.7686 22.8402 12.5588 23.3617 11.3745C23.4295 11.4443 23.4871 11.5233 23.5328 11.609C23.6354 11.743 27.1008 17.4123 40.6669 17.2771C54.3681 17.1405 57.6511 11.3028 57.6847 11.2686C57.7286 11.1818 57.7846 11.1018 57.8511 11.0307C58.3958 12.2044 58.8809 13.4049 59.3041 14.6275Z" fill="#607D8B"/>
<path d="M42.6689 78.7401L23.8391 51.9276C23.4069 51.3126 22.6199 51.0575 21.9091 51.3022L11.8187 54.7778C10.9354 55.0748 10.4601 56.0316 10.757 56.9149C10.8413 57.1656 10.9832 57.393 11.1716 57.5787L19.6923 65.9313C19.8837 66.1168 20.1164 66.2545 20.3714 66.3328L24.2922 67.5931L24.3138 69.7528C24.3197 70.3172 24.6073 70.8412 25.0802 71.1492L40.3672 81.1219C41.1475 81.6314 42.1931 81.412 42.7028 80.6317C43.081 80.0527 43.0675 79.3015 42.6689 78.7363L42.6689 78.7401Z" fill="#455A64"/>
<path d="M70.2536 54.1952L60.0959 50.9215C59.3805 50.6911 58.5986 50.9616 58.1788 51.5853L39.8873 78.7677C39.3653 79.5398 39.5682 80.5888 40.3403 81.1106C40.9132 81.4978 41.6645 81.4964 42.236 81.1067L57.3212 70.8313C57.7888 70.5132 58.0662 69.9821 58.0596 69.4165L58.0381 67.2568L61.933 65.9152C62.1862 65.8318 62.4161 65.6895 62.6039 65.5002L70.9564 56.9794C71.6068 56.312 71.593 55.2436 70.9255 54.5932C70.736 54.4086 70.5059 54.2712 70.2536 54.1919L70.2536 54.1952Z" fill="#455A64"/>
</g>
<defs>
<clipPath id="clip0_137_14788">
<rect width="81" height="81" fill="white" transform="translate(0 0.807617) rotate(-0.571163)"/>
</clipPath>
</defs>
</svg>
