<svg viewBox="0 0 81 81" fill="none" xmlns="http://www.w3.org/2000/svg">
<g clip-path="url(#clip0_137_14885)">
<path d="M81 78.958C81 80.3193 80.3193 81 78.958 81H2.04202C0.680672 81 0 80.3193 0 78.958L0 2.04202C0 0.680672 0.680672 0 2.04202 0L78.958 0C80.3193 0 81 0.680672 81 2.04202V78.958ZM78.958 81C79.6387 81 79.6387 81 80.3193 80.3193C77.5966 77.5966 74.1933 74.874 70.1093 71.4706C66.0252 68.0672 62.6219 64.6639 58.5378 61.2605C51.7311 55.8151 44.9244 51.7311 36.7563 49.0084C28.5882 45.605 19.7395 44.2437 10.8908 44.2437C7.4874 44.2437 3.40336 44.9244 0 46.9664L0 78.2773C0 79.6387 0.680672 80.3193 2.04202 80.3193H78.958V81ZM66.0252 39.479C65.3445 38.7983 65.3445 38.1176 66.0252 37.437L69.4286 32.6723C69.4286 31.9916 70.1092 31.3109 69.4286 30.6303C69.4286 29.9496 68.7479 29.2689 68.0672 29.2689L63.3025 26.5462C62.6219 26.5462 61.9412 25.8655 61.9412 24.5042V18.3782C61.9412 17.6975 61.9412 17.0168 61.2605 17.0168C61.2605 16.3361 61.2605 16.3361 60.5798 16.3361L54.4538 17.0168C53.7731 17.0168 53.0924 16.3361 52.4118 15.6555L49.6891 10.2101C49.6891 9.52941 49.0084 8.84874 48.3277 8.84874C47.6471 8.84874 46.9664 8.84874 46.9664 8.84874L41.521 12.9328C40.8403 13.6134 40.1597 13.6134 39.479 12.9328L34.7143 9.52941C34.0336 9.52941 33.3529 8.84874 32.6723 9.52941C31.9916 9.52941 31.3109 10.2101 31.3109 10.8908L28.5882 15.6555C28.5882 16.3361 27.9076 17.0168 26.5462 17.0168L21.1008 16.3361C20.4202 16.3361 19.7395 16.3361 19.7395 17.0168C19.0588 17.6975 18.3782 17.6975 18.3782 18.3782L19.0588 24.5042C19.0588 25.1849 18.3782 25.8655 17.6975 26.5462L12.2521 29.2689C11.5714 29.2689 10.8908 29.9496 10.8908 30.6303C10.8908 31.3109 10.8908 31.9916 10.8908 32.6723L14.2941 37.437C14.9748 38.1176 14.9748 38.7983 14.2941 39.479L11.5714 44.9244C11.5714 45.605 10.8908 46.2857 11.5714 46.2857C11.5714 46.9664 12.2521 46.9664 12.9328 47.6471L18.3782 50.3698C19.0588 51.0504 19.7395 51.7311 19.7395 52.4118L18.3782 58.5378C18.3782 59.2185 18.3782 59.8992 19.0588 59.8992C19.7395 60.5798 20.4202 60.5798 21.1008 60.5798H27.2269C27.9076 60.5798 28.5882 60.5798 29.2689 61.9412L31.9916 67.3866C31.9916 68.0672 32.6723 68.0672 33.3529 68.7479C34.0336 68.7479 34.7143 68.7479 35.395 68.7479L40.1597 65.3445C40.8403 64.6639 41.521 64.6639 42.2017 65.3445L46.9664 68.7479C47.6471 68.7479 48.3277 69.4286 48.3277 68.7479C49.0084 68.7479 49.0084 68.0672 49.6891 67.3866L52.4118 61.2605C52.4118 60.5798 53.0924 59.8992 54.4538 59.8992H60.5798C61.2605 59.8992 61.9412 59.8992 61.9412 59.2185C62.6219 58.5378 62.6219 58.5378 62.6219 57.8571V51.7311C62.6219 51.0504 62.6218 50.3698 63.9832 49.6891L68.7479 47.6471C69.4286 47.6471 69.4286 46.9664 70.1093 46.2857C70.1093 45.605 70.1093 44.9244 70.1093 44.9244L66.0252 39.479ZM81 41.521C75.5546 38.7983 68.7479 38.1176 61.9412 38.1176C51.7311 38.1176 43.563 40.8403 36.7563 46.2857C29.9496 51.7311 26.5462 57.1765 26.5462 63.3025C26.5462 66.7059 27.2269 70.1092 28.5882 72.8319C29.9496 75.5546 31.9916 78.2773 34.7143 81H78.958C80.3193 81 81 80.3193 81 78.958V41.521Z" fill="#FFAA3B"/>
<path d="M81 78.958C81 80.3193 80.3193 81 78.958 81H2.04202C0.680672 81 0 80.3193 0 78.958L0 2.04202C0 0.680672 0.680672 0 2.04202 0L78.958 0C80.3193 0 81 0.680672 81 2.04202V78.958Z" fill="#FFAA3B"/>
<path d="M69.4258 44.9238C69.4258 45.6045 70.1064 46.2851 69.4258 46.2851C69.4258 46.9658 68.7451 46.9658 68.0644 47.6465L63.2997 50.3692C62.619 50.3692 61.9384 51.0498 61.9384 52.4112V58.5372C61.9384 59.2179 61.9384 59.8986 61.2577 59.8986C61.2577 60.5792 61.2577 60.5792 60.577 60.5792L54.451 59.8986C53.7703 59.8986 53.0896 59.8986 52.409 61.2599L49.6863 66.7053C49.6863 67.386 49.0056 67.386 48.3249 68.0666C47.6442 68.0666 46.9636 68.0666 46.9636 68.0666L41.5182 63.9826C40.8375 63.3019 40.1569 63.3019 39.4762 63.9826L34.7115 67.386C34.0308 67.386 33.3501 68.0666 32.6695 67.386C31.9888 67.386 31.3081 66.7053 31.3081 66.0246L28.5854 61.2599C28.5854 60.5792 27.9047 59.8986 26.5434 59.8986H20.4174C19.7367 59.8986 19.056 59.8986 19.056 59.2179L18.3753 58.5372L19.056 52.4112C19.056 51.7305 18.3753 51.0498 17.6947 50.3692L12.2493 47.6465C11.5686 47.6465 10.8879 46.9658 10.8879 46.2851C10.8879 45.6045 10.8879 44.9238 10.8879 44.9238L14.2913 40.1591C14.972 39.4784 14.972 38.7977 14.2913 38.1171L11.5686 31.991C11.5686 31.3103 10.8879 30.6297 11.5686 29.949C11.5686 29.2683 12.2493 28.5876 12.93 28.5876L18.3753 25.865C19.056 25.1843 19.7367 24.5036 19.7367 23.8229L18.3753 18.3776C18.3753 17.6969 18.3753 17.0162 19.056 17.0162C19.7367 16.3355 20.4174 16.3355 21.098 16.3355L27.2241 17.0162C27.9047 17.0162 28.5854 16.3355 29.2661 15.6549L31.9888 10.2095C31.9888 9.52882 32.6695 8.84814 33.3501 8.84814C34.0308 8.84814 34.7115 8.84814 35.3921 8.84814L40.1569 12.2515C40.1569 13.6129 40.8375 13.6129 41.5182 12.9322L46.2829 9.52882C46.9636 9.52882 47.6442 8.84814 47.6442 9.52882C48.3249 9.52882 48.3249 10.2095 49.0056 10.8902L51.7283 16.3355C52.409 16.3355 53.0896 17.0162 54.451 17.0162L60.577 16.3355C61.2577 16.3355 61.9384 16.3355 61.9384 17.0162C62.619 17.6969 62.619 17.6969 62.619 18.3776V24.5036C62.619 25.1843 62.619 25.865 63.9804 26.5456L69.4258 29.2683C70.1064 29.2683 70.1064 29.949 70.7871 30.6297C70.7871 31.3103 70.7871 31.991 70.7871 32.6717L66.0224 37.4364C65.3417 38.1171 65.3417 38.7977 66.0224 39.4784L69.4258 44.9238Z" fill="#FFE564"/>
<path d="M81.0036 41.5218V78.9588C81.0036 80.3202 80.3229 81.0008 78.9616 81.0008H34.7179C31.9952 78.2781 29.9532 75.5554 28.5918 72.8328C27.2305 69.4294 26.5498 66.026 26.5498 63.3033C26.5498 57.1773 29.9532 51.7319 36.7599 46.2865C43.5666 40.8412 51.7347 38.1185 61.9448 38.1185C68.7515 38.1185 75.5582 38.7991 81.0036 41.5218Z" fill="#1D771F"/>
<path d="M78.958 80.999H2.04202C0.680672 80.999 0 80.3183 0 78.957L0 46.9654C3.40336 44.9234 7.4874 44.2427 10.8908 43.562C19.7395 43.562 28.5882 45.604 36.0756 48.3267C44.2437 51.7301 51.7311 56.4948 58.5378 61.2595C62.6219 64.6629 66.7059 68.0662 70.1093 70.7889C73.5126 74.1923 76.916 76.915 80.3193 79.6376C79.6387 80.999 79.6387 80.999 78.958 80.999Z" fill="#2BA52E"/>
</g>
<defs>
<clipPath id="clip0_137_14885">
<rect width="81" height="81" fill="white"/>
</clipPath>
</defs>
</svg>
