<svg viewBox="0 0 84 71" fill="none" xmlns="http://www.w3.org/2000/svg">
<g clip-path="url(#clip0_137_14779)">
<path d="M82.7499 17.7407L82.84 34.9102L76.9127 34.9414L76.9439 40.8847L65.0892 40.947L65.1794 58.1165L59.2521 58.1477L59.2833 64.091L48.0872 64.1498L48.0594 58.8668L36.2048 58.9291L36.236 64.8724L25.0399 64.9312L25.0087 58.9879L18.4228 59.0225L18.3326 41.8529L7.13651 41.9117L7.10529 35.9684L1.17795 35.9995L1.08431 18.1696L7.01165 18.1384L7.10182 35.308L18.9565 35.2458L18.9288 29.9628L24.8561 29.9317L24.8249 23.9884L30.7522 23.9572L30.6933 12.731L36.6206 12.6998L36.683 24.5865L48.5377 24.5242L48.4753 12.6376L53.744 12.6099L53.8064 24.4965L59.7338 24.4654L59.765 30.4087L65.6923 30.3776L65.7235 36.3209L77.5782 36.2587L77.5123 23.7117L77.4811 17.7683L82.7499 17.7407ZM18.2389 24.023L12.9702 24.0506L12.9112 12.8244L24.7659 12.7621L24.7971 18.7054L18.2112 18.74L18.2389 24.023ZM24.0761 6.82225L18.1488 6.85338L18.1176 0.91007L24.0449 0.87894L24.0761 6.82225ZM19.1438 70.9056L25.0711 70.8745L25.0399 64.9312L19.1126 64.9623L19.1438 70.9056ZM64.9089 6.6078L58.9815 6.63893L58.9503 0.695621L64.8777 0.664491L64.9089 6.6078ZM64.9678 17.8341L59.0405 17.8652L59.0128 12.5822L70.8674 12.52L70.9299 24.4066L65.0025 24.4377L64.9678 17.8341ZM59.2867 64.7513L65.2141 64.7202L65.2453 70.6635L59.318 70.6947L59.2867 64.7513Z" fill="#7F4AFF"/>
<path d="M36.1424 47.0412L24.2877 47.1035L24.2288 35.8772L36.0834 35.8149L36.1424 47.0412ZM59.1342 35.6939L47.9381 35.7527L47.9971 46.9789L59.1932 46.9201L59.1342 35.6939Z" fill="#132028"/>
</g>
<defs>
<clipPath id="clip0_137_14779">
<rect width="81.6667" height="70" fill="white" transform="translate(0.994141 1) rotate(-0.300908)"/>
</clipPath>
</defs>
</svg>
