<svg viewBox="0 0 81 79" fill="none" xmlns="http://www.w3.org/2000/svg">
<g clip-path="url(#clip0_137_14905)">
<path d="M40.169 75.0913C29.6324 75.0913 21.0714 71.2073 14.486 64.7339C7.90068 58.2606 3.94946 49.8452 3.94946 39.4878C3.94946 29.1304 7.90068 20.7151 14.486 14.2417C21.0714 7.76835 29.6324 3.88434 40.169 3.88434C50.7056 3.88434 59.2665 7.76835 65.8519 14.2417C72.4373 20.7151 76.3885 29.1304 76.3885 39.4878C76.3885 49.8452 72.4373 58.2606 65.8519 64.7339C59.2665 71.2073 50.7056 75.0913 40.169 75.0913Z" fill="#E5E4DF"/>
<path d="M40.1707 0C51.3658 0 61.2439 3.88402 68.4878 11.652C75.7317 19.4201 79.6829 28.4828 80.3415 39.4875C80.3415 50.4922 76.3902 60.2023 68.4878 67.3229C61.2439 75.091 51.3658 78.975 40.1707 78.975C28.3171 78.975 19.0976 75.091 11.8537 67.3229C3.95122 60.2023 0 51.1395 0 39.4875C0 28.4828 3.95122 18.7727 11.8537 11.652C19.0976 3.88402 28.9756 0 40.1707 0ZM16.4634 16.1834C9.87805 22.6568 6.58537 30.4248 6.58537 39.4875C6.58537 48.5502 9.87805 56.3182 16.4634 62.7916C23.0488 69.265 30.9512 72.5016 40.1707 72.5016C49.3902 72.5016 57.2927 68.6176 63.878 62.7916C70.4634 56.3182 73.7561 48.5502 73.7561 39.4875C73.7561 30.4248 70.4634 22.6568 63.878 16.1834C57.2927 9.71004 49.3902 6.47336 40.1707 6.47336C30.9512 7.1207 23.0488 10.3574 16.4634 16.1834Z" fill="#FF473E"/>
<path d="M40.1713 42.7248C39.5127 42.7248 38.8542 42.7248 38.1956 42.0775C37.5371 41.4302 37.5371 40.1355 37.5371 39.4882V13.5947C37.5371 12.9474 37.5371 12.3 38.1956 11.6527C38.8542 11.6527 39.5127 11.0054 40.1713 11.0054C40.8298 11.0054 41.4883 11.0054 42.1469 11.6527C42.8054 12.3 43.4639 12.9474 43.4639 14.2421V40.1355C43.4639 40.7828 43.4639 41.4302 42.8054 42.0775C42.1469 42.0775 41.4883 42.7248 40.1713 42.7248Z" fill="#3A5D66"/>
<path d="M62.5612 37.5455C63.2197 38.1928 63.2197 38.8401 63.2197 39.4875C63.2197 40.1348 63.2197 40.7821 62.5612 41.4295C61.9027 42.0768 61.2441 42.7241 60.5856 42.7241H43.4636C42.8051 43.3715 41.488 43.3715 40.1709 43.3715C38.8539 43.3715 38.1953 42.7241 36.8783 42.0768C36.8783 41.4295 36.2197 40.7821 36.2197 39.4875C36.2197 38.1928 36.8783 37.5455 37.5368 36.8981C38.1953 36.2508 39.5124 35.6035 40.8295 35.6035C42.1466 35.6035 42.8051 36.2508 43.4636 36.8981H60.5856C61.2441 36.8981 61.9027 36.8981 62.5612 37.5455Z" fill="#183F4C"/>
</g>
<defs>
<clipPath id="clip0_137_14905">
<rect width="81" height="78.975" fill="white"/>
</clipPath>
</defs>
</svg>
