<svg viewBox="0 0 81 81" fill="none" xmlns="http://www.w3.org/2000/svg">
<path d="M64.7695 7.2774H11.0533C10.7117 7.27738 10.3735 7.34464 10.0579 7.47534C9.74236 7.60604 9.45564 7.79762 9.21412 8.03913C8.9726 8.28065 8.78103 8.56737 8.65033 8.88293C8.51963 9.19849 8.45237 9.53671 8.45239 9.87826V46.8282H67.3704V9.87826C67.3704 9.53671 67.3032 9.19849 67.1725 8.88293C67.0418 8.56737 66.8502 8.28065 66.6087 8.03913C66.3672 7.79762 66.0804 7.60604 65.7649 7.47534C65.4493 7.34464 65.1111 7.27738 64.7695 7.2774Z" fill="#73849B"/>
<path d="M13.1985 9.87826C13.1985 9.53671 13.2657 9.19849 13.3964 8.88293C13.5271 8.56737 13.7187 8.28065 13.9602 8.03913C14.2017 7.79762 14.4885 7.60604 14.804 7.47534C15.1196 7.34464 15.4578 7.27738 15.7993 7.2774H11.0533C10.7117 7.27738 10.3735 7.34464 10.0579 7.47534C9.74236 7.60604 9.45564 7.79762 9.21412 8.03913C8.9726 8.28065 8.78103 8.56737 8.65033 8.88293C8.51963 9.19849 8.45237 9.53671 8.45239 9.87826V45.2968H13.1985" fill="#91A6BC"/>
<path d="M16.7449 43.1675V52.2705H55.1028V43.1675H16.7449Z" fill="#D4E1F4"/>
<path d="M77.113 40.916H55.6638C55.3821 40.9158 55.1032 40.9711 54.843 41.0787C54.5827 41.1864 54.3462 41.3442 54.147 41.5433C53.9478 41.7424 53.7897 41.9788 53.6819 42.239C53.5741 42.4991 53.5186 42.778 53.5186 43.0597V71.5789C53.5188 72.1477 53.745 72.693 54.1473 73.095C54.5496 73.497 55.0951 73.7227 55.6638 73.7226H77.113C77.6817 73.7227 78.2272 73.497 78.6295 73.095C79.0318 72.693 79.2579 72.1477 79.2582 71.5789V43.0597C79.2582 42.778 79.2027 42.4991 79.0949 42.239C78.987 41.9788 78.829 41.7424 78.6298 41.5433C78.4306 41.3442 78.1941 41.1864 77.9338 41.0787C77.6735 40.9711 77.3946 40.9158 77.113 40.916Z" fill="#6D7486"/>
<path d="M19.908 67.1387V71.301C19.9082 71.6191 19.8457 71.9342 19.7241 72.2281C19.6024 72.5221 19.424 72.7892 19.1991 73.0141C18.9741 73.2391 18.707 73.4175 18.4131 73.5391C18.1191 73.6608 17.8041 73.7233 17.4859 73.7231H4.16208C3.51971 73.723 2.90367 73.4678 2.44945 73.0136C1.99523 72.5594 1.74003 71.9434 1.73999 71.301V67.1387H19.908Z" fill="#6D7486"/>
<path d="M1.74023 45.2969H19.9083V67.1384H1.74023V45.2969Z" fill="#FB6771"/>
<path d="M17.4859 40.717H4.16208C3.51971 40.7171 2.90367 40.9723 2.44945 41.4265C1.99523 41.8807 1.74003 42.4968 1.73999 43.1391V45.297H19.908V43.1391C19.9082 42.821 19.8457 42.5059 19.7241 42.212C19.6024 41.918 19.424 41.6509 19.1991 41.426C18.9741 41.201 18.707 41.0226 18.4131 40.901C18.1191 40.7793 17.8041 40.7168 17.4859 40.717Z" fill="#6D7486"/>
<path d="M56.7363 44.4531H76.0403V68.0396H56.7363V44.4531Z" fill="#88CED8"/>
<path d="M47.2822 58.7821C47.7946 58.782 48.302 58.8827 48.7754 59.0787C49.2488 59.2747 49.679 59.5621 50.0413 59.9244C50.4036 60.2867 50.691 60.7168 50.887 61.1903C51.0829 61.6637 51.1837 62.1711 51.1835 62.6834H23.8682C23.868 62.1709 23.9688 61.6634 24.1649 61.1899C24.361 60.7164 24.6485 60.2862 25.011 59.9238C25.3734 59.5615 25.8038 59.2742 26.2774 59.0783C26.751 58.8824 27.2585 58.7818 27.771 58.7821C28.1126 58.7822 28.4508 58.7149 28.7664 58.5842C29.0819 58.4535 29.3687 58.2619 29.6102 58.0204C29.8517 57.7789 30.0433 57.4922 30.174 57.1766C30.3047 56.8611 30.3719 56.5228 30.3719 56.1813V52.2705H44.6798V56.1813C44.6801 56.8713 44.9545 57.5328 45.4425 58.0206C45.9305 58.5083 46.5923 58.7822 47.2822 58.7821Z" fill="#BDCBDB"/>
<path d="M37.5238 46.4182C37.781 46.4182 38.0324 46.4944 38.2463 46.6373C38.4602 46.7802 38.6268 46.9833 38.7253 47.2209C38.8237 47.4585 38.8494 47.72 38.7993 47.9723C38.7491 48.2245 38.6252 48.4562 38.4434 48.6381C38.2615 48.82 38.0298 48.9438 37.7775 48.994C37.5253 49.0442 37.2638 49.0184 37.0262 48.92C36.7885 48.8216 36.5854 48.6549 36.4425 48.4411C36.2997 48.2272 36.2234 47.9758 36.2234 47.7186C36.2237 47.3738 36.3608 47.0432 36.6046 46.7994C36.8485 46.5556 37.179 46.4185 37.5238 46.4182Z" fill="#6D7486"/>
<path d="M1.74023 45.2969H6.48633V67.1384H1.74023V45.2969Z" fill="#FF99A3"/>
<path d="M8.90817 40.717H4.16208C3.51971 40.7171 2.90367 40.9723 2.44945 41.4265C1.99523 41.8807 1.74003 42.4968 1.73999 43.1391V45.297H6.48608V43.1391C6.48613 42.4968 6.74132 41.8807 7.19554 41.4265C7.64977 40.9723 8.26581 40.7171 8.90817 40.717Z" fill="#B0B5CA"/>
<path d="M6.48608 71.301V67.1387H1.73999V71.301C1.74003 71.9434 1.99523 72.5594 2.44945 73.0136C2.90367 73.4678 3.51971 73.723 4.16208 73.7231H8.90817C8.26581 73.723 7.64976 73.4678 7.19554 73.0136C6.74132 72.5594 6.48613 71.9434 6.48608 71.301Z" fill="#B0B5CA"/>
<path d="M56.7363 44.4531H61.4824V68.0396H56.7363V44.4531Z" fill="#ADF2F7"/>
<path d="M36.5257 59.731H36.4639C36.2121 59.731 35.9707 59.6309 35.7927 59.4529C35.6147 59.2749 35.5146 59.0335 35.5146 58.7817C35.5146 58.53 35.6147 58.2886 35.7927 58.1105C35.9707 57.9325 36.2121 57.8325 36.4639 57.8325H36.5257C36.7775 57.8325 37.0189 57.9325 37.1969 58.1105C37.3749 58.2886 37.4749 58.53 37.4749 58.7817C37.4749 59.0335 37.3749 59.2749 37.1969 59.4529C37.0189 59.6309 36.7775 59.731 36.5257 59.731Z" fill="#B0B5CA"/>
<path d="M67.5397 71.5625H65.2393C64.9875 71.5625 64.7461 71.4625 64.5681 71.2845C64.39 71.1065 64.29 70.865 64.29 70.6133C64.29 70.3615 64.39 70.1201 64.5681 69.9421C64.7461 69.7641 64.9875 69.6641 65.2393 69.6641H67.5397C67.7914 69.6641 68.0329 69.7641 68.2109 69.9421C68.3889 70.1201 68.4889 70.3615 68.4889 70.6133C68.4889 70.865 68.3889 71.1065 68.2109 71.2845C68.0329 71.4625 67.7914 71.5625 67.5397 71.5625Z" fill="#4A5160"/>
<path d="M10.824 71.6796C10.5465 71.6795 10.2752 71.5972 10.0444 71.443C9.81369 71.2888 9.63386 71.0696 9.52767 70.8132C9.42149 70.5568 9.39372 70.2746 9.44788 70.0024C9.50204 69.7302 9.6357 69.4802 9.83196 69.284C10.0282 69.0878 10.2783 68.9541 10.5505 68.9C10.8227 68.8459 11.1048 68.8737 11.3612 68.9799C11.6176 69.0861 11.8368 69.266 11.9909 69.4967C12.1451 69.7275 12.2274 69.9988 12.2274 70.2763C12.227 70.6484 12.079 71.0051 11.8159 71.2681C11.5528 71.5312 11.1961 71.6792 10.824 71.6796Z" fill="#4A5160"/>
<path d="M38.8262 58.7816C38.8262 59.0333 38.9262 59.2748 39.1042 59.4528C39.2822 59.6308 39.5236 59.7308 39.7754 59.7308H47.4118C47.6376 59.7305 47.8559 59.6498 48.0275 59.5032C48.1991 59.3565 48.3128 59.1534 48.3482 58.9305C48.0014 58.8318 47.6425 58.7818 47.282 58.7817C46.8975 58.7821 46.5178 58.6971 46.1702 58.533C45.8226 58.3688 45.5158 58.1296 45.2718 57.8325H39.7754C39.5237 57.8325 39.2823 57.9325 39.1042 58.1105C38.9262 58.2885 38.8262 58.5299 38.8262 58.7816Z" fill="#B0B5CA"/>
</svg>
