<svg viewBox="0 0 81 97" fill="none" xmlns="http://www.w3.org/2000/svg">
<g clip-path="url(#clip0_137_14896)">
<path d="M74.5209 96.5764H12.1509C10.5309 96.5764 8.9109 95.7716 7.2909 94.9668C5.6709 93.3572 5.6709 91.7475 5.6709 90.1379V39.4351H81.0009V89.3331C81.0009 90.9427 80.1909 92.5524 78.5709 94.162C77.7609 95.7716 76.1409 96.5764 74.5209 96.5764Z" fill="#00B89C"/>
<path d="M77.76 17.7058L5.67 39.4356L0 21.7298L72.9 0L77.76 17.7058ZM81 39.4356H5.67V57.1413H81V39.4356Z" fill="#B9C5C6"/>
<path d="M12.15 37.0225L1.62 27.3648L0 21.7312L12.96 17.7071L29.16 32.1937L12.15 37.0225ZM29.16 39.4369H12.96L5.67 51.509V57.1427H18.63L29.16 39.4369ZM23.49 14.4879L39.69 9.65904L55.89 24.1456L39.69 28.9744L23.49 14.4879ZM41.31 39.4369H57.51L46.98 57.1427H30.78L41.31 39.4369ZM66.42 1.61096L75.33 9.65904L77.76 16.9023L66.42 20.9263L50.22 6.43981L66.42 1.61096ZM68.85 39.4369H81V46.6802L75.33 57.1427H58.32L68.85 39.4369Z" fill="#445056"/>
</g>
<defs>
<clipPath id="clip0_137_14896">
<rect width="81" height="96.5769" fill="white"/>
</clipPath>
</defs>
</svg>
