<svg viewBox="0 0 81 81" fill="none" xmlns="http://www.w3.org/2000/svg">
<g clip-path="url(#clip0_137_14827)">
<path d="M13.5381 77.2032L13.5381 47.942C13.5381 43.2111 17.3732 39.376 22.1042 39.376H31.9436C36.6745 39.376 40.5097 43.2111 40.5097 47.942L43.6737 65.2039L40.5097 77.2032H13.5381Z" fill="#E06A50"/>
<path d="M34.9406 31.9003C34.9406 36.2724 31.3963 39.8167 27.0241 39.8167C22.652 39.8167 19.1077 36.2724 19.1077 31.9003V27.4144C19.1077 23.0423 22.652 19.4979 27.0241 19.4979C31.3963 19.4979 34.9406 23.0423 34.9406 27.4144V31.9003Z" fill="#E3A76F"/>
<path d="M40.5 74.9884V47.942C40.5 43.2111 44.3352 39.376 49.0661 39.376H58.9055C63.6364 39.376 67.4716 43.2111 67.4716 47.942V74.9884H40.5Z" fill="#9CD2FC"/>
<path d="M61.9033 31.9003C61.9033 36.2724 58.3589 39.8167 53.9868 39.8167C49.6147 39.8167 46.0703 36.2724 46.0703 31.9003V27.4144C46.0703 23.0423 49.6147 19.4979 53.9868 19.4979C58.3589 19.4979 61.9033 23.0423 61.9033 27.4144V31.9003Z" fill="#864927"/>
<path d="M27.0147 81.0005H0.0429688L0.0429688 71.5324C0.0429688 67.1638 3.5845 63.6223 7.95312 63.6223H19.1045C23.4732 63.6223 27.0147 67.1638 27.0147 71.5324L28.5967 76.0567L27.0147 81.0005Z" fill="#A0BE28"/>
<path d="M80.9568 81.0005H53.9851L52.4031 75.0283L53.9851 71.5323C53.9851 67.1637 57.5266 63.6222 61.8953 63.6222H73.0467C77.4153 63.6222 80.9568 67.1637 80.9568 71.5323V81.0005Z" fill="#738C28"/>
<path d="M19.498 5.9436L22.7586 2.49319L31.5614 10.8117L28.3008 14.2621L19.498 5.9436Z" fill="#FFE477"/>
<path d="M49.4619 10.8339L58.2647 2.5154L61.5253 5.96581L52.7225 14.2843L49.4619 10.8339Z" fill="#FFB655"/>
<path d="M38.1262 0L40.4993 0V10.4854H38.1262V0Z" fill="#FFE477"/>
<path d="M42.8748 0.000610352L40.5017 0.000610352L42.0837 5.2433L40.5017 10.486H42.8748V0.000610352Z" fill="#FFB655"/>
<path d="M40.5017 0.000610352V10.486L42.0837 5.2433L40.5017 0.000610352Z" fill="#FFB655"/>
<path d="M34.9255 63.6223C30.5569 63.6223 27.0154 67.1638 27.0154 71.5324V81.0005H40.5012L42.0833 71.3951L40.5012 63.6223H34.9255Z" fill="#FFB655"/>
<path d="M53.9851 71.5322C53.9851 67.1635 50.4436 63.622 46.075 63.622H40.4993V81.0003H53.9851V71.5322Z" fill="#E06A50"/>
<path d="M38.1262 0L40.4993 0V10.4854H38.1262V0Z" fill="#FFE477"/>
<path d="M42.8721 0L40.499 0L42.0811 5.24269L40.499 10.4854H42.8721V0Z" fill="#FFB655"/>
<path d="M40.499 0V10.4854L42.0811 5.24269L40.499 0Z" fill="#FFB655"/>
<path d="M21.4472 56.1467C21.4472 60.5188 17.9028 64.0632 13.5307 64.0632C9.15864 64.0632 5.61426 60.5188 5.61426 56.1467L5.61426 51.6609C5.61426 47.2888 9.15864 43.7444 13.5307 43.7444C17.9028 43.7444 21.4472 47.2888 21.4472 51.6609V56.1467Z" fill="#B35F30"/>
<path d="M75.3896 56.1467C75.3896 60.5188 71.8452 64.0632 67.4731 64.0632C63.101 64.0632 59.5566 60.5188 59.5566 56.1467V51.6609C59.5566 47.2888 63.101 43.7444 67.4731 43.7444C71.8452 43.7444 75.3896 47.2888 75.3896 51.6609V56.1467Z" fill="#E3A76F"/>
<path d="M32.584 51.66V56.1458C32.584 60.5179 36.1284 64.0623 40.5005 64.0623L43.6645 53.903L40.5005 43.7437C36.1284 43.7435 32.584 47.2879 32.584 51.66Z" fill="#B35F30"/>
<path d="M40.4993 43.7444V64.0632C44.8714 64.0632 48.4158 60.5188 48.4158 56.1467V51.6609C48.4158 47.2888 44.8714 43.7444 40.4993 43.7444Z" fill="#864927"/>
</g>
<defs>
<clipPath id="clip0_137_14827">
<rect width="81" height="81" fill="white"/>
</clipPath>
</defs>
</svg>
