<svg viewBox="0 0 82 82" fill="none" xmlns="http://www.w3.org/2000/svg">
<g clip-path="url(#clip0_137_14804)">
<path d="M15.1635 81.013L8.04432 81.0064C6.73377 81.0052 5.67225 79.9417 5.67347 78.6312L5.68457 66.6077L15.1768 66.6165L19.9163 73.74L15.1635 81.013Z" fill="#0050C7"/>
<path d="M76.0684 66.6728L67.6999 66.665L62.9473 73.7798L67.6867 81.0615L74.8058 81.0681C76.1174 81.0693 77.1798 80.0089 77.181 78.6972L77.1903 68.6414C77.1911 67.7989 76.7285 67.0945 76.0684 66.6728Z" fill="#004597"/>
<path d="M72.4417 71.4156L65.3226 71.409C64.0109 71.4078 62.9505 70.3455 62.9517 69.0338L62.9648 54.7955C62.9661 53.4839 64.0284 52.4235 65.3401 52.4247L72.4592 52.4313C77.6943 52.4361 81.9475 56.6971 81.9426 61.9322C81.9378 67.1673 77.6768 71.4205 72.4417 71.4156Z" fill="#4C5CE1"/>
<path d="M17.5459 71.3649L10.4268 71.3584C5.1917 71.3535 0.938546 67.0925 0.943381 61.8574C0.948217 56.6223 5.20923 52.3692 10.4443 52.374L17.5635 52.3806C18.8751 52.3818 19.9355 53.4442 19.9343 54.7558L19.9212 68.9941C19.92 70.3058 18.8576 71.3662 17.5459 71.3649Z" fill="#6E77E5"/>
<path d="M67.718 47.6809L15.1946 47.6324L15.1637 81.0132L67.6872 81.0617L67.718 47.6809Z" fill="#C5C9F7"/>
<path d="M67.7168 47.681L41.4551 47.6567L41.4242 81.0376L67.686 81.0618L67.7168 47.681Z" fill="#A8AFF1"/>
<path d="M43.8611 11.9048L43.8522 21.5552C43.8509 22.8839 42.806 23.9272 41.4769 23.926C40.1479 23.9248 39.1049 22.8795 39.1061 21.5508L39.115 11.9004C39.1162 10.5713 40.1612 9.52831 41.4902 9.52954C42.8193 9.53076 43.8623 10.5757 43.8611 11.9048Z" fill="#007BFF"/>
<path d="M41.4769 23.9258L41.4902 9.5293C42.8193 9.53052 43.8623 10.5755 43.8611 11.9045L43.8522 21.5549C43.8509 22.8837 42.806 23.927 41.4769 23.9258Z" fill="#0050C7"/>
<path d="M67.72 45.3078C67.7188 46.6365 66.6738 47.6799 65.3448 47.6786L17.5674 47.6345C16.2384 47.6333 15.1954 46.588 15.1966 45.2593C15.2099 30.8785 27.1016 19.1667 41.4824 19.18C55.8632 19.1933 67.7333 30.927 67.72 45.3078Z" fill="#7986E8"/>
<path d="M67.721 45.3079C67.7198 46.6367 66.6748 47.68 65.3458 47.6788L41.4571 47.6567L41.4834 19.1802C55.8642 19.1935 67.7343 30.9271 67.721 45.3079Z" fill="#6E77E5"/>
<path d="M72.4651 47.6854C72.4627 50.2957 70.3249 52.4295 67.7146 52.4271L15.1912 52.3786C12.5808 52.3762 10.4471 50.2385 10.4495 47.6281C10.4519 45.0178 12.5896 42.884 15.1999 42.8864L67.7234 42.9349C70.3337 42.9373 72.4675 45.075 72.4651 47.6854Z" fill="#E1E4FB"/>
<path d="M31.8157 38.1554C33.1263 38.1566 34.1897 37.0951 34.1909 35.7845C34.1921 34.4739 33.1307 33.4105 31.8201 33.4093C30.5095 33.4081 29.446 34.4696 29.4448 35.7801C29.4436 37.0907 30.5051 38.1542 31.8157 38.1554Z" fill="#E1E4FB"/>
<path d="M50.9566 38.1731C52.2672 38.1743 53.3306 37.1128 53.3318 35.8022C53.333 34.4916 52.2715 33.4282 50.9609 33.427C49.6503 33.4258 48.5869 34.4873 48.5857 35.7979C48.5845 37.1084 49.646 38.1719 50.9566 38.1731Z" fill="#C5C9F7"/>
<path d="M55.6767 66.6541L27.042 66.6277C25.7129 66.6265 24.668 67.6695 24.6668 68.9985L24.6556 81.022L58.0365 81.0528L58.0476 69.0294C58.0488 67.7003 57.0058 66.6554 55.6767 66.6541Z" fill="#7986E8"/>
<path d="M41.5 0.0378254C37.5606 0.0341869 34.3779 3.21097 34.3743 7.15039C34.3706 11.0898 37.5474 14.2725 41.4868 14.2761C45.4263 14.2797 48.6089 11.103 48.6126 7.16354C48.6162 3.22412 45.4394 0.0414639 41.5 0.0378254Z" fill="#00E3FF"/>
<path d="M72.4634 47.6851C72.461 50.2955 70.3233 52.4293 67.7129 52.4268L41.4512 52.4026L41.46 42.9104L67.7217 42.9347C70.332 42.9371 72.4658 45.0748 72.4634 47.6851Z" fill="#C5C9F7"/>
<path d="M41.4878 14.2754L41.501 0.0371094C45.4404 0.0407479 48.6172 3.22341 48.6135 7.16282C48.6099 11.1022 45.4272 14.279 41.4878 14.2754Z" fill="#00D0FF"/>
<path d="M58.0466 69.029L58.0355 81.0525L41.4242 81.0371L41.4375 66.6406L55.6758 66.6538C57.0048 66.655 58.0479 67.6999 58.0466 69.029Z" fill="#6E77E5"/>
</g>
<defs>
<clipPath id="clip0_137_14804">
<rect width="81" height="81" fill="white" transform="translate(1) rotate(0.0529196)"/>
</clipPath>
</defs>
</svg>
