<svg viewBox="0 0 81 62" fill="none" xmlns="http://www.w3.org/2000/svg">
<g clip-path="url(#clip0_137_14968)">
<path d="M34.2286 60.0318C25.9373 59.6075 19.3467 57.4863 14.0317 54.0922C8.92938 50.9103 4.25221 45.395 0.212843 38.1827C0.000244141 37.7584 0.000244141 37.3342 0.000244141 36.9099H9.56717V32.6674C9.56717 29.9097 10.4176 27.5763 12.331 25.6672C14.2443 23.758 16.5829 22.9095 19.3467 22.9095C22.1105 22.9095 24.4491 23.758 26.3624 25.6672C28.2758 27.5763 29.1262 29.9097 29.3388 32.6674V50.9103C29.3388 52.8195 29.764 54.5165 30.6144 56.0014C31.6774 57.6984 32.7404 59.1833 34.2286 60.0318ZM71.4333 36.9099V33.3038V32.4552C71.4333 29.6976 70.3703 27.3642 68.4569 25.455C66.5436 23.5459 64.205 22.6974 61.4412 22.6974C58.6774 22.6974 56.3388 23.5459 54.4254 25.455C52.5121 27.1521 51.4491 29.4855 51.4491 32.2431V50.9103C51.4491 52.8195 51.0239 54.5165 50.1735 56.0014C49.3231 57.4863 48.2601 58.9712 46.7719 60.0318C55.0632 59.6075 61.6538 57.4863 66.7562 54.3044C71.8585 50.9103 76.5357 45.6071 80.5751 38.1827C80.7877 37.7584 81.0003 37.3342 80.7877 36.9099H71.4333Z" fill="#FFD8CA"/>
<path d="M46.7717 60.032C44.8583 61.3048 42.7323 61.9412 40.3937 61.9412C38.0551 61.9412 35.9291 61.3048 34.2284 60.032L32.9528 59.1835L32.1024 58.335C31.8898 58.1229 31.6772 57.9108 31.4646 57.4865L30.6142 56.4259L29.9764 54.941C29.9764 54.7288 29.9764 54.5167 29.7638 54.0925V52.6076L29.5512 52.3954C29.5512 51.9712 29.3386 51.5469 29.3386 51.1227V32.8797C29.3386 30.1221 28.2756 27.7887 26.3622 25.8795C24.4488 23.9704 22.1102 23.1219 19.3465 23.1219C16.5827 23.1219 14.2441 23.9704 12.3307 25.8795C10.4173 27.7887 9.56693 30.1221 9.56693 32.8797V37.1223H0C0 36.698 0 36.2738 0.212598 35.8495C2.33858 31.607 4.88976 27.5765 7.44095 24.1825C5.74016 22.6976 4.25197 21.0006 2.97638 19.0915C1.27559 15.9095 0.425197 12.9398 0.637795 9.75786C0.637795 6.57595 1.48819 3.60616 3.18898 0.848509C3.40158 0.636382 3.61417 0.424255 4.03937 0.424255C7.22835 0.424255 9.99213 1.27276 12.5433 2.75765C15.0945 4.24255 17.2205 6.57595 18.9213 9.54573C19.3465 10.1821 19.7717 10.8185 20.1969 11.667C22.9606 9.96998 25.937 8.48509 29.3386 7.63658C32.7402 6.78807 36.3543 6.15169 40.6063 6.15169C44.8583 6.15169 48.4724 6.57595 51.874 7.63658C55.2756 8.48509 58.252 9.75786 61.0158 11.4549C61.2284 10.8185 61.6535 9.96998 62.2913 9.3336C63.7795 6.36382 65.9055 4.03042 68.4567 2.54553C71.0079 0.848509 73.9843 0 76.9606 0C77.3858 0 77.811 0.212127 78.0236 0.636382C79.5118 3.39404 80.3622 6.36382 80.3622 9.54573C80.3622 12.7276 79.5118 15.9095 77.811 18.6672C76.5354 20.7885 75.0473 22.4855 73.1339 23.7583C75.6851 27.3644 78.0236 31.1827 80.1496 35.4253C80.3622 35.8495 80.3622 36.2738 80.3622 36.698H70.7953V32.2434C70.7953 29.4857 69.7323 27.1523 67.8189 25.2431C65.9055 23.334 63.5669 22.4855 60.8032 22.4855C58.0394 22.4855 55.7008 23.334 53.7874 25.2431C51.874 26.9402 50.811 29.2736 50.811 32.0312V51.1227V52.1833C50.811 52.3954 50.5984 52.3954 50.5984 52.6076C50.5984 52.8197 50.5984 53.0318 50.3858 53.4561L51.0236 54.0925C51.0236 54.3046 51.0236 54.7288 50.811 54.941V55.1531C50.811 55.5774 50.5984 56.0016 50.3858 56.2137L49.5354 57.4865L48.0472 59.1835L47.8346 59.3956C47.4095 59.6078 47.1969 59.8199 46.7717 60.032Z" fill="#FF6F1F"/>
<path d="M9.14182 4.24233C6.59064 2.12106 4.67725 0.848296 3.61426 0.424041V0.211914C6.80323 0.211914 9.77961 1.06042 12.5434 2.54531C15.5198 4.03021 17.8584 6.36361 19.5591 9.33339C19.9843 9.96977 20.1969 10.6062 20.4095 11.4547C19.1339 12.091 17.8584 13.1517 16.5828 14.2123C14.4568 9.75764 11.9056 6.36361 9.14182 4.24233ZM34.6536 43.698C34.2284 44.1223 33.8032 44.7586 33.8032 45.6072C33.8032 46.2435 34.0158 46.8799 34.6536 47.5163L36.567 49.6376L37.8426 50.274C37.8426 50.4861 38.0552 50.4861 38.2678 50.4861C38.4804 50.4861 38.693 50.6982 38.9056 50.6982H39.5434H41.0316C41.2442 50.6982 41.4568 50.6982 41.882 50.6982C42.0946 50.6982 42.5198 50.4861 42.7324 50.274C43.3702 49.8497 43.7954 49.6376 43.7954 49.4254L45.9213 47.092C46.3465 46.6678 46.5591 46.0314 46.5591 45.1829C46.5591 44.5465 46.1339 43.9101 45.7087 43.2738C45.2836 42.8495 44.6458 42.6374 44.008 42.6374C44.008 42.6374 43.5828 42.6374 42.945 42.6374H38.2678H37.2048C36.3544 42.8495 35.504 43.0616 34.6536 43.698ZM46.1339 55.7893C46.5591 55.365 46.5591 54.7286 45.9213 54.3044C45.4962 53.8801 44.8584 53.8801 44.4332 54.3044C43.3702 55.365 42.0946 56.0014 40.3938 56.0014C38.693 56.0014 37.4174 55.365 36.3544 54.3044C35.9292 53.8801 35.2914 53.668 34.8662 54.0922C34.441 54.5165 34.2284 54.9408 34.6536 55.5771C36.1418 57.2742 38.0552 58.1227 40.6064 58.3348C42.945 58.3348 44.8584 57.4863 46.1339 55.7893ZM60.8032 11.4547C61.0158 10.8183 61.441 9.96977 61.8662 9.33339C63.3544 6.78786 65.4804 4.66659 67.819 2.96957C70.1576 1.48468 72.9213 0.424041 75.6851 0.211914L77.3859 0.211914C76.3229 0.636169 74.6221 2.12106 71.8584 4.24233C69.0946 6.36361 66.756 9.75764 64.63 14.2123C63.3544 13.1517 62.0788 12.3032 60.8032 11.4547Z" fill="#2B3B47"/>
<path d="M22.1093 28.0005C23.3849 28.0005 24.4479 28.2127 25.2982 29.0612C26.1486 29.9097 26.7864 30.7582 26.7864 32.0309C26.7864 33.0916 26.5738 34.1522 25.936 35.2129L19.5581 41.1524L13.1801 36.9099C12.9675 36.6977 12.5423 36.4856 12.3297 36.2735C11.4793 35.6371 10.8416 34.5765 10.8416 33.5158C10.8416 32.4552 11.0542 31.1824 11.9045 30.3339C12.7549 29.2733 13.6053 28.849 14.8809 28.6369C15.9439 28.6369 17.0069 28.849 18.0699 29.6975L18.4951 30.1218C18.9203 29.9097 18.9203 29.6975 19.1329 29.6975C19.9833 28.6369 21.0463 28.2127 22.1093 28.0005ZM69.7313 33.3037C69.7313 34.3643 69.0935 35.425 68.2431 36.4856L61.2274 41.3646L54.8494 35.2129C53.999 34.3643 53.5738 33.3037 53.7864 32.0309C53.7864 30.9703 54.4242 29.9097 55.2746 29.0612C56.125 28.2127 57.188 27.7884 58.4636 28.0005C59.5266 28.2127 60.5896 28.6369 61.44 29.4854C61.6526 29.6975 61.8652 29.9097 61.8652 30.1218C61.8652 29.9097 62.0778 29.6975 62.2904 29.4854C63.1408 28.849 64.2038 28.4248 65.4793 28.6369C66.5423 28.6369 67.6053 29.2733 68.4557 30.1218C69.5187 31.1824 69.9439 32.2431 69.7313 33.3037Z" fill="#FF473E"/>
</g>
<defs>
<clipPath id="clip0_137_14968">
<rect width="81" height="61.9412" fill="white"/>
</clipPath>
</defs>
</svg>
