<svg viewBox="0 0 81 81" fill="none" xmlns="http://www.w3.org/2000/svg">
<g clip-path="url(#clip0_137_15027)">
<path d="M40.4294 64.3221C58.1913 64.3221 72.5902 49.9232 72.5902 32.1613C72.5902 14.3994 58.1913 0.000488281 40.4294 0.000488281C22.6675 0.000488281 8.26855 14.3994 8.26855 32.1613C8.26855 49.9232 22.6675 64.3221 40.4294 64.3221Z" fill="#FFD15C"/>
<path d="M14.3756 50.9754L3.30981 70.1571L16.2252 69.4714L22.0929 80.9996L32.3295 63.2529C24.9949 61.3555 18.6966 56.9388 14.3756 50.9754Z" fill="#40596B"/>
<path d="M66.544 50.8806C62.2549 56.8599 55.9566 61.2926 48.6379 63.2219L58.9064 81.0004L64.7742 69.4723L77.6895 70.1579L66.544 50.8806Z" fill="#40596B"/>
<path d="M40.4289 55.4718C53.3034 55.4718 63.7403 45.0349 63.7403 32.1603C63.7403 19.2858 53.3034 8.84892 40.4289 8.84892C27.5543 8.84892 17.1174 19.2858 17.1174 32.1603C17.1174 45.0349 27.5543 55.4718 40.4289 55.4718Z" fill="#F8B64C"/>
<path d="M56.4043 29.6413C57.1218 28.9397 56.7232 27.7119 55.7346 27.5684L46.5344 26.2291C46.1358 26.1653 45.8009 25.9261 45.6255 25.5594L41.5118 17.2202C41.0653 16.3114 39.7738 16.3114 39.3273 17.2202L35.2295 25.5594C35.0541 25.9102 34.7033 26.1653 34.3206 26.2291L25.1204 27.5684C24.1318 27.7119 23.7332 28.9397 24.4507 29.6413L31.0998 36.1308C31.3868 36.4178 31.5143 36.8165 31.4505 37.1991L29.8879 46.3515C29.7125 47.3401 30.7649 48.1054 31.6578 47.6271L39.8854 43.306C40.2362 43.1147 40.6667 43.1147 41.0175 43.306L49.245 47.6271C50.1379 48.0895 51.1744 47.3401 51.0149 46.3515L49.4364 37.1991C49.3726 36.8005 49.5001 36.4019 49.7872 36.1308L56.4043 29.6413Z" fill="white"/>
</g>
<defs>
<clipPath id="clip0_137_15027">
<rect width="81" height="81" fill="white"/>
</clipPath>
</defs>
</svg>
