<svg viewBox="0 0 81 81" fill="none" xmlns="http://www.w3.org/2000/svg">
<g clip-path="url(#clip0_137_15006)">
<path d="M40.4992 81.0003C62.5705 81.0003 80.4629 63.1079 80.4629 41.0365C80.4629 18.9651 62.5705 1.07272 40.4992 1.07272C18.4278 1.07272 0.5354 18.9651 0.5354 41.0365C0.5354 63.1079 18.4278 81.0003 40.4992 81.0003Z" fill="#FFD93B"/>
<path d="M66.3381 50.9161C64.0143 63.0814 53.3248 72.2471 40.5115 72.2471C27.6728 72.2471 16.9833 63.0814 14.6849 50.9161C14.4596 49.7416 15.5582 48.7417 16.7074 49.0683C32.543 53.4398 48.404 53.4145 64.3156 49.043C65.4648 48.7417 66.5633 49.7416 66.3381 50.9161Z" fill="#3E4347"/>
<path d="M19.4258 49.7207C23.2303 57.0234 30.7735 59.17 40.4075 59.17C50.0061 59.17 57.5164 57.031 61.3361 49.7789C47.3432 53.1405 33.3706 53.1303 19.4258 49.7207Z" fill="white"/>
<path d="M80.4647 41.0361C80.4647 63.1164 62.5686 80.9999 40.501 80.9999C27.9383 80.9999 16.7222 75.2058 9.3916 66.1261C16.2488 71.6721 24.9767 74.9805 34.4816 74.9805C56.5493 74.9805 74.4454 57.0971 74.4454 35.0168C74.4454 25.5118 71.137 16.7814 65.591 9.92676C74.658 17.2573 80.4647 28.4709 80.4647 41.0361Z" fill="#F4C534"/>
<path d="M36.7174 25.4154C36.7174 34.0926 26.4329 44.8657 15.9104 40.8182C11.1009 38.9451 7.61536 34.3938 7.07114 29.23C6.57248 23.5423 9.46573 18.1633 14.4422 15.4852C22.5727 11.3567 36.7174 15.7307 36.7174 25.4154Z" fill="white"/>
<path d="M65.1083 40.8184C59.9546 42.8004 54.7427 41.3803 50.5813 37.7125C43.9012 31.8779 41.0232 21.8971 49.7763 16.5511C54.7756 13.5186 61.8151 13.0681 66.5081 15.4854C77.0129 21.0846 76.3395 36.4469 65.1083 40.8184Z" fill="white"/>
<path d="M77.3155 13.0984H75.9891C72.3162 13.0984 68.5952 12.8857 65.0413 11.9846C58.4777 10.3013 50.727 12.3162 46.3909 16.8193C44.9936 18.2419 43.0268 18.9279 41.0347 18.9279H40.0399C38.025 18.9279 36.0354 18.2394 34.6382 16.7966C30.2287 12.2934 22.4298 10.3013 15.9371 11.9846C12.406 12.8857 8.7331 13.0984 5.10832 13.0984H3.68574C2.80992 13.0984 2.09863 13.8097 2.09863 14.7108L2.09863 19.6645C2.09863 20.3049 2.52389 20.801 3.09342 21.0871C3.82749 21.4642 4.32615 22.2236 4.32615 23.102C4.32615 23.2867 4.30337 23.5019 4.22997 23.6917C-0.106108 39.7577 18.805 52.6495 32.193 39.735C35.0128 36.9404 37.0505 33.7156 37.9744 30.068C38.2579 28.9315 39.3261 28.1949 40.5107 28.1949C41.6726 28.1949 42.761 28.929 43.0218 30.068C43.9457 33.7181 45.9833 36.9404 48.8032 39.735C62.1228 52.604 81.1023 39.8767 76.7662 23.669C76.4827 22.6033 77.0041 21.5604 77.9027 21.0871C78.4723 20.801 78.8975 20.2796 78.8975 19.6417V14.7108C78.9026 13.8071 78.1913 13.0984 77.3155 13.0984ZM29.6364 36.8189C20.4428 44.9469 9.25708 38.4769 8.26229 29.0935C7.78894 23.8791 10.467 18.976 15.0157 16.5333C22.2451 12.8351 35.5393 16.627 35.5393 25.4206C35.5368 29.8048 32.8815 33.9991 29.6364 36.8189ZM72.7415 29.0935C71.7467 38.4769 60.5837 44.9469 51.3648 36.8189C48.1425 33.9966 45.4872 29.8022 45.4872 25.4206C45.4872 16.627 58.7815 12.8376 65.9627 16.5333C70.5367 18.976 73.2148 23.8791 72.7415 29.0935Z" fill="#3E4347"/>
<path d="M57.5063 34.4476C60.9006 34.4476 63.6522 31.696 63.6522 28.3017C63.6522 24.9074 60.9006 22.1558 57.5063 22.1558C54.112 22.1558 51.3604 24.9074 51.3604 28.3017C51.3604 31.696 54.112 34.4476 57.5063 34.4476Z" fill="#3E4347"/>
<path d="M60.7429 25.0526C60.0064 24.3162 58.9927 24.1359 58.4787 24.6499C57.9647 25.164 58.145 26.1777 58.8814 26.9141C59.6178 27.6506 60.6315 27.8309 61.1456 27.3168C61.6596 26.8028 61.4793 25.7891 60.7429 25.0526Z" fill="white"/>
<path d="M24.0834 34.4471C27.4777 34.4471 30.2294 31.6955 30.2294 28.3012C30.2294 24.9069 27.4777 22.1553 24.0834 22.1553C20.6891 22.1553 17.9375 24.9069 17.9375 28.3012C17.9375 31.6955 20.6891 34.4471 24.0834 34.4471Z" fill="#3E4347"/>
<path d="M27.3188 25.0523C26.5823 24.3159 25.5686 24.1356 25.0546 24.6496C24.5406 25.1636 24.7209 26.1774 25.4573 26.9138C26.1938 27.6502 27.2075 27.8306 27.7215 27.3165C28.2355 26.8025 28.0552 25.7888 27.3188 25.0523Z" fill="white"/>
<path d="M30.7708 4.10256C30.8695 3.78868 16.2767 4.1785 11.9406 12.2862C10.8395 12.271 21.524 -8.60697 30.7708 4.10256Z" fill="#3E4347"/>
<path d="M50.2241 4.10256C50.1254 3.78868 64.7182 4.1785 69.0543 12.2862C70.1554 12.271 59.4709 -8.60697 50.2241 4.10256Z" fill="#3E4347"/>
<path d="M38.2878 63.646C29.9371 63.646 26.3275 59.12 24.6594 63.9143C24.338 64.8357 24.2494 65.7596 24.3253 66.6683C28.7879 70.1564 34.3973 72.2472 40.5078 72.2472C46.6157 72.2472 52.225 70.1488 56.6927 66.6506C56.7661 65.7469 56.675 64.8281 56.3561 63.9117C54.688 59.12 46.6385 63.646 38.2878 63.646Z" fill="#E24B4B"/>
</g>
<defs>
<clipPath id="clip0_137_15006">
<rect width="81" height="81" fill="white"/>
</clipPath>
</defs>
</svg>
