<svg viewBox="0 0 81 81" fill="none" xmlns="http://www.w3.org/2000/svg">
<g clip-path="url(#clip0_137_14979)">
<path d="M73.6093 4.70755L7.39179 4.70755C6.09192 4.70755 5.03809 5.76138 5.03809 7.06125L5.03809 52.3176C5.03809 53.6175 6.09192 54.6713 7.39179 54.6713L73.6093 54.6713C74.9092 54.6713 75.963 53.6175 75.963 52.3176V7.06125C75.963 5.76138 74.9092 4.70755 73.6093 4.70755Z" fill="#ECF9FD"/>
<path d="M73.6087 4.70801L40.5 4.70801V54.6718H73.6087C74.9086 54.6718 75.9624 53.6179 75.9624 52.3181V7.06171C75.9624 5.76184 74.9086 4.70801 73.6087 4.70801Z" fill="#D9F3FC"/>
<path d="M40.5025 28.2453C44.4022 28.2453 47.5636 25.0839 47.5636 21.1842C47.5636 17.2844 44.4022 14.123 40.5025 14.123C36.6028 14.123 33.4414 17.2844 33.4414 21.1842C33.4414 25.0839 36.6028 28.2453 40.5025 28.2453Z" fill="#FFE470"/>
<path d="M40.5 14.123V28.2453C44.3936 28.2453 47.5611 25.0778 47.5611 21.1842C47.5611 17.2908 44.3936 14.123 40.5 14.123Z" fill="#FABE2C"/>
<path d="M47.6734 54.6713L29.5026 30.6977C29.0564 30.1289 28.3738 29.7969 27.6509 29.7969C27.6498 29.7969 27.6486 29.7969 27.6476 29.7969C26.9236 29.798 26.2403 30.1322 25.7949 30.703L7.7334 54.6713H47.6734Z" fill="#8DC2EB"/>
<path d="M73.3724 54.671L55.2016 30.6974C54.7554 30.1286 54.0728 29.7966 53.3499 29.7966C53.3488 29.7966 53.3475 29.7966 53.3466 29.7966C52.6226 29.7977 51.9392 30.1319 51.4939 30.7028L33.4324 54.671H73.3724Z" fill="#5E9FF6"/>
<path d="M40.501 54.6718H73.373L55.2022 30.6982C54.7559 30.1294 54.0734 29.7974 53.3505 29.7974C53.3494 29.7974 53.3481 29.7974 53.3472 29.7974C52.6232 29.7985 51.9398 30.1327 51.4945 30.7035L40.501 45.2924V54.6718Z" fill="#3D6DEF"/>
<path d="M12.0996 0L2.68476 0C1.38489 0 0.331055 1.05383 0.331055 2.3537L0.331055 11.7685C0.331055 13.0684 1.38489 14.1222 2.68476 14.1222H12.0996C13.3994 14.1222 14.4533 13.0684 14.4533 11.7685V2.3537C14.4533 1.05383 13.3994 0 12.0996 0Z" fill="#00DD80"/>
<path d="M12.0996 45.2566H2.68476C1.38489 45.2566 0.331055 46.3104 0.331055 47.6103L0.331055 57.0251C0.331055 58.325 1.38489 59.3788 2.68476 59.3788H12.0996C13.3994 59.3788 14.4533 58.325 14.4533 57.0251V47.6103C14.4533 46.3104 13.3994 45.2566 12.0996 45.2566Z" fill="#00DD80"/>
<path d="M78.3173 0L68.9025 0C67.6027 0 66.5488 1.05383 66.5488 2.3537V11.7685C66.5488 13.0684 67.6027 14.1222 68.9025 14.1222H78.3173C79.6172 14.1222 80.671 13.0684 80.671 11.7685V2.3537C80.671 1.05383 79.6172 0 78.3173 0Z" fill="#00AA95"/>
<path d="M78.3173 45.2563H68.9025C67.6027 45.2563 66.5488 46.3102 66.5488 47.61V57.0248C66.5488 58.3247 67.6027 59.3785 68.9025 59.3785H78.3173C79.6172 59.3785 80.671 58.3247 80.671 57.0248V47.61C80.671 46.3102 79.6172 45.2563 78.3173 45.2563Z" fill="#00AA95"/>
<path d="M58.4183 76.3224L52.1452 70.0493L55.659 66.5356C56.2636 65.931 56.4928 65.0463 56.2577 64.2244C56.0228 63.4025 55.3605 62.7725 54.5279 62.5789L41.0334 59.4406C40.2417 59.2565 39.4106 59.4939 38.836 60.0687C38.261 60.6435 38.0236 61.4743 38.2077 62.2661L41.3459 75.7607C41.5396 76.5934 42.1696 77.2556 42.9915 77.4907C43.2047 77.5517 43.4224 77.5814 43.6383 77.5814C44.2539 77.5814 44.8552 77.3394 45.3027 76.8919L48.8166 73.378L55.0897 79.651C55.5493 80.1106 56.1517 80.3405 56.7539 80.3405C57.3561 80.3405 57.9587 80.1108 58.4181 79.651C59.3376 78.7318 59.3376 77.2415 58.4183 76.3224Z" fill="#8DC2EB"/>
<path d="M58.4205 76.3223L52.1474 70.0492L55.6612 66.5355C56.2658 65.9309 56.495 65.0462 56.2599 64.2243C56.025 63.4024 55.3627 62.7724 54.5301 62.5787L41.0356 59.4405C40.2439 59.2564 39.4128 59.4938 38.8381 60.0686L58.4205 79.6509C59.3399 78.7317 59.3399 77.2413 58.4205 76.3223Z" fill="#5E9FF6"/>
</g>
<defs>
<clipPath id="clip0_137_14979">
<rect width="81" height="81" fill="white"/>
</clipPath>
</defs>
</svg>
