<svg viewBox="0 0 81 81" fill="none" xmlns="http://www.w3.org/2000/svg">
<path fill-rule="evenodd" clip-rule="evenodd" d="M75.7367 70.9853L71.9799 72.312L69.0332 64.4634L72.9296 63.0808C75.1124 62.3057 77.5102 63.4468 78.2854 65.6295C79.0605 67.8123 77.9194 70.2102 75.7367 70.9853Z" fill="#FF5364"/>
<path fill-rule="evenodd" clip-rule="evenodd" d="M71.9794 72.3127L54.8018 78.4157L51.4919 70.6927L69.0326 64.4641L71.9794 72.3127Z" fill="#D1D4D1"/>
<path fill-rule="evenodd" clip-rule="evenodd" d="M15.3608 76.8101H15.0257C-0.0012207 76.6705 -0.0012207 66.9924 -0.0012207 61.4481C0.140923 58.7216 1.22714 56.1295 3.07119 54.1162C3.42248 53.6911 3.99104 53.5125 4.52231 53.6604C5.05358 53.8083 5.44806 54.255 5.52912 54.8005C5.56511 55.8802 6.03681 56.8994 6.83669 57.6256C7.63657 58.3518 8.69644 58.7232 9.77464 58.655C15.3608 58.655 18.154 53.0688 15.3608 46.086C12.6655 39.3407 9.95619 20.8503 24.9133 19.6213C24.9114 20.0731 24.9869 20.5218 25.1367 20.9481C25.7298 22.8494 26.8423 24.5471 28.3488 25.85C28.853 26.272 28.9877 26.992 28.67 27.5677C27.3852 29.9419 24.9831 36.3241 29.3264 46.086C34.9126 58.655 30.7229 76.8101 15.3608 76.8101Z" fill="#FF5364"/>
<path d="M13.967 71.2228C6.23432 71.2228 4.19116 65.7414 4.19116 62.8435C4.19116 62.0722 4.81642 61.447 5.58771 61.447C6.35901 61.447 6.98427 62.0722 6.98427 62.8435C6.99265 63.4245 7.26358 68.4367 13.967 68.4367C16.6128 68.3823 19.0616 67.027 20.5127 64.8141C23.2364 60.6432 23.9361 55.4672 22.4176 50.7229C22.155 49.9338 21.8673 49.121 21.5796 48.2873C18.915 40.7543 15.2644 30.4379 25.49 22.4106C25.8826 22.1022 26.41 22.0268 26.8733 22.2127C27.3367 22.3986 27.6657 22.8175 27.7364 23.3118C27.8071 23.806 27.6088 24.3004 27.2161 24.6087C18.5715 31.396 21.5712 39.8758 24.2191 47.3558C24.5194 48.2063 24.8126 49.0316 25.0808 49.8402C26.892 55.4342 26.0442 61.5495 22.7793 66.4396C20.8092 69.3884 17.5131 71.1776 13.967 71.2228Z" fill="#DF4D60"/>
<path fill-rule="evenodd" clip-rule="evenodd" d="M50.0818 8.11263L42.5824 13.4754C42.1356 13.7889 41.9164 14.3368 42.0237 14.8719C42.0656 15.0535 42.1215 15.263 42.1774 15.5004C41.6232 15.4104 41.0629 15.3637 40.5015 15.3607C38.2823 15.5938 36.1966 16.5338 34.5522 18.0421C34.203 17.6511 33.8679 17.2181 33.5187 16.7573C32.691 15.4377 31.2984 14.5763 29.748 14.425C30.8513 12.2464 34.4405 6.98142 43.2946 6.98142C45.6052 6.96576 47.9012 7.34843 50.0818 8.11263Z" fill="#67B9CC"/>
<path fill-rule="evenodd" clip-rule="evenodd" d="M61.4497 22.0925V22.3439C61.4551 23.0423 61.3895 23.7395 61.2542 24.4248V24.4387C60.3884 28.4748 57.0227 28.9636 54.467 27.567C55.4935 24.0465 54.8943 20.2515 52.833 17.2185L55.7658 11.353C56.4931 11.9434 57.1662 12.5978 57.7768 13.3082C58.9511 14.665 59.8905 16.2085 60.5559 17.8749C61.0896 19.2203 61.3918 20.6463 61.4497 22.0925Z" fill="#67B9CC"/>
<path fill-rule="evenodd" clip-rule="evenodd" d="M61.4451 -0.000976562L57.7163 7.44264L50.7196 21.4361C50.4389 22.0217 49.7863 22.3306 49.1555 22.1763C49.0577 22.1483 48.9739 22.1344 48.8622 22.0925C48.8686 20.3633 48.1309 18.7149 46.8372 17.5676C46.2701 17.0708 45.6353 16.657 44.9519 16.3387C44.0688 15.932 43.1334 15.6499 42.1727 15.5007C42.1169 15.2633 42.061 15.0539 42.0191 14.8723C41.9118 14.3372 42.131 13.7892 42.5777 13.4757L50.0772 8.11299L61.4451 -0.000976562Z" fill="#F3D55B"/>
<path fill-rule="evenodd" clip-rule="evenodd" d="M63.7231 12.6941C63.9226 14.9308 62.6353 17.0348 60.5529 17.8753C59.8874 16.2089 58.9481 14.6653 57.7737 13.3086C57.1631 12.5981 56.4901 11.9438 55.7627 11.3534L57.7179 7.44306C58.294 7.20924 58.9117 7.0952 59.5334 7.10789C63.7231 7.10789 63.7231 11.2975 63.7231 12.6941Z" fill="#D1D4D1"/>
<path fill-rule="evenodd" clip-rule="evenodd" d="M48.8796 22.3441C48.9645 24.9108 47.887 27.3789 45.9469 29.0615C44.8314 30.0699 43.3992 30.6576 41.8969 30.7234C40.3752 30.7958 38.8811 30.2978 37.7072 29.3268C37.7072 29.3268 40.9472 28.2515 40.7657 23.2379C38.3796 21.9215 36.2696 20.1576 34.551 18.0427C36.1955 16.5344 38.2811 15.5944 40.5003 15.3613C41.0617 15.3643 41.622 15.411 42.1762 15.501C43.1369 15.6502 44.0722 15.9322 44.9553 16.3389C45.6388 16.6572 46.2736 17.071 46.8407 17.5679C48.1344 18.7152 48.8721 20.3635 48.8657 22.0927C48.8773 22.176 48.882 22.26 48.8796 22.3441Z" fill="#955BA5"/>
<path fill-rule="evenodd" clip-rule="evenodd" d="M54.4643 27.5667C53.9046 29.4193 52.2097 30.6961 50.2746 30.7229C48.6831 30.6847 47.1536 30.0976 45.9453 29.061C47.8854 27.3784 48.963 24.9103 48.8781 22.3436C48.8804 22.2596 48.8757 22.1755 48.8641 22.0922C48.9758 22.1341 49.0596 22.1481 49.1574 22.176C49.7882 22.3303 50.4408 22.0215 50.7215 21.4358L52.8303 17.2183C54.8916 20.2512 55.4908 24.0462 54.4643 27.5667Z" fill="#894B9D"/>
<path fill-rule="evenodd" clip-rule="evenodd" d="M65.1486 59.7293C61.0803 60.7047 56.8481 60.7809 52.7473 59.9528V59.9668C52.3989 60.836 52.1642 61.7467 52.049 62.6761C51.5388 66.6209 52.3912 70.6217 54.465 74.0161C55.6761 75.5795 56.7819 77.2217 57.7748 78.9319C58.0119 79.3652 58.0025 79.8915 57.7501 80.316C57.4977 80.7406 57.0398 81.0002 56.5459 80.9988H14.4678C13.9529 81.0013 13.4785 80.7204 13.2332 80.2677C12.9879 79.8151 13.0115 79.2642 13.2947 78.8342C13.7814 78.0867 14.3635 77.406 15.0264 76.8092H15.3616C30.7236 76.8092 34.9133 58.654 29.3271 46.085C24.9838 36.3231 27.3859 29.9409 28.6707 27.5667C28.9884 26.991 28.8537 26.271 28.3495 25.849C26.843 24.5462 25.7305 22.8484 25.1374 20.9471C24.9877 20.5209 24.9121 20.0721 24.914 19.6203C24.9 16.9669 27.1345 14.2995 29.746 14.4252C31.2964 14.5765 32.689 15.4378 33.5167 16.7574C33.8659 17.2183 34.201 17.6512 34.5502 18.0422C36.2687 20.1572 38.3788 21.9211 40.7648 23.2374C40.9464 28.251 37.7064 29.3264 37.7064 29.3264C38.8803 30.2974 40.3743 30.7954 41.896 30.7229C43.3983 30.6572 44.8306 30.0695 45.946 29.061C47.1543 30.0977 48.6838 30.6848 50.2754 30.7229C52.2104 30.6961 53.9053 29.4193 54.465 27.5667C57.0207 28.9633 60.3864 28.4745 61.2523 24.4385V24.4245C61.3876 23.7393 61.4531 23.0421 61.4478 22.3436V22.0922C62.7466 22.6509 64.1571 23.2235 65.6933 23.824C75.0921 27.441 79.0443 32.2871 80.5666 39.1023C82.0888 45.9174 80.1476 56.3637 65.1486 59.7293Z" fill="#ECF0F1"/>
<path fill-rule="evenodd" clip-rule="evenodd" d="M52.7487 59.9666C52.4003 60.8359 52.1656 61.7465 52.0504 62.6759C48.1499 61.8545 44.559 59.9526 41.688 57.1875C41.171 56.6116 41.2147 55.7267 41.7858 55.2044C42.357 54.689 43.2375 54.7327 43.7549 55.3021C44.4867 56.0178 45.2919 56.6544 46.157 57.2015C48.177 58.499 50.4075 59.4347 52.7487 59.9666Z" fill="#D1D4D1"/>
<path fill-rule="evenodd" clip-rule="evenodd" d="M51.6724 40.4994H41.8965C41.1253 40.4994 40.5 39.8741 40.5 39.1028C40.5 38.3315 41.1253 37.7063 41.8965 37.7063H47.4827L45.2483 36.0304C44.8491 35.731 44.64 35.2415 44.6997 34.7461C44.7594 34.2508 45.0788 33.8249 45.5376 33.6289C45.9964 33.4329 46.525 33.4966 46.9241 33.7959L52.5103 37.9856C52.9912 38.3462 53.1874 38.9742 52.9973 39.5444C52.8072 40.1147 52.2735 40.4994 51.6724 40.4994Z" fill="#3F5C6C"/>
<path d="M67.0327 40.4996C66.2872 40.5154 65.5676 40.2262 65.0403 39.6989C64.5131 39.1717 64.2239 38.452 64.2396 37.7065C64.2288 36.9352 64.8453 36.3012 65.6166 36.2904C66.3879 36.2796 67.0219 36.8961 67.0327 37.6674C67.5387 37.6674 68.0062 37.9373 68.2591 38.3755C68.5121 38.8136 68.5121 39.3534 68.2591 39.7916C68.0062 40.2297 67.5387 40.4996 67.0327 40.4996Z" fill="#547580"/>
<path d="M74.0183 37.7054C73.2728 37.7212 72.5532 37.432 72.0259 36.9047C71.4987 36.3775 71.2094 35.6578 71.2252 34.9123C71.2144 34.141 71.8309 33.507 72.6022 33.4962C73.3735 33.4854 74.0075 34.1019 74.0183 34.8732C74.8004 34.8732 75.4344 35.5072 75.4344 36.2893C75.4344 37.0714 74.8004 37.7054 74.0183 37.7054Z" fill="#547580"/>
<path fill-rule="evenodd" clip-rule="evenodd" d="M71.2251 47.4815V48.8781C71.2251 51.9632 68.7241 54.4643 65.6389 54.4643C62.5538 54.4643 60.0527 51.9632 60.0527 48.8781V47.4815C60.0527 46.7102 60.678 46.085 61.4493 46.085H69.8286C70.5999 46.085 71.2251 46.7102 71.2251 47.4815Z" fill="#802D40"/>
<path fill-rule="evenodd" clip-rule="evenodd" d="M21.1163 55.6939L15.1949 61.6153L12.4018 58.8222C10.8636 57.1714 10.909 54.599 12.5045 53.0035C14.1 51.408 16.6724 51.3626 18.3232 52.9008L21.1163 55.6939Z" fill="#FB7B76"/>
<path fill-rule="evenodd" clip-rule="evenodd" d="M36.0892 73.303L30.7474 75.8531C30.212 76.1064 29.5751 75.9945 29.1581 75.5738L15.1926 61.6083L21.114 55.6869L36.4761 71.049C36.7993 71.3697 36.9459 71.8278 36.8689 72.2766C36.7919 72.7254 36.5009 73.1084 36.0892 73.303Z" fill="white"/>
<path fill-rule="evenodd" clip-rule="evenodd" d="M16.759 12.5681L11.0038 7.15091C9.40763 5.54557 9.37539 2.96261 10.931 1.31793C12.4866 -0.326755 15.0673 -0.438254 16.759 1.06613C18.4507 -0.438254 21.0314 -0.326755 22.587 1.31793C24.1426 2.96261 24.1104 5.54557 22.5142 7.15091L16.759 12.5681Z" fill="#FF5364"/>
<path fill-rule="evenodd" clip-rule="evenodd" d="M5.58506 23.7408L0.97644 19.5274C0.348894 18.9251 -0.00585938 18.0929 -0.00585938 17.2231C-0.00585938 16.3533 0.348894 15.5211 0.97644 14.9188C2.24933 13.6922 4.2472 13.6377 5.58506 14.7931C6.92292 13.6377 8.92079 13.6922 10.1937 14.9188C10.8212 15.5211 11.176 16.3533 11.176 17.2231C11.176 18.0929 10.8212 18.9251 10.1937 19.5274L5.58506 23.7408Z" fill="#FF5364"/>
<path d="M65.6387 54.465C68.3074 54.465 70.4708 53.2145 70.4708 51.6719C70.4708 50.1293 68.3074 48.8788 65.6387 48.8788C62.97 48.8788 60.8066 50.1293 60.8066 51.6719C60.8066 53.2145 62.97 54.465 65.6387 54.465Z" fill="#FF5364"/>
</svg>
