<svg viewBox="0 0 81 65" fill="none" xmlns="http://www.w3.org/2000/svg">
<path d="M44.3948 0.691517L21.4215 16.6779L20.9578 17.9005H16.4001V46.8958H21.0328L21.4215 48.3208L44.3948 64.3072C45.6595 65.1873 47.3917 64.2822 47.3917 62.7416V32.4994V2.25709C47.3918 0.716513 45.6595 -0.188567 44.3948 0.691517Z" fill="#B6C4CF"/>
<path d="M54.2507 25.737C53.5734 26.573 53.6196 27.7084 54.3334 28.5179C55.3081 29.6233 55.8936 31.0228 55.9007 32.5477C55.9079 34.0726 55.3356 35.4776 54.3714 36.5918C53.6652 37.408 53.6297 38.5437 54.3148 39.3734C55.2925 40.5573 57.2545 40.6013 58.2709 39.4428C59.9394 37.5414 60.9327 35.1348 60.9204 32.5241C60.908 29.9134 59.8922 27.5164 58.2061 25.6304C57.1787 24.4817 55.2173 24.544 54.2507 25.737Z" fill="#F79595"/>
<path d="M60.2886 18.3133L60.2873 18.3149C59.5338 19.2449 59.6825 20.5256 60.6033 21.3213C63.8726 24.1462 65.92 28.1222 65.9407 32.5291C65.9615 36.936 63.9513 40.9309 60.7088 43.786C59.7955 44.5902 59.6588 45.8723 60.421 46.7952L60.4225 46.7968C61.3279 47.8933 63.0925 48.0188 64.1792 47.065C68.3814 43.3765 70.9873 38.208 70.9605 32.5057C70.9338 26.8034 68.2793 21.6594 64.0426 18.0102C62.9471 17.0666 61.1837 17.2084 60.2886 18.3133Z" fill="#FD8087"/>
<path d="M66.2591 10.973L66.2572 10.9754C65.4895 11.9232 65.6434 13.2475 66.621 14.0192C72.3238 18.5214 75.9459 25.1351 75.9806 32.5111C76.0152 39.8872 72.4555 46.5344 66.7951 51.0895C65.8249 51.8704 65.6834 53.1962 66.4601 54.1367L66.462 54.1389C67.3386 55.2005 69.0347 55.3628 70.1296 54.4813C76.8287 49.088 81.0413 41.2191 81.0003 32.4879C80.9593 23.7565 76.6728 15.9273 69.9234 10.5967C68.8203 9.72528 67.1258 9.90341 66.2591 10.973Z" fill="#FE646F"/>
<path d="M44.394 58.0296L21.4207 42.0432V48.3215L44.394 64.3079C45.6586 65.188 47.3908 64.2829 47.3908 62.7424V56.4641C47.391 58.0047 45.6586 58.9097 44.394 58.0296Z" fill="#9FACBA"/>
<path d="M21.4216 48.3216H4.84172C2.16761 48.3216 -0.000244141 46.1537 -0.000244141 43.4796L-0.000244141 21.5207C-0.000244141 18.8466 2.16761 16.6787 4.84172 16.6787H21.4216V48.3216Z" fill="#596C76"/>
<path d="M-0.000244141 37.2012L-0.000244141 43.4795C-0.000244141 46.1536 2.16761 48.3214 4.84172 48.3214H21.4216V42.0431H4.84172C2.16761 42.0431 -0.000244141 39.8753 -0.000244141 37.2012H-0.000244141Z" fill="#465A61"/>
</svg>
