<svg viewBox="0 0 81 85" fill="none" xmlns="http://www.w3.org/2000/svg">
<g clip-path="url(#clip0_137_15045)">
<path d="M63.5431 84.3752H3.49138C2.7931 84.3752 1.39655 83.6836 0.698276 82.992C0.698276 82.3004 0 81.6088 0 80.9172V6.91621C0 5.53302 0.698276 4.84142 1.39655 4.14982C2.09483 3.45822 2.7931 3.45822 4.18965 3.45822H64.2414C64.9396 3.45822 66.3362 3.45822 67.0345 4.14982C67.0345 4.84142 67.0345 5.53302 67.0345 6.91621V80.9172C67.0345 81.6088 66.3362 82.992 65.6379 83.6836C65.6379 83.6836 64.9397 84.3752 63.5431 84.3752Z" fill="#DCE2E2"/>
<path d="M53.7717 24.205H10.4786C9.78034 24.205 9.08206 24.205 9.08206 23.5134C8.38379 23.5134 8.38379 22.8218 8.38379 22.1302C8.38379 21.4386 8.38379 20.747 9.08206 20.747C9.78034 20.0554 9.78034 20.0554 10.4786 20.0554H53.7717C54.47 20.0554 55.1683 20.747 55.1683 20.747C55.8666 20.747 55.8666 21.4386 55.8666 22.1302C55.8666 22.8218 55.8666 23.5134 55.1683 23.5134C55.1683 24.205 54.47 24.205 53.7717 24.205ZM55.8666 31.8126C55.8666 31.121 55.8666 30.4294 55.1683 30.4294C55.1683 30.4294 54.47 29.7378 53.7717 29.7378H10.4786C9.78034 29.7378 9.08206 29.7378 9.08206 30.4294C8.38379 31.121 8.38379 31.8126 8.38379 32.5042C8.38379 33.1958 8.38379 33.8874 9.08206 33.8874C9.08206 34.579 9.78034 34.579 10.4786 34.579H53.7717C54.47 34.579 55.1683 34.579 55.1683 33.8874C55.8666 33.1958 55.8666 32.5042 55.8666 31.8126ZM26.539 42.1866C26.539 41.495 26.539 40.8034 25.8407 40.8034C25.8407 40.1118 25.1424 40.1118 24.4441 40.1118H10.4786C9.78034 40.1118 9.08206 40.1118 9.08206 40.8034C8.38379 41.495 8.38379 41.495 8.38379 42.1866C8.38379 42.8782 8.38379 43.5698 9.08206 43.5698C9.78034 44.2614 9.78034 44.2614 10.4786 44.2614H24.4441C25.1424 44.2614 25.8407 44.2614 25.8407 43.5698C26.539 43.5698 26.539 42.8782 26.539 42.1866ZM55.8666 52.5605C55.8666 51.8689 55.8666 51.1773 55.1683 51.1773C55.1683 50.4857 54.47 50.4857 53.7717 50.4857H10.4786C9.78034 50.4857 9.08206 50.4857 9.08206 51.1773C8.38379 51.1773 8.38379 51.8689 8.38379 52.5605C8.38379 53.2521 8.38379 53.9437 9.08206 53.9437C9.08206 54.6353 9.78034 55.3269 10.4786 55.3269H53.7717C54.47 55.3269 55.1683 55.3269 55.1683 54.6353C55.8666 53.9437 55.8666 53.2521 55.8666 52.5605ZM26.539 72.6169C26.539 71.9253 26.539 71.2337 25.8407 71.2337C25.1424 70.5421 25.1424 70.5421 24.4441 70.5421H10.4786C9.78034 70.5421 9.08206 70.5421 9.08206 71.2337C8.38379 71.9253 8.38379 71.9253 8.38379 72.6169C8.38379 73.3085 8.38379 74.0001 9.08206 74.0001C9.78034 74.6917 9.78034 74.6917 10.4786 74.6917H24.4441C25.1424 74.6917 25.8407 74.6917 25.8407 74.0001C26.539 74.0001 26.539 73.3085 26.539 72.6169Z" fill="#96A9B2"/>
<path d="M80.3037 27.6641C81.002 29.0473 81.002 30.4305 80.3037 31.1221L71.2262 40.1129L59.3555 28.3557L68.4331 19.3649C69.1313 18.6733 70.5279 18.6733 71.9244 19.3649C73.321 20.0565 75.4158 21.4397 76.8124 22.8229C78.9072 24.8977 79.6055 26.2809 80.3037 27.6641Z" fill="#FF6E83"/>
<path d="M74.7179 34.5796C75.4162 36.6544 75.4162 38.0376 74.7179 38.7292L65.6403 47.0284L51.6748 33.1964L60.7524 24.2056C61.4507 23.514 62.8472 23.514 64.942 24.2056C67.0369 24.8972 68.4334 26.2804 70.5283 28.3552C72.6231 30.43 74.0196 32.5048 74.7179 34.5796Z" fill="#BFBCAF"/>
<path d="M34.9116 70.5438L26.5323 74.0018C25.834 74.0018 25.1357 74.0018 25.1357 73.3102V72.6186L28.6271 64.3194C29.3254 62.9362 30.0237 62.2446 31.4202 61.553C32.8168 60.8614 33.5151 60.8614 34.9116 61.553C36.3082 62.2446 37.0064 62.9362 37.7047 64.3194C38.403 65.7026 38.403 66.3942 37.7047 67.7774C37.0064 69.1606 36.3082 69.8522 34.9116 70.5438Z" fill="#2B2622"/>
<path d="M48.1781 65.0119C47.4798 65.0119 44.6867 66.3951 40.4971 67.7783C35.6091 69.1615 32.1178 69.8531 30.7212 68.4699C29.3246 67.0867 30.0229 64.3203 31.4195 59.4791C32.816 54.6379 34.2126 52.5631 34.2126 51.8715L55.8591 29.7404C56.5574 29.0488 57.954 29.0488 60.0488 29.7404C61.4453 30.432 63.5402 31.8152 65.635 33.89C67.7298 35.9648 69.1264 37.348 69.8246 39.4227C70.5229 41.4975 70.5229 42.1891 69.8246 43.5723L48.1781 65.0119Z" fill="#FFD469"/>
<path d="M34.2152 51.1786L33.5169 54.6366C33.5169 55.3282 34.2152 55.3282 34.2152 55.3282H36.31C37.0083 55.3282 37.0083 55.3282 37.0083 55.3282V57.403C37.0083 58.0946 37.0083 58.0946 37.7066 58.0946H39.8014C40.4997 58.0946 40.4997 58.0946 40.4997 58.7862V60.861C40.4997 61.5526 40.4997 61.5526 41.198 61.5526H43.2928C43.9911 61.5526 44.6894 62.2442 44.6894 62.2442V64.319C44.6894 65.0106 44.6894 65.0106 45.3876 65.0106L48.1807 64.319L30.7238 71.9265C31.4221 71.2349 30.7238 69.8517 30.0256 69.1601C28.629 68.4686 27.9307 68.4685 26.5342 68.4685L34.2152 51.1786Z" fill="#E5AA6E"/>
<path d="M39.1055 51.8688C39.1055 52.5604 39.1055 52.5604 39.1055 51.8688C38.4073 51.8688 37.709 51.8688 37.709 51.8688C37.709 51.1772 37.709 51.1772 37.709 50.4856L55.8642 33.1956C56.5624 33.1956 56.5624 33.1956 57.2607 33.1956V33.8872L39.1055 51.8688ZM43.9935 56.71L62.1486 38.7284C62.1486 38.0368 62.1486 38.0368 62.1486 37.3452C61.4504 37.3452 61.4504 37.3452 60.7521 37.3452L42.5969 55.3268C42.5969 56.0184 42.5969 56.0184 42.5969 56.71C43.2952 56.71 43.2952 56.71 43.9935 56.71C43.2952 56.71 43.9935 56.71 43.9935 56.71ZM48.8814 61.5511L67.0366 43.5696C67.0366 43.5696 67.0366 42.878 67.0366 42.1864C67.0366 41.4948 66.3383 41.4948 65.64 42.1864L47.4848 60.1679C47.4848 60.1679 47.4848 60.8595 47.4848 61.5511C47.4848 61.5511 47.4848 61.5511 48.8814 61.5511C48.1831 61.5511 48.1831 61.5511 48.8814 61.5511Z" fill="#FFB636"/>
<path d="M46.0883 8.99113H20.2521C19.5538 8.99113 18.8555 8.99113 18.1573 8.29953C18.1573 7.60793 17.459 6.91634 17.459 6.22474V2.76674C17.459 2.07515 17.459 1.38355 18.1573 1.38355C18.8555 0.691949 19.5538 0.000350952 20.2521 0.000350952H46.7866C47.4848 0.000350952 48.1831 0.691949 48.8814 0.691949C48.8814 1.38355 48.8814 2.07515 48.8814 2.76674V6.91634C48.8814 6.91634 48.8814 7.60793 48.1831 8.29953C47.4848 8.29953 47.4848 8.99113 46.0883 8.99113Z" fill="#B9C5C6"/>
</g>
<defs>
<clipPath id="clip0_137_15045">
<rect width="81" height="84.375" fill="white"/>
</clipPath>
</defs>
</svg>
