<svg viewBox="0 0 81 81" fill="none" xmlns="http://www.w3.org/2000/svg">
<path d="M40.5 81C62.8675 81 81 62.8675 81 40.5C81 18.1325 62.8675 0 40.5 0C18.1325 0 0 18.1325 0 40.5C0 62.8675 18.1325 81 40.5 81Z" fill="#EF5261"/>
<path d="M40.4997 74.2508C33.8246 74.2508 27.2995 72.2714 21.7494 68.563C16.1993 64.8545 11.8735 59.5835 9.31905 53.4166C6.76462 47.2496 6.09627 40.4637 7.39851 33.9169C8.70074 27.3701 11.9151 21.3565 16.6351 16.6365C21.355 11.9166 27.3687 8.70221 33.9155 7.39997C40.4622 6.09773 47.2482 6.76609 53.4151 9.32052C59.5821 11.875 64.8531 16.2007 68.5615 21.7508C72.27 27.3009 74.2494 33.8261 74.2494 40.5011C74.239 49.4489 70.68 58.0273 64.3529 64.3544C58.0258 70.6814 49.4475 74.2405 40.4997 74.2508Z" fill="#EEEFEE"/>
<path d="M56.1187 41.9922L33.7588 57.8712C33.4835 58.0668 33.1598 58.1829 32.8229 58.2067C32.4861 58.2305 32.1492 58.1612 31.8492 58.0063C31.5491 57.8514 31.2975 57.6169 31.1219 57.3285C30.9463 57.04 30.8534 56.7089 30.8535 56.3712L30.8535 24.6241C30.8535 24.2866 30.9464 23.9556 31.122 23.6673C31.2976 23.3791 31.5491 23.1447 31.8489 22.9898C32.1488 22.8349 32.4855 22.7655 32.8222 22.7892C33.1589 22.8129 33.4826 22.9288 33.7578 23.1241L56.1177 38.9923C56.3572 39.1622 56.5526 39.3871 56.6875 39.648C56.8223 39.9089 56.8927 40.1983 56.8928 40.492C56.8929 40.7857 56.8227 41.0752 56.688 41.3362C56.5533 41.5972 56.3581 41.8221 56.1187 41.9922Z" fill="#EF5261"/>
</svg>
