<svg viewBox="0 0 81 81" fill="none" xmlns="http://www.w3.org/2000/svg">
<g clip-path="url(#clip0_137_15037)">
<path d="M71.7784 66.5125C74.4126 67.8296 77.0467 69.1467 78.3638 71.1223C80.3394 73.0979 80.9979 75.732 80.9979 79.6832C80.9979 80.3418 80.9979 80.3418 80.3394 80.3418H37.5345C36.876 80.3418 36.876 79.6832 36.876 79.6832C36.876 75.732 37.5345 73.0979 39.5101 71.1223C41.4857 69.1467 43.4613 67.8296 46.0955 66.5125V65.854C46.0955 64.5369 46.0955 63.2198 46.754 63.2198C47.4126 62.5613 48.0711 62.5613 50.0467 62.5613C50.7052 62.5613 50.7052 61.9028 50.7052 61.9028V59.2686V58.6101C48.7296 57.9515 46.754 55.9759 46.0955 54.0003C44.7784 51.3662 44.1199 49.3906 44.1199 46.7564V46.0979C44.1199 45.4393 44.1199 45.4393 43.4613 44.7808C42.1443 44.7808 40.8272 43.4637 40.8272 42.1467C40.8272 41.4881 40.8272 40.8296 40.8272 39.5125C40.8272 39.5125 41.4857 38.854 42.1443 38.1954C42.1443 38.1954 42.1443 38.1954 42.1443 37.5369L41.4857 30.9515C42.8028 19.7564 48.7296 13.8296 57.9492 13.8296C67.8272 13.8296 73.0955 19.7564 74.4126 30.9515L73.754 36.8784C73.754 36.8784 73.754 37.5369 74.4126 37.5369C75.0711 37.5369 76.3882 38.1954 76.3882 38.854C77.0467 39.5125 77.0467 40.1711 77.0467 41.4881C76.3882 42.8052 75.7296 43.4637 74.4126 44.1223C73.754 44.1223 73.754 44.7808 73.754 44.7808V45.4393C73.754 48.0735 73.0955 50.0491 71.7784 52.6832C70.4613 54.6589 69.1443 56.6345 67.1687 57.9515L66.5101 58.6101V59.9272C66.5101 60.5857 67.1687 61.2442 67.1687 61.2442C68.4857 61.2442 69.8028 61.2442 70.4613 61.9028C71.1199 63.8784 71.1199 65.1954 71.7784 66.5125Z" fill="#2B3B47"/>
<path d="M43.4634 63.878C46.7561 65.1951 49.3902 67.1707 52.0244 69.8049C54 72.439 55.3171 75.7317 55.3171 81C55.3171 81.6585 54.6585 81.6585 54 81.6585H1.31707C0.658537 81.6585 0 81 0 81C0 76.3902 1.31707 72.439 3.29268 69.8049C5.26829 67.1707 7.90244 65.1951 11.8537 63.878V63.2195C11.8537 61.2439 11.8537 60.5854 12.5122 59.9268C13.1707 58.6098 14.4878 57.9512 16.4634 57.9512C17.122 57.9512 17.7805 57.2927 17.7805 56.6341V54.6585V54C14.4878 52.6829 12.5122 50.0488 11.1951 47.4146C9.87805 44.7805 9.21951 42.1463 9.21951 38.8537V38.1951C9.21951 37.5366 8.56098 36.878 7.90244 36.878C7.2439 36.878 6.58537 36.2195 5.92683 35.561C5.26829 34.9024 4.60976 34.9024 4.60976 34.2439C4.60976 32.9268 4.60976 32.2683 4.60976 30.9512C5.26829 30.2927 5.92683 29.6341 6.58537 28.9756C6.58537 28.9756 7.2439 28.9756 7.2439 28.3171L6.58537 20.4146C8.56098 6.58537 15.1463 0 27 0C38.8537 0 45.439 7.2439 46.7561 21.0732V28.3171C46.7561 28.9756 46.7561 28.9756 47.4146 28.9756C48.7317 28.9756 49.3902 29.6341 50.0488 30.9512C50.0488 31.6098 50.7073 32.9268 50.0488 33.5854C50.0488 34.2439 49.3902 34.9024 48.7317 35.561C48.7317 36.2195 48.0732 36.878 47.4146 36.878C46.7561 36.878 46.0976 37.5366 46.0976 38.1951V38.8537C46.0976 42.1463 45.439 44.7805 44.1219 47.4146C42.8049 50.0488 40.8293 52.0244 38.1951 54C37.5366 54 37.5366 54.6585 37.5366 55.3171V57.2927C37.5366 57.9512 38.1951 58.6098 38.8537 58.6098C40.8293 58.6098 42.1463 59.2683 42.8049 59.9268C42.8049 59.9268 42.8049 61.2439 43.4634 63.878Z" fill="#597B91"/>
</g>
<defs>
<clipPath id="clip0_137_15037">
<rect width="81" height="81" fill="white"/>
</clipPath>
</defs>
</svg>
