<svg viewBox="0 0 81 81" fill="none" xmlns="http://www.w3.org/2000/svg">
<g clip-path="url(#clip0_137_14915)">
<path d="M46.7438 4.05V29.0251C46.7438 31.2189 44.8876 33.0751 42.6938 33.0751H21.2625L5.39995 41.3437V33.0749H4.05C1.8562 33.0749 0 31.2187 0 29.0249V4.05C0 1.8562 1.8562 0 4.05 0H42.8624C45.0563 0 46.7438 1.8562 46.7438 4.05Z" fill="#F3705A"/>
<path d="M10.9685 20.925C13.3916 20.925 15.3559 18.9607 15.3559 16.5376C15.3559 14.1145 13.3916 12.1501 10.9685 12.1501C8.54538 12.1501 6.58105 14.1145 6.58105 16.5376C6.58105 18.9607 8.54538 20.925 10.9685 20.925Z" fill="white"/>
<path d="M23.4568 20.9254C25.8799 20.9254 27.8442 18.9611 27.8442 16.538C27.8442 14.1148 25.8799 12.1505 23.4568 12.1505C21.0337 12.1505 19.0693 14.1148 19.0693 16.538C19.0693 18.9611 21.0337 20.9254 23.4568 20.9254Z" fill="white"/>
<path d="M35.9441 20.9249C38.3672 20.9249 40.3315 18.9606 40.3315 16.5375C40.3315 14.1144 38.3672 12.15 35.9441 12.15C33.521 12.15 31.5566 14.1144 31.5566 16.5375C31.5566 18.9606 33.521 20.9249 35.9441 20.9249Z" fill="white"/>
<path d="M34.2559 14.0063V38.8125C34.2559 41.0064 36.1121 42.8626 38.3059 42.8626H59.9058L75.7684 51.1314V42.8626H76.9497C79.1435 42.8626 80.9997 41.0064 80.9997 38.8125V14.0063C80.9997 11.8125 79.1435 9.9563 76.9497 9.9563H38.1372C35.9434 9.9563 34.2559 11.8127 34.2559 14.0063Z" fill="#FFD15C"/>
<path d="M70.0339 30.8813C72.4571 30.8813 74.4214 28.917 74.4214 26.4939C74.4214 24.0708 72.4571 22.1064 70.0339 22.1064C67.6108 22.1064 65.6465 24.0708 65.6465 26.4939C65.6465 28.917 67.6108 30.8813 70.0339 30.8813Z" fill="white"/>
<path d="M57.5449 30.8821C59.968 30.8821 61.9324 28.9177 61.9324 26.4946C61.9324 24.0715 59.968 22.1072 57.5449 22.1072C55.1218 22.1072 53.1575 24.0715 53.1575 26.4946C53.1575 28.9177 55.1218 30.8821 57.5449 30.8821Z" fill="white"/>
<path d="M45.0583 30.8815C47.4815 30.8815 49.4458 28.9171 49.4458 26.494C49.4458 24.0709 47.4815 22.1066 45.0583 22.1066C42.6352 22.1066 40.6709 24.0709 40.6709 26.494C40.6709 28.9171 42.6352 30.8815 45.0583 30.8815Z" fill="white"/>
<path d="M58.7253 43.8754V68.8505C58.7253 71.0443 56.8691 72.9005 54.6752 72.9005H41.3439L35.2689 81.0005L29.1939 72.7317H16.0314C13.8376 72.7317 11.9814 70.8755 11.9814 68.6817V43.8754C11.9814 41.6816 13.8376 39.8254 16.0314 39.8254H54.8439C57.0377 39.8254 58.7253 41.6818 58.7253 43.8754Z" fill="#66C6B9"/>
<path d="M47.7537 60.7496C50.1768 60.7496 52.1411 58.7853 52.1411 56.3622C52.1411 53.9391 50.1768 51.9747 47.7537 51.9747C45.3305 51.9747 43.3662 53.9391 43.3662 56.3622C43.3662 58.7853 45.3305 60.7496 47.7537 60.7496Z" fill="white"/>
<path d="M35.4365 60.7496C37.8596 60.7496 39.824 58.7853 39.824 56.3622C39.824 53.9391 37.8596 51.9747 35.4365 51.9747C33.0134 51.9747 31.0491 53.9391 31.0491 56.3622C31.0491 58.7853 33.0134 60.7496 35.4365 60.7496Z" fill="white"/>
<path d="M22.9499 60.7496C25.3731 60.7496 27.3374 58.7853 27.3374 56.3622C27.3374 53.9391 25.3731 51.9747 22.9499 51.9747C20.5268 51.9747 18.5625 53.9391 18.5625 56.3622C18.5625 58.7853 20.5268 60.7496 22.9499 60.7496Z" fill="white"/>
</g>
<defs>
<clipPath id="clip0_137_14915">
<rect width="81" height="81" fill="white"/>
</clipPath>
</defs>
</svg>
