<svg viewBox="0 0 58 45" fill="none" xmlns="http://www.w3.org/2000/svg">
<path d="M41.3514 0H16.4521C14.7333 0 13.3582 1.72319 13.3582 2.90481V15.4103C13.3582 16.5919 14.7333 17.5274 16.4521 17.5274H41.3023C43.0212 17.5274 44.3963 16.5919 44.3963 15.4103V2.90481C44.3963 1.72319 43.0211 0 41.3514 0ZM41.3023 13.244C41.3023 14.4256 39.9272 15.3611 38.2083 15.3611H19.5952C17.8764 15.3611 16.5013 14.4256 16.5013 13.244V4.97265C16.5013 3.79103 17.8764 2.85558 19.5952 2.85558H38.2083C39.9272 2.85558 41.3023 3.79103 41.3023 4.97265V13.244Z" fill="#2B2B38"/>
<path d="M56.8703 9.84686H1.08032V45H56.8703V9.84686Z" fill="#2B2B38"/>
<path d="M0 9.5022V22.3031L28.9754 25.1094L58 22.5V9.5022H0Z" fill="#4B4B70"/>
<path d="M32.6587 21.9092H26.7654V28.3096H32.6587V21.9092Z" fill="#D0D2D3"/>
<path d="M29.7611 25.5526C30.385 25.5526 30.8907 25.0456 30.8907 24.4202C30.8907 23.7948 30.385 23.2878 29.7611 23.2878C29.1373 23.2878 28.6316 23.7948 28.6316 24.4202C28.6316 25.0456 29.1373 25.5526 29.7611 25.5526Z" fill="#221F1F"/>
<path d="M30.3505 24.5186H29.2209V26.7342H30.3505V24.5186Z" fill="#221F1F"/>
</svg>
