<svg viewBox="0 0 195 195" fill="none" xmlns="http://www.w3.org/2000/svg">
<path d="M106.838 187.827C156.779 182.61 193.035 137.896 187.818 87.9558C182.601 38.0152 137.887 1.75952 87.946 6.97652C38.0054 12.1935 1.74972 56.9076 6.96672 106.848C12.1837 156.789 56.8978 193.044 106.838 187.827Z" fill="#FFCC4D"/>
<path d="M188.313 101.367C188.313 99.4863 188.104 97.6053 187.895 95.7243C182.67 45.7725 137.943 9.40596 87.9913 14.631C42.4286 19.4381 8.36112 57.0587 6.68909 101.576C4.39006 53.7146 39.7116 11.914 87.9913 6.89792C137.943 1.67284 182.67 38.0394 187.895 87.9912C188.522 92.5892 188.522 96.9783 188.313 101.367Z" fill="#FFCC4D"/>
<path d="M188.313 93.6338C190.403 141.287 154.872 182.878 106.801 188.103C57.0586 193.328 12.1229 156.962 6.89779 107.01C6.47978 102.412 6.27078 98.0229 6.68879 93.8428C6.68879 95.7238 6.89779 97.3958 7.10679 99.2769C12.3319 149.229 57.0586 185.595 107.219 180.37C152.364 175.563 186.641 137.942 188.313 93.6338Z" fill="#FFCC4D"/>
<path d="M55.8049 89.4536C54.7599 84.4375 55.1779 79.4214 57.059 74.6143C57.895 72.1063 59.567 69.8073 61.866 67.7172C64.1651 65.6272 67.5091 63.9552 70.8532 63.9552C74.1972 63.7462 77.7503 65.0002 80.2583 67.2992C82.7664 69.5983 84.2294 72.1063 85.0654 74.6143C86.7374 79.6304 86.7374 84.8555 85.2744 89.6626C82.7664 85.2735 80.6763 81.3024 78.1683 78.1674C76.9143 76.7044 75.8693 75.2413 74.6152 74.6143C73.3612 73.9873 72.5252 73.7783 71.2712 73.7783C68.9721 73.7783 66.2551 75.4503 63.7471 78.5854C61.03 81.5114 58.731 85.4825 55.8049 89.4536Z" fill="#935409"/>
<path d="M110.146 89.4536C109.101 84.4375 109.519 79.4214 111.4 74.6143C112.236 72.1063 113.908 69.8073 116.207 67.7172C118.506 65.6272 121.85 63.9552 125.194 63.9552C128.538 63.7462 132.091 65.0002 134.599 67.2992C137.107 69.5983 138.57 72.1063 139.406 74.6143C141.078 79.6304 141.078 84.8555 139.615 89.6626C137.107 85.2735 135.017 81.3024 132.509 78.1674C131.255 76.7044 130.21 75.2413 128.956 74.6143C127.702 73.9873 126.866 73.7783 125.612 73.7783C123.313 73.7783 120.596 75.4503 118.088 78.5854C115.371 81.5114 113.072 85.4825 110.146 89.4536Z" fill="#935409"/>
<path d="M86.3198 84.0195C86.1108 81.9295 85.6928 80.0484 85.0658 77.9584C84.2298 75.4504 82.7668 72.9423 80.2588 70.6433C77.7507 68.3443 74.1977 67.0902 70.8536 67.2992C67.5096 67.2992 64.1655 68.9713 61.8665 71.0613C59.5674 73.1513 58.1044 75.6594 57.0594 77.9584C56.0144 80.4664 55.3874 82.9745 55.3874 85.4825C55.1784 81.7205 55.5964 78.1674 57.0594 74.4053C57.8954 71.8973 59.5674 69.5983 61.8665 67.5082C64.1655 65.4182 67.5096 63.7462 70.8536 63.7462C74.1977 63.5372 77.9597 64.7912 80.2588 67.0902C82.7668 69.3893 84.2298 71.8973 85.0658 74.4053C86.1108 77.7494 86.5289 80.8844 86.3198 84.0195Z" fill="#8C4D09"/>
<path d="M140.661 84.0195C140.452 81.9295 140.034 80.0484 139.407 77.9584C138.571 75.4504 137.108 72.9423 134.6 70.6433C132.091 68.3443 128.538 67.0902 125.194 67.2992C121.641 67.2992 118.506 68.9713 116.207 71.0613C113.908 73.1513 112.445 75.6594 111.4 77.9584C110.355 80.6754 109.728 83.1835 109.519 85.9005C109.31 82.1385 109.728 78.1674 111.4 74.4053C112.236 71.8973 113.908 69.5983 116.207 67.5082C118.506 65.4182 121.641 63.7462 125.194 63.7462C128.538 63.5372 132.091 64.7912 134.6 67.0902C137.108 69.3893 138.571 71.8973 139.407 74.4053C140.452 77.7494 140.87 80.8844 140.661 84.0195Z" fill="#8C4D09"/>
<path d="M160.515 113.698C160.515 116.624 160.097 119.341 159.47 122.058C154.036 143.377 128.329 159.47 97.3963 159.47C66.4638 159.47 40.7564 143.377 35.3224 122.058C34.6954 119.341 34.2773 116.415 34.2773 113.698C34.2773 109.727 34.9044 105.965 36.1584 102.412C52.2516 110.772 74.406 115.997 98.8593 115.997C122.059 115.997 143.168 111.399 159.052 103.666C160.097 106.801 160.515 110.354 160.515 113.698Z" fill="#935409"/>
<path d="M160.515 113.699C160.515 116.625 160.097 119.342 159.47 122.059C154.036 143.377 128.329 159.47 97.3963 159.47C66.4638 159.47 40.7564 143.377 35.3224 122.059C34.6954 119.342 34.2773 116.416 34.2773 113.699C34.2773 112.445 34.2773 111.191 34.4863 110.146C34.6954 111.818 34.9044 113.49 35.3224 115.162C40.9654 136.48 66.6728 152.573 97.6053 152.573C128.538 152.573 154.245 136.48 159.679 115.162C160.097 113.49 160.515 111.609 160.515 109.937C160.515 111.191 160.515 112.445 160.515 113.699Z" fill="#8C4D09"/>
<path d="M160.515 113.698C160.515 116.624 160.097 119.341 159.47 122.058C143.586 130.21 121.641 135.226 97.3963 135.226C73.1519 135.226 51.2066 130.21 35.3224 122.058C34.6954 119.341 34.2773 116.415 34.2773 113.698C34.2773 109.727 34.9044 105.965 36.1584 102.412C52.2516 110.772 74.406 115.997 98.8593 115.997C122.059 115.997 143.168 111.399 159.052 103.666C160.097 106.801 160.515 110.354 160.515 113.698Z" fill="white"/>
<path d="M141.914 66.8815C141.914 81.3027 152.573 92.7979 165.74 92.7979C178.908 92.7979 189.567 81.0937 189.567 66.6725C189.567 52.2513 168.875 16.3027 165.531 16.3027C162.396 16.3027 141.914 52.4603 141.914 66.8815Z" fill="#0EA5EF"/>
<path d="M141.914 66.8811C141.914 81.3023 152.782 92.7975 165.74 92.7975C178.908 92.7975 189.567 81.0933 189.567 66.6721C189.567 66.0451 189.567 65.209 189.358 64.582C188.104 77.7492 178.072 87.9904 165.74 87.9904C153.409 87.9904 143.168 77.9582 141.914 64.791C141.914 65.418 141.914 66.2541 141.914 66.8811Z" fill="#068FCC"/>
<path d="M141.914 66.8815C141.914 67.7175 141.914 68.7625 142.123 69.5986C143.795 54.1323 162.605 21.3188 165.531 21.3188C168.666 21.3188 187.477 53.9233 189.358 69.3896C189.358 68.5535 189.567 67.7175 189.567 66.6725C189.567 52.2513 168.875 16.3027 165.531 16.3027C162.396 16.3027 141.914 52.4603 141.914 66.8815Z" fill="#0EA5EF"/>
</svg>
