<svg viewBox="0 0 31 22" fill="none" xmlns="http://www.w3.org/2000/svg">
<g clip-path="url(#clip0_181_7186)">
<path d="M31 3H0V19H31V3Z" fill="#D0DED0"/>
<path d="M31 11.3948C30.2703 11.0854 29.4057 10.9062 28.4736 10.9062C25.8924 10.9062 23.8004 12.2864 23.8004 13.9882C23.8004 15.69 25.8924 17.0701 28.4736 17.0701C29.4057 17.0701 30.2746 16.891 31 16.5816V11.3948Z" fill="#E9F0EA"/>
<g opacity="0.8">
<path d="M27.0565 3H17.8282V19H27.0565V3Z" fill="#C6DEA7"/>
</g>
<path d="M8.33837 3H0V19H8.33837V3Z" fill="#FBFBEF"/>
<path d="M8.33414 3.87939H5.02325V6.06158H8.33414V3.87939Z" fill="#4D5A89"/>
<g opacity="0.77">
<path d="M10.2153 17.4976H6.10724V18.6009H10.2153V17.4976Z" fill="#B7B586"/>
</g>
<g opacity="0.82">
<path d="M6.11145 17.5303C6.11145 17.5303 9.76397 19.2483 14.2853 17.5303L14.2938 18.601H6.11145V17.5303V17.5303Z" fill="#B7B586"/>
</g>
<path d="M1.19362 16.0933H1.42138V18.5604H1.11771V16.4556L0.717025 16.6592L0.645325 16.3742L1.19362 16.0933Z" fill="#5B7753"/>
<path d="M2.82166 16.0605C2.94398 16.0605 3.06207 16.085 3.16751 16.1338C3.27296 16.1827 3.36574 16.256 3.44166 16.3577C3.51758 16.4595 3.58085 16.5898 3.62302 16.7527C3.66942 16.9114 3.69051 17.1069 3.69051 17.3308C3.69051 17.5547 3.6652 17.746 3.61881 17.9089C3.57241 18.0677 3.50915 18.198 3.42901 18.3038C3.34887 18.4056 3.25608 18.4829 3.15064 18.5277C3.0452 18.5766 2.93554 18.601 2.82166 18.601C2.69935 18.601 2.58126 18.5766 2.47581 18.5277C2.37037 18.4789 2.27758 18.4056 2.20166 18.3038C2.12575 18.202 2.06248 18.0717 2.0203 17.9089C1.97391 17.7501 1.95282 17.5588 1.95282 17.3308C1.95282 17.115 1.97813 16.9277 2.02452 16.7689C2.07092 16.6102 2.13418 16.4799 2.21432 16.374C2.29445 16.2682 2.38724 16.1908 2.49268 16.142C2.59813 16.085 2.70779 16.0605 2.82166 16.0605ZM2.2818 17.3267C2.2818 17.5303 2.29867 17.6972 2.32819 17.8275C2.35772 17.9577 2.39989 18.0595 2.44629 18.1328C2.4969 18.2061 2.55173 18.259 2.61921 18.2834C2.6867 18.3119 2.75418 18.3242 2.82588 18.3242C2.89758 18.3242 2.96506 18.3079 3.02833 18.2794C3.0916 18.2468 3.15064 18.1939 3.20126 18.1206C3.25187 18.0473 3.28983 17.9415 3.31935 17.8153C3.34887 17.689 3.36153 17.5262 3.36153 17.3308C3.36153 17.1272 3.34466 16.9603 3.31513 16.83C3.28561 16.6997 3.24343 16.602 3.19282 16.5287C3.14221 16.4555 3.08316 16.4066 3.01989 16.3781C2.95663 16.3496 2.88915 16.3374 2.81745 16.3374C2.74575 16.3374 2.67826 16.3537 2.615 16.3822C2.55173 16.4147 2.49268 16.4677 2.44207 16.541C2.39146 16.6183 2.3535 16.7201 2.32398 16.8463C2.29445 16.9684 2.2818 17.1313 2.2818 17.3267Z" fill="#5B7753"/>
<path d="M4.89253 16.0605C5.01484 16.0605 5.13293 16.085 5.23838 16.1338C5.34382 16.1827 5.43661 16.256 5.51252 16.3577C5.58844 16.4595 5.65171 16.5898 5.69389 16.7527C5.74028 16.9114 5.76137 17.1069 5.76137 17.3308C5.76137 17.5547 5.73606 17.746 5.68967 17.9089C5.64327 18.0677 5.58001 18.198 5.49987 18.3038C5.41974 18.4056 5.32695 18.4829 5.2215 18.5277C5.11606 18.5766 5.0064 18.601 4.89253 18.601C4.77021 18.601 4.65212 18.5766 4.54667 18.5277C4.44123 18.4789 4.34844 18.4056 4.27253 18.3038C4.19661 18.202 4.13334 18.0717 4.09116 17.9089C4.04477 17.7501 4.02368 17.5588 4.02368 17.3308C4.02368 17.115 4.04899 16.9277 4.09538 16.7689C4.14178 16.6102 4.20504 16.4799 4.28518 16.374C4.36531 16.2682 4.4581 16.1908 4.56355 16.142C4.66899 16.085 4.77865 16.0605 4.89253 16.0605ZM4.35266 17.3267C4.35266 17.5303 4.36953 17.6972 4.39906 17.8275C4.42858 17.9577 4.47076 18.0595 4.51715 18.1328C4.56776 18.2061 4.62259 18.259 4.69008 18.2834C4.75756 18.3119 4.82504 18.3242 4.89674 18.3242C4.96844 18.3242 5.03593 18.3079 5.09919 18.2794C5.16246 18.2468 5.2215 18.1939 5.27212 18.1206C5.32273 18.0473 5.36069 17.9415 5.39021 17.8153C5.41974 17.689 5.43239 17.5262 5.43239 17.3308C5.43239 17.1272 5.41552 16.9603 5.38599 16.83C5.35647 16.6997 5.31429 16.602 5.26368 16.5287C5.21307 16.4555 5.15402 16.4066 5.09076 16.3781C5.02749 16.3496 4.96001 16.3374 4.88831 16.3374C4.81661 16.3374 4.74912 16.3537 4.68586 16.3822C4.62259 16.4147 4.56355 16.4677 4.51293 16.541C4.46232 16.6183 4.42436 16.7201 4.39484 16.8463C4.36953 16.9684 4.35266 17.1313 4.35266 17.3267Z" fill="#5B7753"/>
<path d="M6.82421 16.6588H6.33496V17.0252H6.87904V17.1352H6.17047V16.1133H6.84952V16.2232H6.33074V16.5448H6.81999V16.6588H6.82421Z" fill="#353B31"/>
<path d="M7.25018 16.1172V16.7197C7.25018 16.9477 7.37671 17.0454 7.5412 17.0454C7.72678 17.0454 7.84909 16.9437 7.84909 16.7197V16.1172H8.01358V16.7116C8.01358 17.0251 7.81114 17.1554 7.53699 17.1554C7.27971 17.1554 7.08569 17.0373 7.08569 16.7197V16.1172H7.25018Z" fill="#353B31"/>
<path d="M8.29621 16.1336C8.37635 16.1214 8.49444 16.1133 8.60832 16.1133C8.78124 16.1133 8.89512 16.1377 8.97104 16.1947C9.0343 16.2395 9.06805 16.3087 9.06805 16.3901C9.06805 16.5245 8.9626 16.614 8.83186 16.6507V16.6548C8.92886 16.6833 8.98791 16.7565 9.01743 16.8624C9.05961 17.0049 9.08914 17.1026 9.11444 17.1433H8.94573C8.92465 17.1148 8.89512 17.0252 8.86138 16.899C8.82342 16.7565 8.75594 16.7036 8.60832 16.6995H8.45648V17.1433H8.29199V16.1336H8.29621ZM8.4607 16.5978H8.62519C8.79811 16.5978 8.90777 16.5204 8.90777 16.4023C8.90777 16.2721 8.78968 16.2151 8.61675 16.211C8.53662 16.211 8.48179 16.2151 8.45648 16.2232V16.5978H8.4607Z" fill="#353B31"/>
<path d="M10.3839 16.6181C10.3839 16.9683 10.1224 17.1555 9.79765 17.1555C9.46446 17.1555 9.23248 16.9479 9.23248 16.6385C9.23248 16.3128 9.48133 16.1011 9.81874 16.1011C10.1604 16.1011 10.3839 16.3169 10.3839 16.6181ZM9.40541 16.6344C9.40541 16.8543 9.55303 17.0456 9.80609 17.0456C10.0634 17.0456 10.211 16.8543 10.211 16.6222C10.211 16.4186 10.0802 16.2069 9.81031 16.2069C9.54037 16.211 9.40541 16.4105 9.40541 16.6344Z" fill="#353B31"/>
<g opacity="0.82">
<path d="M29.5998 18.6008H26.5799V17.9087C26.5799 17.9087 26.9764 18.2547 29.5998 18.2547V18.6008Z" fill="#B7B586"/>
</g>
<path d="M15.1963 7.53516C15.5364 7.53516 15.8121 7.46772 15.8121 7.38452C15.8121 7.30133 15.5364 7.23389 15.1963 7.23389C14.8563 7.23389 14.5806 7.30133 14.5806 7.38452C14.5806 7.46772 14.8563 7.53516 15.1963 7.53516Z" fill="#5C7459"/>
<path d="M16.2676 16.9644H14.6396V18.5359H16.2676V16.9644Z" fill="#91B370"/>
<path d="M16.2719 10.7026H14.9095V16.9642H16.2719V10.7026Z" fill="#B1C897"/>
<path d="M16.1116 9.01709H14.9095V10.4054H16.1116V9.01709Z" fill="#B1C897"/>
<path d="M24.5428 10.7026H23.7034V16.9642H24.5428V10.7026Z" fill="#B1C897"/>
<path d="M24.4837 9.01709H23.2816V10.4054H24.4837V9.01709Z" fill="#B1C897"/>
<path d="M16.837 9.09082H16.314V10.2471H16.837V9.09082Z" fill="#B1C897"/>
<path d="M17.7227 9.09082H17.1997V10.2471H17.7227V9.09082Z" fill="#B1C897"/>
<path d="M18.6127 9.09082H18.0897V10.2471H18.6127V9.09082Z" fill="#B1C897"/>
<path d="M19.5616 9.09082H19.0386V10.2471H19.5616V9.09082Z" fill="#B1C897"/>
<path d="M20.3545 9.09082H19.8315V10.2471H20.3545V9.09082Z" fill="#B1C897"/>
<path d="M21.2403 9.09082H20.7173V10.2471H21.2403V9.09082Z" fill="#B1C897"/>
<path d="M22.1302 9.09082H21.6072V10.2471H22.1302V9.09082Z" fill="#B1C897"/>
<path d="M23.0792 9.09082H22.5562V10.2471H23.0792V9.09082Z" fill="#B1C897"/>
<path d="M23.7076 10.7026H16.2719V18.5357H23.7076V10.7026Z" fill="#B1C897"/>
<path d="M16.7779 13.3247H16.3773V18.54H16.7779V13.3247Z" fill="#B1C897"/>
<path d="M17.1786 13.3247H16.778V18.54H17.1786V13.3247Z" fill="#B1C897"/>
<path d="M22.843 13.3247H22.4423V18.54H22.843V13.3247Z" fill="#B1C897"/>
<path d="M23.2437 13.3247H22.843V18.54H23.2437V13.3247Z" fill="#B1C897"/>
<path d="M20.1268 10.9961H19.5068C18.3427 10.9961 17.3979 11.9081 17.3979 13.0317V18.475H22.2356V13.0317C22.2356 11.9081 21.2909 10.9961 20.1268 10.9961Z" fill="#B1C897"/>
<path d="M19.899 12.7793C19.0892 12.7793 18.4355 13.4144 18.4355 14.192V18.536H21.3668V14.1961C21.3626 13.4144 20.7088 12.7793 19.899 12.7793Z" fill="#B1C897"/>
<path d="M18.4355 18.5361L18.9753 16.8628H20.6666L21.3626 18.5361H18.4355Z" fill="#B1C897"/>
<path d="M19.8105 13.5283C20.2829 13.5283 20.6624 13.8988 20.6624 14.3507V16.8586H18.9543V14.3507C18.9585 13.8988 19.3381 13.5283 19.8105 13.5283Z" fill="#B1C897"/>
<path d="M14.6396 17.0703V18.54H13.311V17.8846C13.3153 17.8805 14.1588 17.7584 14.6396 17.0703Z" fill="#B1C897"/>
<path d="M25.0657 17.1924V18.54H26.3943V18.0066C26.3943 18.0026 25.5508 17.8804 25.0657 17.1924Z" fill="#B1C897"/>
<path d="M14.9095 10.7026C14.9095 10.7026 14.2769 10.7148 14.2769 10.5316C14.2769 10.3199 14.8673 10.3606 14.8673 10.3606V9.49347C14.8673 9.49347 14.6438 9.24512 14.4413 9.24512C14.2347 9.24512 14.1799 9.03749 14.1799 9.03749C14.1799 9.03749 13.9479 9.03749 13.8045 9.03749C13.6653 9.03749 13.6822 8.73215 13.4122 8.73215H16.0441L16.276 8.94792H23.5811L23.8763 8.64258H25.8839C25.8839 8.64258 25.8586 9.05785 25.6941 9.05785C25.5296 9.05785 25.2892 9.01713 25.1669 9.21255C25.0446 9.40797 24.6397 9.17184 24.6397 9.55047C24.6397 9.92909 24.6397 10.3036 24.6397 10.3036C24.6397 10.3036 25.0151 10.3159 25.0151 10.5235C25.0151 10.7311 24.7452 10.7067 24.5427 10.7067C24.3403 10.7067 14.9095 10.7026 14.9095 10.7026Z" fill="#B1C897"/>
<path d="M17.8746 7.0752V8.9439H16.3815C16.3815 8.93983 15.1668 7.90166 17.8746 7.0752Z" fill="#B1C897"/>
<path d="M14.2684 8.71594C14.2684 8.71594 14.9095 8.3536 15.1626 7.90576C15.1626 7.90576 15.4578 8.56123 15.8712 8.71594H14.2684Z" fill="#B1C897"/>
<path d="M15.1752 7.90594C15.3546 7.90594 15.5 7.63253 15.5 7.29526C15.5 6.95798 15.3546 6.68457 15.1752 6.68457C14.9959 6.68457 14.8505 6.95798 14.8505 7.29526C14.8505 7.63253 14.9959 7.90594 15.1752 7.90594Z" fill="#B1C897"/>
<path d="M16.2718 17.0253H14.9095C14.8758 17.0253 14.8463 16.9968 14.8463 16.9642V10.7027C14.8463 10.6701 14.8758 10.6416 14.9095 10.6416H16.2718C16.3056 10.6416 16.3351 10.6701 16.3351 10.7027V16.9642C16.3351 16.9968 16.3056 17.0253 16.2718 17.0253ZM14.9728 16.9032H16.2086V10.7637H14.9728V16.9032Z" fill="#5C7459"/>
<path d="M16.1116 10.4665H14.9095C14.8758 10.4665 14.8463 10.438 14.8463 10.4054V9.01712C14.8463 8.98455 14.8758 8.95605 14.9095 8.95605H16.1116C16.1453 8.95605 16.1748 8.98455 16.1748 9.01712V10.4054C16.1748 10.438 16.1453 10.4665 16.1116 10.4665ZM14.9728 10.3443H16.0483V9.07819H14.9728V10.3443Z" fill="#5C7459"/>
<path d="M24.5469 17.0253H23.7034C23.6697 17.0253 23.6401 16.9968 23.6401 16.9642V10.7027C23.6401 10.6701 23.6697 10.6416 23.7034 10.6416H24.5469C24.5807 10.6416 24.6102 10.6701 24.6102 10.7027V16.9642C24.6102 16.9968 24.5807 17.0253 24.5469 17.0253ZM23.7667 16.9032H24.4795V10.7637H23.7667V16.9032Z" fill="#5C7459"/>
<path d="M24.4837 10.4665H23.2816C23.2479 10.4665 23.2184 10.438 23.2184 10.4054V9.01712C23.2184 8.98455 23.2479 8.95605 23.2816 8.95605H24.4837C24.5174 8.95605 24.547 8.98455 24.547 9.01712V10.4054C24.547 10.438 24.5174 10.4665 24.4837 10.4665ZM23.3449 10.3443H24.4204V9.07819H23.3449V10.3443Z" fill="#5C7459"/>
<path d="M16.837 10.3077H16.314C16.2803 10.3077 16.2507 10.2792 16.2507 10.2466V9.09037C16.2507 9.0578 16.2803 9.0293 16.314 9.0293H16.837C16.8707 9.0293 16.9003 9.0578 16.9003 9.09037V10.2466C16.9003 10.2792 16.8707 10.3077 16.837 10.3077ZM16.3773 10.1855H16.7737V9.15143H16.3773V10.1855Z" fill="#5C7459"/>
<path d="M17.7227 10.3077H17.1997C17.166 10.3077 17.1365 10.2792 17.1365 10.2466V9.09037C17.1365 9.0578 17.166 9.0293 17.1997 9.0293H17.7227C17.7565 9.0293 17.786 9.0578 17.786 9.09037V10.2466C17.786 10.2792 17.7565 10.3077 17.7227 10.3077ZM17.263 10.1855H17.6595V9.15143H17.263V10.1855Z" fill="#5C7459"/>
<path d="M18.6126 10.3077H18.0896C18.0559 10.3077 18.0264 10.2792 18.0264 10.2466V9.09037C18.0264 9.0578 18.0559 9.0293 18.0896 9.0293H18.6126C18.6464 9.0293 18.6759 9.0578 18.6759 9.09037V10.2466C18.6759 10.2792 18.6464 10.3077 18.6126 10.3077ZM18.1529 10.1855H18.5494V9.15143H18.1529V10.1855Z" fill="#5C7459"/>
<path d="M19.5617 10.3077H19.0387C19.0049 10.3077 18.9754 10.2792 18.9754 10.2466V9.09037C18.9754 9.0578 19.0049 9.0293 19.0387 9.0293H19.5617C19.5954 9.0293 19.6249 9.0578 19.6249 9.09037V10.2466C19.6249 10.2792 19.5954 10.3077 19.5617 10.3077ZM19.1019 10.1855H19.4984V9.15143H19.1019V10.1855Z" fill="#5C7459"/>
<path d="M20.3546 10.3077H19.8316C19.7978 10.3077 19.7683 10.2792 19.7683 10.2466V9.09037C19.7683 9.0578 19.7978 9.0293 19.8316 9.0293H20.3546C20.3883 9.0293 20.4178 9.0578 20.4178 9.09037V10.2466C20.4178 10.2792 20.3883 10.3077 20.3546 10.3077ZM19.8948 10.1855H20.2913V9.15143H19.8948V10.1855Z" fill="#5C7459"/>
<path d="M21.2402 10.3077H20.7173C20.6835 10.3077 20.654 10.2792 20.654 10.2466V9.09037C20.654 9.0578 20.6835 9.0293 20.7173 9.0293H21.2402C21.274 9.0293 21.3035 9.0578 21.3035 9.09037V10.2466C21.3035 10.2792 21.274 10.3077 21.2402 10.3077ZM20.7805 10.1855H21.177V9.15143H20.7805V10.1855Z" fill="#5C7459"/>
<path d="M22.1302 10.3077H21.6072C21.5735 10.3077 21.5439 10.2792 21.5439 10.2466V9.09037C21.5439 9.0578 21.5735 9.0293 21.6072 9.0293H22.1302C22.1639 9.0293 22.1935 9.0578 22.1935 9.09037V10.2466C22.1935 10.2792 22.1682 10.3077 22.1302 10.3077ZM21.6705 10.1855H22.0669V9.15143H21.6705V10.1855Z" fill="#5C7459"/>
<path d="M23.0792 10.3077H22.5562C22.5224 10.3077 22.4929 10.2792 22.4929 10.2466V9.09037C22.4929 9.0578 22.5224 9.0293 22.5562 9.0293H23.0792C23.1129 9.0293 23.1424 9.0578 23.1424 9.09037V10.2466C23.1424 10.2792 23.1129 10.3077 23.0792 10.3077ZM22.6195 10.1855H23.0159V9.15143H22.6195V10.1855Z" fill="#5C7459"/>
<path d="M16.778 18.597H16.3773C16.3435 18.597 16.314 18.5685 16.314 18.5359V13.3247C16.314 13.2922 16.3435 13.2637 16.3773 13.2637H16.778C16.8117 13.2637 16.8412 13.2922 16.8412 13.3247V18.54C16.8412 18.5726 16.8117 18.597 16.778 18.597ZM16.4406 18.4749H16.7147V13.3858H16.4406V18.4749Z" fill="#5C7459"/>
<path d="M17.1787 18.597H16.778C16.7442 18.597 16.7147 18.5685 16.7147 18.5359V13.3247C16.7147 13.2922 16.7442 13.2637 16.778 13.2637H17.1787C17.2124 13.2637 17.2419 13.2922 17.2419 13.3247V18.54C17.2419 18.5726 17.2124 18.597 17.1787 18.597ZM16.8413 18.4749H17.1154V13.3858H16.8413V18.4749Z" fill="#5C7459"/>
<path d="M22.843 18.597H22.4423C22.4086 18.597 22.379 18.5685 22.379 18.5359V13.3247C22.379 13.2922 22.4086 13.2637 22.4423 13.2637H22.843C22.8767 13.2637 22.9062 13.2922 22.9062 13.3247V18.54C22.9062 18.5726 22.8767 18.597 22.843 18.597ZM22.5056 18.4749H22.7797V13.3858H22.5056V18.4749Z" fill="#5C7459"/>
<path d="M23.2437 18.597H22.843C22.8092 18.597 22.7797 18.5685 22.7797 18.5359V13.3247C22.7797 13.2922 22.8092 13.2637 22.843 13.2637H23.2437C23.2774 13.2637 23.3069 13.2922 23.3069 13.3247V18.54C23.3069 18.5726 23.2774 18.597 23.2437 18.597ZM22.9063 18.4749H23.1804V13.3858H22.9063V18.4749Z" fill="#5C7459"/>
<path d="M22.2357 18.5361H17.4022C17.3685 18.5361 17.3389 18.5076 17.3389 18.475V13.0318C17.3389 11.8755 18.3132 10.9351 19.511 10.9351H20.131C21.3289 10.9351 22.3031 11.8755 22.3031 13.0318V18.475C22.2989 18.5076 22.2736 18.5361 22.2357 18.5361ZM17.4655 18.4139H22.1766V13.0318C22.1766 11.9447 21.2614 11.0572 20.131 11.0572H19.511C18.3849 11.0572 17.4655 11.9407 17.4655 13.0318V18.4139V18.4139Z" fill="#5C7459"/>
<path d="M21.3626 18.5972H18.4313C18.4102 18.5972 18.3933 18.589 18.3807 18.5728C18.368 18.5565 18.3638 18.5361 18.3722 18.5198L18.9163 16.8465C18.9248 16.8221 18.9501 16.8018 18.9754 16.8018H20.6625C20.6878 16.8018 20.7131 16.818 20.7215 16.8384L21.4216 18.5117C21.4301 18.532 21.4259 18.5524 21.4174 18.5687C21.409 18.585 21.3837 18.5972 21.3626 18.5972ZM18.5199 18.475H21.2698L20.6203 16.9239H19.0218L18.5199 18.475Z" fill="#5C7459"/>
<path d="M26.3943 18.5971H25.0657C25.032 18.5971 25.0024 18.5686 25.0024 18.5361V17.1885C25.0024 17.16 25.0193 17.1396 25.0488 17.1315C25.0741 17.1233 25.1037 17.1315 25.1205 17.1559C25.5803 17.8114 26.3943 17.9416 26.4027 17.9416C26.4322 17.9457 26.4575 17.9701 26.4575 18.0027V18.5361C26.4575 18.5727 26.428 18.5971 26.3943 18.5971ZM25.129 18.475H26.331V18.0516C26.1497 18.0149 25.5592 17.8602 25.129 17.3717V18.475Z" fill="#5C7459"/>
<path d="M24.6819 10.768C24.6608 10.768 24.6397 10.768 24.6144 10.768C24.5934 10.768 24.5723 10.768 24.5554 10.768C24.3529 10.768 15.0023 10.7639 14.9095 10.7639C14.8252 10.7639 14.3992 10.768 14.26 10.6377C14.2305 10.6092 14.2136 10.5725 14.2136 10.5318C14.2136 10.483 14.2347 10.4423 14.2727 10.4056C14.3908 10.2998 14.6734 10.2916 14.8041 10.2957V9.51402C14.7366 9.44074 14.5721 9.30232 14.4414 9.30232C14.2727 9.30232 14.1757 9.18425 14.1335 9.09468H13.8045C13.7075 9.09468 13.6653 9.01733 13.6231 8.94812C13.5768 8.8667 13.5304 8.78934 13.4123 8.78934C13.3785 8.78934 13.349 8.76084 13.349 8.72827C13.349 8.6957 13.3785 8.6672 13.4123 8.6672H16.0441C16.061 8.6672 16.0778 8.67128 16.0863 8.68349L16.3014 8.88298H23.5558L23.8342 8.59799C23.8468 8.58578 23.8637 8.57764 23.8806 8.57764H25.8882C25.9051 8.57764 25.9219 8.58578 25.9346 8.59799C25.9472 8.61021 25.9514 8.62649 25.9514 8.64278C25.9472 8.72013 25.9093 9.11504 25.6984 9.11504C25.6773 9.11504 25.652 9.11504 25.6267 9.11504C25.4791 9.11097 25.3146 9.1069 25.226 9.24125C25.1585 9.3471 25.032 9.35932 24.9308 9.36746C24.7789 9.37967 24.7114 9.39189 24.7114 9.55066V10.2468C24.8717 10.2672 25.0868 10.3364 25.0868 10.5237C25.0868 10.5888 25.0657 10.6418 25.0236 10.6825C24.9476 10.7598 24.8127 10.768 24.6819 10.768ZM14.9095 10.6418C14.9095 10.6418 24.3529 10.6458 24.5554 10.6458C24.5765 10.6458 24.5976 10.6458 24.6187 10.6458C24.7368 10.6458 24.8844 10.6499 24.9392 10.597C24.9519 10.5848 24.9645 10.5685 24.9645 10.5237C24.9645 10.3812 24.6524 10.3649 24.6482 10.3649C24.6144 10.3649 24.5891 10.3364 24.5891 10.3038V9.55066C24.5891 9.27382 24.7916 9.25753 24.9266 9.24532C25.0278 9.23718 25.091 9.22904 25.1248 9.18018C25.2471 8.98069 25.4706 8.98883 25.6351 8.9929C25.6604 8.9929 25.6815 8.9929 25.7026 8.9929C25.7532 8.9929 25.8038 8.84634 25.8207 8.69977H23.9101L23.6317 8.98476C23.6191 8.99698 23.6022 9.00512 23.5853 9.00512H16.2803C16.2634 9.00512 16.2466 9.00105 16.2381 8.98883L16.023 8.78934H13.6738C13.6991 8.82191 13.7202 8.85855 13.737 8.88705C13.7666 8.93998 13.7876 8.97255 13.8087 8.97255H14.1841C14.2136 8.97255 14.2389 8.9929 14.2474 9.01733C14.2474 9.02547 14.2938 9.18018 14.4456 9.18018C14.6776 9.18018 14.9095 9.44074 14.9222 9.45295C14.9306 9.46517 14.9391 9.47738 14.9391 9.49367V10.3608C14.9391 10.3771 14.9306 10.3934 14.918 10.4056C14.9053 10.4178 14.8885 10.4219 14.8716 10.4219C14.7197 10.4138 14.4456 10.426 14.3655 10.4993C14.3486 10.5155 14.3486 10.5278 14.3486 10.5359C14.3486 10.54 14.3486 10.544 14.357 10.5522C14.4245 10.6214 14.7197 10.6458 14.9095 10.6418Z" fill="#5C7459"/>
<path d="M17.8745 9.00092H16.3815C16.3646 9.00092 16.352 8.99685 16.3393 8.98464C16.3224 8.97242 15.9681 8.65894 16.0609 8.22739C16.1664 7.75105 16.7695 7.34392 17.8535 7.01415C17.8745 7.01008 17.8956 7.01008 17.9083 7.0223C17.9252 7.03451 17.9336 7.05079 17.9336 7.07115V8.93985C17.9378 8.97649 17.9083 9.00092 17.8745 9.00092ZM16.4068 8.87878H17.8113V7.15665C16.5839 7.54342 16.2507 7.96683 16.1875 8.25588C16.1158 8.56937 16.3435 8.81772 16.4068 8.87878Z" fill="#5C7459"/>
<path d="M15.8712 8.77704H14.2726C14.2431 8.77704 14.2178 8.75669 14.2136 8.73226C14.2052 8.70376 14.2178 8.67933 14.2431 8.66305C14.2473 8.65898 14.8716 8.30478 15.112 7.8773C15.1246 7.85694 15.1457 7.84473 15.171 7.84473C15.1963 7.84473 15.2174 7.86101 15.2258 7.88137C15.2301 7.88951 15.5126 8.51648 15.8965 8.65898C15.926 8.67119 15.9429 8.69969 15.9344 8.72819C15.926 8.75669 15.9007 8.77704 15.8712 8.77704ZM14.4835 8.6549H15.6392C15.4072 8.47577 15.2343 8.18671 15.1541 8.032C14.9728 8.30478 14.6733 8.5287 14.4835 8.6549Z" fill="#5C7459"/>
<path d="M15.1753 7.96705C14.9559 7.96705 14.7872 7.66985 14.7872 7.29529C14.7872 6.91666 14.9602 6.62354 15.1753 6.62354C15.3904 6.62354 15.5633 6.92074 15.5633 7.29529C15.5633 7.67392 15.3904 7.96705 15.1753 7.96705ZM15.1753 6.74567C15.0487 6.74567 14.9138 6.97366 14.9138 7.29529C14.9138 7.62099 15.0529 7.84491 15.1753 7.84491C15.2976 7.84491 15.4368 7.61692 15.4368 7.29529C15.4368 6.96959 15.2976 6.74567 15.1753 6.74567Z" fill="#5C7459"/>
<g opacity="0.82">
<path d="M12.8471 16.6631L13.6021 16.7975L13.0327 17.2942L13.1381 18.0311L12.4675 17.6606L11.7758 17.9822L11.9361 17.2575L11.4047 16.7201L12.1681 16.6387L12.5308 15.9873L12.8471 16.6631Z" fill="#F5EC71"/>
</g>
<g opacity="0.14">
<path d="M11.2654 13.8013L12.0204 13.9316L11.451 14.4324L11.5522 15.1652L10.8859 14.7988L10.1942 15.1204L10.3502 14.3916L9.823 13.8583L10.5864 13.7769L10.9491 13.1255L11.2654 13.8013Z" fill="#F5EC71"/>
</g>
<g opacity="0.14">
<path d="M10.4768 10.8619L11.2359 10.9962L10.6665 11.4929L10.7678 12.2257L10.1014 11.8593L9.40968 12.1809L9.56573 11.4563L9.0343 10.9189L9.7977 10.8374L10.1646 10.186L10.4768 10.8619Z" fill="#F5EC71"/>
</g>
<g opacity="0.14">
<path d="M11.5776 7.77983L12.3325 7.91418L11.7674 8.41087L11.8686 9.14777L11.2022 8.77729L10.5105 9.09891L10.6666 8.37423L10.1351 7.83683L10.8985 7.75947L11.2655 7.104L11.5776 7.77983Z" fill="#F5EC71"/>
</g>
<g opacity="0.14">
<path d="M13.9774 5.73996L14.7366 5.87024L14.1672 6.371L14.2684 7.10382L13.602 6.73741L12.9103 7.05904L13.0664 6.33029L12.535 5.79695L13.2984 5.71553L13.6653 5.06006L13.9774 5.73996Z" fill="#F5EC71"/>
</g>
<path d="M17.4022 5.11723L18.1614 5.25158L17.592 5.74828L17.6932 6.48517L17.0268 6.11469L16.3351 6.43632L16.4911 5.71164L15.9597 5.17423L16.7231 5.09281L17.0901 4.44141L17.4022 5.11723Z" fill="#F5EC71"/>
<path d="M20.3293 6.50151L21.0885 6.63586L20.5191 7.13255L20.6203 7.86945L19.9539 7.49897L19.2622 7.82059L19.4183 7.09591L18.8868 6.55851L19.6502 6.47708L20.0172 5.82568L20.3293 6.50151Z" fill="#F5EC71"/>
<g opacity="0.39">
<path d="M22.5309 8.8018L23.2859 8.93615L22.7165 9.43285L22.8219 10.1697L22.1513 9.79926L21.4596 10.1209L21.6157 9.39621L21.0884 8.8588L21.8518 8.77738L22.2146 8.12598L22.5309 8.8018Z" fill="#F5EC71"/>
</g>
<g opacity="0.39">
<path d="M22.3538 11.7574L23.1087 11.8917L22.5436 12.3884L22.6448 13.1253L21.9784 12.7548L21.2867 13.0765L21.4427 12.3518L20.9113 11.8144L21.6747 11.7329L22.0417 11.0815L22.3538 11.7574Z" fill="#F5EC71"/>
</g>
<g opacity="0.39">
<path d="M21.4301 14.4117L22.185 14.546L21.6156 15.0427L21.7211 15.7796L21.0547 15.4091L20.3588 15.7308L20.519 15.0061L19.9876 14.4687L20.751 14.3913L21.1137 13.7358L21.4301 14.4117Z" fill="#F5EC71"/>
</g>
<g opacity="0.39">
<path d="M19.2327 16.0811L19.9876 16.2114L19.4183 16.7121L19.5195 17.445L18.8531 17.0786L18.1614 17.4002L18.3174 16.6714L17.786 16.1381L18.5536 16.0567L18.9164 15.4053L19.2327 16.0811Z" fill="#F5EC71"/>
</g>
<g opacity="0.39">
<path d="M15.9555 16.814L16.7105 16.9484L16.1411 17.4451L16.2423 18.1819L15.5759 17.8115L14.8842 18.1331L15.0403 17.4084L14.5131 16.871L15.2765 16.7896L15.6392 16.1382L15.9555 16.814Z" fill="#F5EC71"/>
</g>
<path d="M6.32228 5.5326L6.41507 5.54888L6.34758 5.60995L6.36024 5.69952L6.2801 5.65473L6.19153 5.69545L6.21262 5.60588L6.14935 5.54074L6.24214 5.5326L6.28432 5.45117L6.32228 5.5326Z" fill="#F5EC71"/>
<path d="M6.12825 5.2271L6.22104 5.24338L6.14934 5.30445L6.162 5.39402L6.08186 5.34924L5.99751 5.38588L6.01438 5.30038L5.95111 5.23117L6.0439 5.22303L6.09029 5.1416L6.12825 5.2271Z" fill="#F5EC71"/>
<path d="M6.03127 4.8687L6.12406 4.88498L6.05236 4.94198L6.06501 5.03562L5.98487 4.98677L5.90052 5.02748L5.91739 4.93791L5.85413 4.87277L5.94691 4.86463L5.99331 4.7832L6.03127 4.8687Z" fill="#F5EC71"/>
<path d="M6.16622 4.49012L6.25901 4.5064L6.18731 4.56747L6.19996 4.65704L6.11982 4.61225L6.03547 4.65297L6.05234 4.5634L5.98907 4.49826L6.08186 4.48605L6.12826 4.40869L6.16622 4.49012Z" fill="#F5EC71"/>
<path d="M6.45723 4.24175L6.55002 4.25803L6.48254 4.3191L6.49519 4.40867L6.41084 4.36388L6.32649 4.40052L6.34757 4.31503L6.28009 4.24582L6.3771 4.23767L6.41927 4.15625L6.45723 4.24175Z" fill="#F5EC71"/>
<path d="M6.87905 4.16443L6.96762 4.18072L6.90014 4.24179L6.91279 4.33135L6.83265 4.28657L6.7483 4.32728L6.76517 4.23772L6.7019 4.17258L6.79469 4.16036L6.83687 4.08301L6.87905 4.16443Z" fill="#F5EC71"/>
<path d="M7.23329 4.3355L7.32608 4.35178L7.2586 4.41285L7.27125 4.50242L7.18689 4.45763L7.10254 4.49427L7.12363 4.40471L7.06036 4.33957L7.15315 4.33142L7.19533 4.25L7.23329 4.3355Z" fill="#F5EC71"/>
<path d="M7.50325 4.61626L7.59604 4.63254L7.52856 4.69361L7.54121 4.78318L7.45686 4.7384L7.37251 4.77504L7.39359 4.68954L7.32611 4.62033L7.4189 4.61219L7.46529 4.53076L7.50325 4.61626Z" fill="#F5EC71"/>
<path d="M7.48214 4.97449L7.57492 4.99078L7.50744 5.05185L7.51588 5.14141L7.43574 5.09663L7.35139 5.13734L7.37248 5.04777L7.30499 4.98263L7.39778 4.97449L7.44418 4.89307L7.48214 4.97449Z" fill="#F5EC71"/>
<path d="M7.3683 5.30017L7.46109 5.31646L7.39361 5.37753L7.40626 5.4671L7.32191 5.42231L7.23756 5.46302L7.25865 5.37346L7.19116 5.30832L7.28817 5.2961L7.33035 5.21875L7.3683 5.30017Z" fill="#F5EC71"/>
<path d="M7.10256 5.50379L7.19113 5.52007L7.12365 5.58114L7.1363 5.67071L7.05616 5.62593L6.97181 5.66664L6.98868 5.57707L6.92542 5.51193L7.0182 5.50379L7.06038 5.42236L7.10256 5.50379Z" fill="#F5EC71"/>
<path d="M6.70186 5.59363L6.79465 5.60992L6.72295 5.67099L6.7356 5.76055L6.65547 5.71577L6.57111 5.75648L6.58798 5.66691L6.52472 5.60177L6.61751 5.59363L6.65969 5.51221L6.70186 5.59363Z" fill="#F5EC71"/>
<path d="M19.1146 3.94434H19.5279V8.72398H18.9754V4.99472L18.4271 5.61355L18.0349 5.19014L19.1146 3.94434Z" fill="#5B7753"/>
<path d="M22.0628 3.87939C22.2863 3.87939 22.4972 3.92418 22.687 4.01782C22.8768 4.11146 23.0455 4.25395 23.1847 4.45344C23.3239 4.65293 23.4335 4.90535 23.5179 5.21476C23.598 5.52418 23.6402 5.89873 23.6402 6.33436C23.6402 6.76998 23.598 7.14046 23.5137 7.45395C23.4293 7.76336 23.3154 8.01985 23.1678 8.21527C23.0244 8.41476 22.8557 8.56133 22.6617 8.6509C22.4719 8.74453 22.2736 8.78932 22.0628 8.78932C21.8392 8.78932 21.6283 8.74453 21.4385 8.6509C21.2488 8.55726 21.08 8.41476 20.9409 8.21527C20.8017 8.01578 20.6878 7.76336 20.6077 7.45395C20.5275 7.14453 20.4854 6.76998 20.4854 6.33436C20.4854 5.91502 20.5275 5.55268 20.6119 5.24326C20.6962 4.93792 20.8101 4.68143 20.9577 4.47787C21.1011 4.27431 21.2698 4.12367 21.4639 4.02596C21.6537 3.92825 21.8561 3.87939 22.0628 3.87939ZM21.08 6.33436C21.08 6.73334 21.1096 7.05497 21.1644 7.30331C21.2192 7.55166 21.2909 7.75115 21.3837 7.89364C21.4723 8.03614 21.5777 8.13385 21.6958 8.18677C21.8139 8.2397 21.9405 8.26413 22.067 8.26413C22.1977 8.26413 22.32 8.23563 22.4381 8.17456C22.5562 8.11349 22.6575 8.01171 22.7503 7.86514C22.8388 7.71858 22.9105 7.52316 22.9654 7.27481C23.0202 7.02647 23.0455 6.71298 23.0455 6.33436C23.0455 5.93537 23.016 5.61375 22.9611 5.3654C22.9063 5.11705 22.8304 4.91756 22.7418 4.77914C22.649 4.63665 22.5436 4.53894 22.4297 4.48601C22.3116 4.43308 22.1893 4.40459 22.0585 4.40459C21.9278 4.40459 21.8055 4.43308 21.6874 4.49415C21.5693 4.55522 21.4681 4.657 21.3753 4.80357C21.2867 4.95013 21.215 5.14962 21.1602 5.3939C21.1096 5.63817 21.08 5.95166 21.08 6.33436Z" fill="#5B7753"/>
<path d="M25.8249 3.87939C26.0484 3.87939 26.2593 3.92418 26.4491 4.01782C26.6389 4.11146 26.8076 4.25395 26.9468 4.45344C27.086 4.65293 27.1957 4.90535 27.28 5.21476C27.3601 5.52418 27.4023 5.89873 27.4023 6.33436C27.4023 6.76998 27.3602 7.14046 27.2758 7.45395C27.1914 7.76336 27.0776 8.01985 26.9299 8.21527C26.7865 8.41476 26.6178 8.56133 26.4238 8.6509C26.234 8.74453 26.0358 8.78932 25.8249 8.78932C25.6014 8.78932 25.3905 8.74453 25.2007 8.6509C25.0109 8.55726 24.8422 8.41476 24.703 8.21527C24.5638 8.01578 24.4499 7.76336 24.3698 7.45395C24.2897 7.14453 24.2475 6.76998 24.2475 6.33436C24.2475 5.91502 24.2897 5.55268 24.374 5.24326C24.4584 4.93792 24.5723 4.68143 24.7199 4.47787C24.8633 4.27431 25.032 4.12367 25.226 4.02596C25.42 3.92825 25.6182 3.87939 25.8249 3.87939ZM24.8464 6.33436C24.8464 6.73334 24.8759 7.05497 24.9308 7.30331C24.9856 7.55166 25.0573 7.75115 25.1501 7.89364C25.2387 8.03614 25.3441 8.13385 25.4622 8.18677C25.5803 8.2397 25.7068 8.26413 25.8333 8.26413C25.9641 8.26413 26.0864 8.23563 26.2045 8.17456C26.3226 8.11349 26.4238 8.01171 26.5166 7.86514C26.6052 7.71858 26.6769 7.52316 26.7317 7.27481C26.7865 7.02647 26.8119 6.71298 26.8119 6.33436C26.8119 5.93537 26.7823 5.61375 26.7275 5.3654C26.6727 5.11705 26.5967 4.91756 26.5082 4.77914C26.4154 4.63665 26.3099 4.53894 26.1961 4.48601C26.078 4.43308 25.9557 4.40459 25.8249 4.40459C25.6942 4.40459 25.5719 4.43308 25.4538 4.49415C25.3357 4.55522 25.2344 4.657 25.1416 4.80357C25.0531 4.95013 24.9814 5.14962 24.9265 5.3939C24.8717 5.63817 24.8464 5.95166 24.8464 6.33436Z" fill="#5B7753"/>
<path d="M21.3626 18.597H18.4313C18.3976 18.597 18.368 18.5685 18.368 18.5359V14.196C18.368 13.3817 19.0555 12.7222 19.8948 12.7222C20.7342 12.7222 21.4259 13.3817 21.4259 14.196V18.54C21.4259 18.5726 21.4006 18.597 21.3626 18.597ZM18.4988 18.4748H21.2993V14.196C21.2993 13.4509 20.6709 12.8443 19.8991 12.8443C19.1272 12.8443 18.4988 13.4509 18.4988 14.196V18.4748Z" fill="#5C7459"/>
<path d="M20.6667 16.9236H18.9585C18.9248 16.9236 18.8953 16.8951 18.8953 16.8625V14.3547C18.8953 13.8661 19.3086 13.4712 19.8105 13.4712C20.3124 13.4712 20.7257 13.8702 20.7257 14.3547V16.8625C20.73 16.8951 20.7004 16.9236 20.6667 16.9236ZM19.0218 16.8015H20.6034V14.3547C20.6034 13.9353 20.2491 13.5933 19.8147 13.5933C19.3803 13.5933 19.026 13.9353 19.026 14.3547V16.8015H19.0218Z" fill="#5C7459"/>
<path d="M23.7034 18.5968H16.2718C16.2381 18.5968 16.2086 18.5683 16.2086 18.5357V10.7027C16.2086 10.6701 16.2381 10.6416 16.2718 10.6416H23.7034C23.7371 10.6416 23.7667 10.6701 23.7667 10.7027V18.5357C23.7667 18.5724 23.7413 18.5968 23.7034 18.5968ZM16.3351 18.4747H23.6443V10.7637H16.3351V18.4747Z" fill="#5C7459"/>
<path d="M14.6396 18.5972H13.311C13.2773 18.5972 13.2477 18.5687 13.2477 18.5361V17.8806C13.2477 17.8521 13.2688 17.8236 13.3026 17.8196C13.311 17.8196 14.125 17.6893 14.5847 17.0338C14.6016 17.0135 14.6311 17.0012 14.6564 17.0094C14.6818 17.0175 14.7028 17.042 14.7028 17.0664V18.5361C14.7028 18.5727 14.6775 18.5972 14.6396 18.5972ZM13.3785 18.475H14.5805V17.2496C14.1545 17.7422 13.5599 17.8928 13.3785 17.9295V18.475Z" fill="#5C7459"/>
<path d="M25.0657 16.9644H23.4377V18.5359H25.0657V16.9644Z" fill="#91B370"/>
<path d="M25.0657 18.597H23.4377C23.404 18.597 23.3745 18.5685 23.3745 18.5359V16.9644C23.3745 16.9318 23.404 16.9033 23.4377 16.9033H25.0657C25.0995 16.9033 25.129 16.9318 25.129 16.9644V18.5359C25.129 18.5725 25.0995 18.597 25.0657 18.597ZM23.501 18.4748H25.0025V17.0255H23.501V18.4748Z" fill="#5C7459"/>
<path d="M16.2719 18.597H14.6438C14.6101 18.597 14.5806 18.5685 14.5806 18.5359V16.9644C14.5806 16.9318 14.6101 16.9033 14.6438 16.9033H16.2719C16.3056 16.9033 16.3351 16.9318 16.3351 16.9644V18.5359C16.3351 18.5725 16.3056 18.597 16.2719 18.597ZM14.7029 18.4748H16.2044V17.0255H14.7029V18.4748Z" fill="#5C7459"/>
<path d="M1.32014 5.18652H1.10925V5.93563H1.32014V5.18652Z" fill="#5B7753"/>
<path d="M4.2978 4.64884C4.26828 4.53484 4.2261 4.4412 4.17127 4.36792C4.12066 4.30278 4.06583 4.24986 3.99835 4.21729V4.48192C3.99835 4.48192 3.99835 4.48192 3.99835 4.48599C4.03209 4.53891 4.06161 4.60812 4.0827 4.70176C4.10379 4.7954 4.11644 4.91347 4.11644 5.06003C4.11644 5.19846 4.10801 5.31652 4.08692 5.40609C4.06583 5.49566 4.04052 5.56894 4.00257 5.62187C3.96882 5.67479 3.92665 5.7155 3.88447 5.73586C3.83808 5.75622 3.79168 5.76843 3.74107 5.76843C3.69046 5.76843 3.64406 5.76029 3.59767 5.73993C3.55127 5.71958 3.51331 5.68701 3.47535 5.63408C3.44161 5.58115 3.41209 5.50787 3.391 5.4183C3.37835 5.36945 3.36991 5.30838 3.36569 5.24324H3.13794C3.14637 5.32874 3.15903 5.40609 3.1759 5.47123C3.20542 5.58522 3.2476 5.67886 3.30243 5.75215C3.35726 5.82543 3.42052 5.87835 3.49223 5.91092C3.56393 5.94349 3.64406 5.96385 3.73263 5.96385C3.81277 5.96385 3.88869 5.94756 3.96039 5.91092C4.03209 5.87835 4.09957 5.82543 4.1544 5.75215C4.20923 5.67886 4.25563 5.58522 4.28515 5.47123C4.31889 5.35723 4.33576 5.21881 4.33576 5.06003C4.3442 4.90125 4.33154 4.76283 4.2978 4.64884Z" fill="#5B7753"/>
<path d="M1.91905 5.18643C1.91905 5.14572 1.91483 5.10501 1.91483 5.06022C1.91483 4.9218 1.92326 4.80374 1.94435 4.71417C1.96544 4.6246 1.99075 4.55132 2.02871 4.49839C2.06245 4.44547 2.10462 4.40475 2.1468 4.3844C2.17632 4.37218 2.20585 4.35997 2.23537 4.3559V4.16455C2.17632 4.17269 2.11728 4.18898 2.06245 4.21341C1.99075 4.25005 1.92326 4.30297 1.86843 4.38033C1.8136 4.45361 1.77143 4.54725 1.73769 4.66124C1.70394 4.77524 1.68707 4.90552 1.68707 5.06022C1.68707 5.10501 1.68707 5.14572 1.69129 5.18643H1.91905V5.18643Z" fill="#5B7753"/>
<path d="M2.66557 5.1862C2.66135 5.2717 2.65292 5.34498 2.64026 5.40605C2.61918 5.49561 2.59387 5.5689 2.55591 5.62182C2.52217 5.67475 2.47999 5.71546 2.43781 5.73582C2.40829 5.74803 2.37877 5.76025 2.34924 5.76432V5.95567C2.40829 5.95159 2.46734 5.93531 2.52217 5.90681C2.59387 5.87424 2.66135 5.82131 2.71618 5.74803C2.77101 5.67475 2.81741 5.58111 2.84693 5.46712C2.87224 5.38569 2.88489 5.29205 2.89332 5.18213H2.66557V5.1862Z" fill="#5B7753"/>
</g>
<rect y="3" width="9" height="16" fill="url(#paint0_linear_181_7186)" fill-opacity="0.5"/>
<g filter="url(#filter0_d_181_7186)">
<rect x="10.7305" y="2" width="9.69231" height="18" fill="#F1F6E3"/>
</g>
<rect x="10.7305" y="2" width="1.38462" height="18" fill="#C2E3A1"/>
<rect x="19.0391" y="2" width="1.38462" height="18" fill="#C2E3A1"/>
<path d="M14.8116 11.1886H16.9031L17.0419 10.9109H14.7838C14.7746 10.8369 14.7746 10.7629 14.7746 10.6796C14.7746 10.5685 14.7746 10.4667 14.7838 10.3649H17.2826L17.4214 10.0873H14.8301C15.0059 9.26363 15.589 8.74538 16.5329 8.74538C17.0419 8.74538 17.4862 8.90271 17.8378 9.05078L18.4394 7.84769C17.9396 7.59781 17.3196 7.42198 16.5514 7.42198C14.5525 7.42198 13.553 8.56029 13.3586 10.0873H12.6923L12.5535 10.3649H13.3309C13.3216 10.4667 13.3216 10.5685 13.3216 10.6703C13.3216 10.7536 13.3216 10.8277 13.3309 10.9109H12.646L12.5072 11.1886H13.3494C13.5252 12.7619 14.5247 13.9464 16.5144 13.9464C17.153 13.9464 17.6342 13.8261 18.0507 13.604V12.2066C17.6435 12.4287 17.1252 12.623 16.5329 12.623C15.5612 12.623 14.9689 12.0678 14.8116 11.1886Z" fill="#89B36F"/>
<defs>
<filter id="filter0_d_181_7186" x="9.34585" y="0.615385" width="12.4616" height="20.7692" filterUnits="userSpaceOnUse" color-interpolation-filters="sRGB">
<feFlood flood-opacity="0" result="BackgroundImageFix"/>
<feColorMatrix in="SourceAlpha" type="matrix" values="0 0 0 0 0 0 0 0 0 0 0 0 0 0 0 0 0 0 127 0" result="hardAlpha"/>
<feOffset/>
<feGaussianBlur stdDeviation="0.692308"/>
<feComposite in2="hardAlpha" operator="out"/>
<feColorMatrix type="matrix" values="0 0 0 0 0 0 0 0 0 0 0 0 0 0 0 0 0 0 0.25 0"/>
<feBlend mode="normal" in2="BackgroundImageFix" result="effect1_dropShadow_181_7186"/>
<feBlend mode="normal" in="SourceGraphic" in2="effect1_dropShadow_181_7186" result="shape"/>
</filter>
<linearGradient id="paint0_linear_181_7186" x1="-7.01985e-08" y1="9.83333" x2="8.65385" y2="9.83333" gradientUnits="userSpaceOnUse">
<stop stop-color="#CDDECE"/>
<stop offset="1" stop-color="#C1E0A1" stop-opacity="0"/>
</linearGradient>
<clipPath id="clip0_181_7186">
<rect width="31" height="16" fill="white" transform="translate(0 3)"/>
</clipPath>
</defs>
</svg>
