<svg viewBox="0 0 66 66" fill="none" xmlns="http://www.w3.org/2000/svg">
<g clip-path="url(#clip0_137_8252)">
<path d="M7.54319 32.1066C7.54319 32.1066 10.0909 35.8494 15.4306 39.0175C15.4306 39.0175 11.5633 6.33361 36.761 0.657227C30.3053 24.3508 44.9729 31.0328 50.3195 18.515C59.2484 30.4361 52.4689 40.8367 52.4689 40.8367C56.1301 41.3642 59.2056 37.3643 59.2056 37.3643C59.233 37.857 59.2484 38.3532 59.2484 38.8528C59.2485 53.3724 47.478 65.1429 32.9582 65.1429C18.4385 65.1429 6.66797 53.3724 6.66797 38.8527C6.66797 36.5203 6.97327 34.2596 7.54319 32.1066Z" fill="#FF6536"/>
<path d="M59.2055 37.3643C59.2055 37.3643 56.13 41.3642 52.4688 40.8367C52.4688 40.8367 59.2483 30.4361 50.3194 18.515C44.9728 31.0328 30.3052 24.3508 36.7609 0.657227C35.4114 0.961267 34.1458 1.34327 32.958 1.79303V65.1429C47.4777 65.1429 59.2483 53.3724 59.2483 38.8527C59.2483 38.353 59.2329 37.857 59.2055 37.3643Z" fill="#FF421D"/>
<path d="M21.4277 53.6136C21.4277 59.9813 26.5899 65.1435 32.9576 65.1435C39.3253 65.1435 44.4874 59.9813 44.4874 53.6136C44.4874 50.2053 43.0087 47.1425 40.6576 45.0317C36.1997 51.088 29.8472 41.9012 34.7979 35.1924C34.7979 35.1924 21.4277 36.8679 21.4277 53.6136Z" fill="#FBBF00"/>
<path d="M44.4869 53.6136C44.4869 50.2053 43.0081 47.1425 40.657 45.0317C36.1992 51.088 29.8466 41.9012 34.7974 35.1924C34.7974 35.1924 34.0709 35.2837 32.957 35.6352V65.1435C39.3247 65.1435 44.4869 59.9813 44.4869 53.6136Z" fill="#FFA900"/>
</g>
<defs>
<clipPath id="clip0_137_8252">
<rect width="64.4857" height="64.4857" fill="white" transform="translate(0.714844 0.657227)"/>
</clipPath>
</defs>
</svg>
