<svg viewBox="0 0 83 48" fill="none" xmlns="http://www.w3.org/2000/svg">
<g clip-path="url(#clip0_137_8474)">
<path d="M82.6466 0.00488281H0.000732422V47.9226H82.6466V0.00488281Z" fill="white"/>
<path d="M82.6517 19.1778H46.2618V0.00976562H36.3293V19.1778H0.0349121V28.7595H36.3293V47.9229H46.2618V28.7595H82.6517V19.1778Z" fill="#CE1124"/>
<path d="M0.000732422 5.58594V16.0179H18.0295L0.000732422 5.58594Z" fill="#00247D"/>
<path d="M9.94701 0L9.6853 0.0137143L33.0563 13.6137V0H9.94701Z" fill="#00247D"/>
<path d="M27.7418 15.9481L0.000732422 0.00292969V3.76064L21.1327 15.9481H27.7418Z" fill="#CE1124"/>
<path d="M54.9275 31.9717L82.6686 47.9168V44.1591L61.5367 31.9717H54.9275Z" fill="#CE1124"/>
<path d="M-0.000244141 42.4195V31.9875H18.0286L-0.000244141 42.4195Z" fill="#00247D"/>
<path d="M9.94701 48.0014L9.6853 47.9877L33.0563 34.3877V48.0014H9.94701Z" fill="#00247D"/>
<path d="M27.5996 31.9688L0.0205078 47.9093L6.46768 47.9185L33.083 32.6179V31.9688H27.5996Z" fill="#CE1124"/>
<path d="M82.6653 5.58105V16.0131H64.6406L82.6653 5.58105Z" fill="#00247D"/>
<path d="M72.7216 0L72.9874 0.0137143L49.6123 13.6137V0H72.7216Z" fill="#00247D"/>
<path d="M82.6401 0.0234375H76.4339L49.6357 15.4292V15.9686H55.3061L82.6401 0.0234375Z" fill="#CE1124"/>
<path d="M82.6658 42.4144V31.9824H64.6411L82.6658 42.4144Z" fill="#00247D"/>
<path d="M72.7213 47.9965L72.9872 47.9828L49.6121 34.3828V47.9965H72.7213Z" fill="#00247D"/>
</g>
<defs>
<clipPath id="clip0_137_8474">
<rect width="82.6667" height="48" rx="8" fill="white"/>
</clipPath>
</defs>
</svg>
