<svg viewBox="0 0 204 50" fill="none" xmlns="http://www.w3.org/2000/svg">
<g clip-path="url(#clip0_137_7833)">
<path d="M2.74642 18.0199C2.04547 17.7322 1.23496 18.0604 1.01379 18.7792C0.229729 21.3322 0.198821 24.0647 0.940295 26.6497C1.80747 29.6729 3.68022 32.3174 6.25495 34.1542C8.83002 35.9909 11.9556 36.9127 15.1255 36.7698C17.8362 36.6473 20.4433 35.7528 22.6399 34.2076C23.2584 33.7721 23.3161 32.9069 22.8184 32.3395L21.6559 31.014C21.1583 30.4467 20.2949 30.396 19.6568 30.8024C18.2453 31.7014 16.6126 32.2215 14.9198 32.2977C12.7675 32.3946 10.6454 31.7688 8.89699 30.5218C7.14891 29.2746 5.87717 27.479 5.28818 25.4263C4.82523 23.8123 4.806 22.1136 5.21984 20.503C5.40701 19.7748 5.08487 18.9798 4.38392 18.6921L2.74642 18.0199Z" fill="#4099F7"/>
<path d="M5.00377 15.9715C4.93989 15.7688 4.70636 15.6729 4.51644 15.7715L0.184006 18.0205C-0.0739133 18.1544 -0.0570847 18.5255 0.211824 18.636L6.00007 21.0121C6.26933 21.1225 6.54613 20.872 6.45959 20.5966L5.00377 15.9715Z" fill="#4099F7"/>
<path d="M26.2251 27.6533C26.926 27.9407 27.7369 27.6122 27.9574 26.8934C28.7407 24.34 28.771 21.6076 28.0284 19.0227C27.1602 15.9998 25.2868 13.3561 22.7114 11.52C20.136 9.68396 17.01 8.76328 13.8401 8.90722C11.1294 9.03032 8.5224 9.92576 6.32649 11.4719C5.7083 11.9073 5.65095 12.7728 6.14859 13.3399L7.31146 14.6649C7.80943 15.2321 8.67283 15.2826 9.31059 14.8759C10.7218 13.9764 12.3548 13.4561 14.0472 13.3792C16.1995 13.2815 18.322 13.9066 20.0704 15.1533C21.8192 16.3999 23.0912 18.195 23.6809 20.2475C24.1445 21.8614 24.1645 23.5601 23.751 25.171C23.5641 25.8992 23.8866 26.6941 24.5876 26.9815L26.2251 27.6533Z" fill="#4099F7"/>
<path d="M23.9676 29.7015C24.0315 29.9042 24.265 30.0002 24.4549 29.9015L28.7867 27.6512C29.0446 27.5172 29.0277 27.1461 28.7585 27.0359L22.9696 24.6614C22.7007 24.5512 22.4235 24.8015 22.5104 25.077L23.9676 29.7015Z" fill="#4099F7"/>
<path d="M4.86309 23.6845C4.86309 22.4635 3.86363 21.4736 2.63076 21.4736C1.39788 21.4736 0.398438 22.4635 0.398438 23.6845V43.0723C0.398438 44.2934 1.39788 45.2832 2.63076 45.2832C3.86363 45.2832 4.86309 44.2934 4.86309 43.0723V23.6845Z" fill="#4099F7"/>
<path d="M50.1271 31.8963C51.3335 31.8963 52.5225 31.6854 53.6936 31.2636C54.8647 30.8418 55.8937 30.2442 56.7811 29.4711C57.6682 28.6626 58.3781 27.6963 58.9104 26.5714C59.4781 25.4466 59.7621 24.1639 59.7621 22.7228C59.7621 21.3169 59.4781 20.0516 58.9104 18.9269C58.3781 17.767 57.6682 16.7829 56.7811 15.9745C55.8937 15.1661 54.8647 14.551 53.6936 14.1293C52.5225 13.7075 51.3335 13.4966 50.1271 13.4966C48.8849 13.4966 47.7137 13.7075 46.6137 14.1293C45.5134 14.551 44.5377 15.1661 43.6859 15.9745C42.8342 16.7829 42.1597 17.767 41.6631 18.9269C41.1662 20.0516 40.9179 21.3169 40.9179 22.7228C40.9179 24.1639 41.1662 25.4466 41.6631 26.5714C42.1597 27.6963 42.8342 28.6626 43.6859 29.4711C44.5377 30.2442 45.5134 30.8418 46.6137 31.2636C47.7137 31.6854 48.8849 31.8963 50.1271 31.8963ZM50.1271 8.7517C52.0788 8.7517 53.9066 9.12075 55.61 9.85884C57.3488 10.5618 58.8572 11.5459 60.1347 12.8112C61.4123 14.0765 62.4237 15.5703 63.169 17.2925C63.9142 18.9796 64.2869 20.7897 64.2869 22.7228V34.0578C64.2869 34.9014 64.0382 35.5517 63.5416 36.0085C63.08 36.4303 62.5656 36.6412 61.9979 36.6412C61.4655 36.6412 60.9507 36.4303 60.4541 36.0085C59.9926 35.5517 59.7621 34.9014 59.7621 34.0578V32.9507C58.5199 34.0755 57.0648 34.9718 55.3971 35.6395C53.7644 36.3071 52.0077 36.6412 50.1271 36.6412C48.2107 36.6412 46.4008 36.2898 44.6974 35.5867C42.9939 34.8486 41.5034 33.8469 40.2258 32.5816C38.9483 31.3163 37.9369 29.8401 37.1916 28.1531C36.4817 26.466 36.127 24.6558 36.127 22.7228C36.127 20.7897 36.4817 18.9796 37.1916 17.2925C37.9369 15.5703 38.9483 14.0765 40.2258 12.8112C41.5034 11.5459 42.9939 10.5618 44.6974 9.85884C46.4008 9.12075 48.2107 8.7517 50.1271 8.7517ZM80.8016 47.7653C80.4822 48.6088 80.021 49.1711 79.4175 49.4524C78.8498 49.7337 78.2997 49.7864 77.7673 49.6105C77.2704 49.4347 76.8803 49.0833 76.5962 48.5561C76.3479 48.0289 76.3654 47.3612 76.6495 46.5527L80.429 36.483L71.2198 12.5476C70.9357 11.7744 70.9182 11.1242 71.1665 10.5969C71.4506 10.0346 71.8407 9.66554 72.3376 9.4898C72.87 9.31405 73.4202 9.34922 73.9879 9.59524C74.5555 9.84126 74.9993 10.3509 75.3187 11.1242L82.7712 30.3673L90.064 11.0714C90.348 10.2982 90.7739 9.80612 91.3416 9.59524C91.945 9.34922 92.4948 9.31405 92.9918 9.4898C93.4887 9.66554 93.8789 10.017 94.1629 10.5442C94.4469 11.0714 94.4469 11.7217 94.1629 12.4949L80.8016 47.7653ZM119.926 17.6088L114.123 34.7959C113.91 35.4286 113.591 35.8854 113.165 36.1667C112.775 36.448 112.349 36.5884 111.888 36.5884C111.426 36.5884 110.983 36.448 110.557 36.1667C110.167 35.8854 109.865 35.4286 109.652 34.7959L101.986 12.1259C101.703 11.3174 101.703 10.6497 101.986 10.1224C102.306 9.5601 102.714 9.20861 103.211 9.06803C103.708 8.89228 104.24 8.945 104.808 9.22619C105.376 9.47221 105.802 9.99942 106.085 10.8078L111.888 27.8367L117.69 10.8078C117.903 10.1752 118.205 9.71827 118.595 9.43707C119.021 9.12075 119.464 8.96259 119.926 8.96259C120.351 8.96259 120.777 9.12075 121.203 9.43707C121.629 9.71827 121.948 10.1752 122.161 10.8078L127.964 27.8367L133.766 10.8078C134.05 9.99942 134.476 9.47221 135.044 9.22619C135.612 8.945 136.144 8.89228 136.641 9.06803C137.138 9.20861 137.528 9.5601 137.812 10.1224C138.096 10.6497 138.114 11.3174 137.865 12.1259L130.199 34.7959C129.987 35.4286 129.667 35.8854 129.241 36.1667C128.851 36.448 128.425 36.5884 127.964 36.5884C127.502 36.5884 127.059 36.448 126.633 36.1667C126.243 35.8854 125.941 35.4286 125.728 34.7959L119.926 17.6088ZM159.503 31.8963C160.709 31.8963 161.898 31.6854 163.069 31.2636C164.24 30.8418 165.27 30.2442 166.157 29.4711C167.044 28.6626 167.754 27.6963 168.286 26.5714C168.854 25.4466 169.138 24.1639 169.138 22.7228C169.138 21.3169 168.854 20.0516 168.286 18.9269C167.754 17.767 167.044 16.7829 166.157 15.9745C165.27 15.1661 164.24 14.551 163.069 14.1293C161.898 13.7075 160.709 13.4966 159.503 13.4966C158.26 13.4966 157.089 13.7075 155.989 14.1293C154.889 14.551 153.913 15.1661 153.062 15.9745C152.21 16.7829 151.536 17.767 151.039 18.9269C150.542 20.0516 150.293 21.3169 150.293 22.7228C150.293 24.1639 150.542 25.4466 151.039 26.5714C151.536 27.6963 152.21 28.6626 153.062 29.4711C153.913 30.2442 154.889 30.8418 155.989 31.2636C157.089 31.6854 158.26 31.8963 159.503 31.8963ZM159.503 8.7517C161.454 8.7517 163.282 9.12075 164.986 9.85884C166.724 10.5618 168.233 11.5459 169.51 12.8112C170.788 14.0765 171.799 15.5703 172.545 17.2925C173.29 18.9796 173.662 20.7897 173.662 22.7228V34.0578C173.662 34.9014 173.414 35.5517 172.917 36.0085C172.456 36.4303 171.941 36.6412 171.373 36.6412C170.841 36.6412 170.327 36.4303 169.83 36.0085C169.369 35.5517 169.138 34.9014 169.138 34.0578V32.9507C167.896 34.0755 166.441 34.9718 164.773 35.6395C163.14 36.3071 161.384 36.6412 159.503 36.6412C157.586 36.6412 155.776 36.2898 154.073 35.5867C152.37 34.8486 150.879 33.8469 149.601 32.5816C148.324 31.3163 147.312 29.8401 146.567 28.1531C145.857 26.466 145.503 24.6558 145.503 22.7228C145.503 20.7897 145.857 18.9796 146.567 17.2925C147.312 15.5703 148.324 14.0765 149.601 12.8112C150.879 11.5459 152.37 10.5618 154.073 9.85884C155.776 9.12075 157.586 8.7517 159.503 8.7517ZM186.079 36.5884C185.936 36.5884 185.582 36.5007 185.014 36.3248C184.482 36.149 183.914 35.7272 183.311 35.0595C182.707 34.3565 182.157 33.3197 181.66 31.949C181.199 30.5782 180.968 28.698 180.968 26.3078V2.58333C180.968 1.7398 181.199 1.10714 181.66 0.685374C182.157 0.228469 182.672 0 183.204 0C183.772 0 184.286 0.228469 184.748 0.685374C185.244 1.10714 185.493 1.7398 185.493 2.58333V26.3078C185.493 26.5187 185.475 26.9405 185.44 27.5731C185.44 28.2058 185.493 28.8561 185.6 29.5238C185.741 30.1565 185.99 30.7364 186.345 31.2636C186.7 31.7908 187.232 32.0544 187.942 32.0544C188.829 32.0544 189.486 32.3003 189.911 32.7925C190.373 33.2493 190.603 33.7592 190.603 34.3214C190.603 34.8837 190.373 35.4109 189.911 35.9031C189.486 36.3599 188.829 36.5884 187.942 36.5884H186.079ZM199.179 36.5884C199.037 36.5884 198.682 36.5007 198.114 36.3248C197.582 36.149 197.014 35.7272 196.411 35.0595C195.807 34.3565 195.257 33.3197 194.76 31.949C194.299 30.5782 194.068 28.698 194.068 26.3078V2.58333C194.068 1.7398 194.299 1.10714 194.76 0.685374C195.257 0.228469 195.772 0 196.304 0C196.872 0 197.387 0.228469 197.848 0.685374C198.345 1.10714 198.593 1.7398 198.593 2.58333V26.3078C198.593 26.5187 198.576 26.9405 198.54 27.5731C198.54 28.2058 198.593 28.8561 198.7 29.5238C198.842 30.1565 199.09 30.7364 199.445 31.2636C199.8 31.7908 200.332 32.0544 201.042 32.0544C201.929 32.0544 202.585 32.3003 203.011 32.7925C203.473 33.2493 203.703 33.7592 203.703 34.3214C203.703 34.8837 203.473 35.4109 203.011 35.9031C202.585 36.3599 201.929 36.5884 201.042 36.5884H199.179Z" fill="#4099F7"/>
</g>
</svg>
