<svg viewBox="0 0 30 18" fill="none" xmlns="http://www.w3.org/2000/svg">
<path d="M18.7914 2.48071H11.05V16.1428H18.7914V2.48071Z" fill="#FF5F00"/>
<path d="M11.5478 9.31175C11.5466 7.99599 11.8502 6.6972 12.4357 5.51371C13.0211 4.33021 13.873 3.29304 14.927 2.48069C13.6218 1.4732 12.0544 0.846655 10.4038 0.67267C8.75317 0.498686 7.08602 0.784276 5.59288 1.49681C4.09974 2.20935 2.84085 3.32008 1.96011 4.70203C1.07936 6.08399 0.612305 7.68142 0.612305 9.31175C0.612305 10.9421 1.07936 12.5395 1.96011 13.9215C2.84085 15.3034 4.09974 16.4142 5.59288 17.1267C7.08602 17.8392 8.75317 18.1248 10.4038 17.9508C12.0544 17.7768 13.6218 17.1503 14.927 16.1428C13.8731 15.3305 13.0211 14.2933 12.4357 13.1098C11.8502 11.9263 11.5466 10.6275 11.5478 9.31175Z" fill="#EB001B"/>
<path d="M29.2344 9.31175C29.2345 10.942 28.7675 12.5395 27.8868 13.9214C27.0061 15.3034 25.7472 16.4141 24.2541 17.1267C22.761 17.8392 21.0939 18.1248 19.4433 17.9508C17.7927 17.7768 16.2253 17.1503 14.9202 16.1428C15.9732 15.3296 16.8245 14.2923 17.4098 13.109C17.9952 11.9257 18.2993 10.6273 18.2993 9.31175C18.2993 7.9962 17.9952 6.69781 17.4098 5.51451C16.8245 4.3312 15.9732 3.29386 14.9202 2.48069C16.2253 1.4732 17.7927 0.846651 19.4433 0.672668C21.0939 0.498686 22.761 0.784288 24.2541 1.49683C25.7472 2.20937 27.0061 3.3201 27.8868 4.70206C28.7675 6.08402 29.2345 7.68145 29.2344 9.31175Z" fill="#F79E1B"/>
<path d="M28.403 14.6961V14.4164H28.5178V14.3594H28.2253V14.4164H28.3402V14.6961H28.403ZM28.9708 14.6961V14.3589H28.8812L28.778 14.5908L28.6749 14.3589H28.5852V14.6961H28.6485V14.4417L28.7452 14.6611H28.8108L28.9075 14.4412V14.6961H28.9708Z" fill="#F79E1B"/>
</svg>
