<svg viewBox="0 0 62 18" fill="none" xmlns="http://www.w3.org/2000/svg">
<g clip-path="url(#clip0_137_8469)">
<path fill-rule="evenodd" clip-rule="evenodd" d="M0.667969 0.641354C2.5396 0.641354 4.42923 0.641354 6.30087 0.641354C7.18269 0.623271 8.06452 1.09342 8.55043 1.83481C9.00034 2.4677 9.16231 3.24525 9.39626 3.98664C10.0801 6.28313 10.746 8.59771 11.4299 10.8942C11.4479 11.1112 11.7538 11.1835 11.8078 10.9665C12.5097 8.63388 13.1755 6.3193 13.8594 3.98664C14.0933 3.17292 14.3093 2.30496 14.8492 1.61782C15.2091 1.18383 15.695 0.876428 16.2349 0.731767C16.7028 0.605188 17.1707 0.659436 17.6566 0.641354C19.3123 0.641354 20.95 0.623271 22.6057 0.659436C22.5877 6.44588 22.6057 12.2142 22.5877 18.0007C20.824 17.9826 19.0424 18.0007 17.2427 17.9826C17.2427 14.5831 17.2427 11.2016 17.2427 7.80207C17.2247 7.49467 16.7388 7.53084 16.7028 7.80207C15.641 11.2016 14.5792 14.5831 13.5355 17.9826C12.2757 18.0188 11.0159 17.9826 9.75619 18.0007C8.6944 14.6192 7.6506 11.2197 6.57081 7.83824C6.53482 7.567 6.19289 7.54892 6.01292 7.71166C6.01292 11.1474 6.01292 14.565 6.01292 18.0007C4.23127 18.0007 2.44962 17.9826 0.667969 18.0007C0.667969 12.2142 0.667969 6.42779 0.667969 0.641354ZM25.0532 0.641354C26.8349 0.605188 28.6165 0.659436 30.3982 0.623271C30.4341 4.05897 30.3982 7.49467 30.4161 10.9123C30.5601 11.0569 30.8481 11.0931 30.938 10.858C32.1258 8.36264 33.2956 5.86723 34.4834 3.35375C34.8613 2.57619 35.1672 1.74439 35.7791 1.1115C36.049 0.858345 36.391 0.605188 36.7869 0.623271C38.6045 0.623271 40.4222 0.605188 42.2398 0.623271C42.2398 6.40971 42.2398 12.1781 42.2398 17.9645C40.4582 17.9826 38.6765 17.9826 36.8949 17.9645C36.8949 14.5469 36.8949 11.1112 36.8949 7.69358C36.8949 7.40426 36.391 7.42234 36.337 7.69358C35.2212 10.1709 34.1054 12.6482 32.9896 15.1255C32.6477 15.885 32.3238 16.6445 31.8019 17.3135C31.5139 17.6752 31.1 18.0007 30.6141 17.9826C28.7605 17.9826 26.9068 17.9826 25.0532 17.9826C25.0532 12.2142 25.0532 6.42779 25.0532 0.641354ZM44.8493 8.56154C50.4462 8.52538 56.0431 8.56154 61.64 8.54346C61.4601 9.32102 60.9562 9.99007 60.4163 10.5687C59.3725 11.7079 57.8788 12.3951 56.3311 12.4312C54.2795 12.4493 52.2459 12.4312 50.1943 12.4312C50.1763 14.2757 50.1943 16.1201 50.1943 17.9826C48.4126 17.9826 46.631 17.9826 44.8493 17.9826C44.8493 14.8543 44.8673 11.7079 44.8493 8.56154Z" fill="#3DA536"/>
<path fill-rule="evenodd" clip-rule="evenodd" d="M44.166 0.641602C48.3412 0.641602 52.5344 0.641602 56.7096 0.641602C57.8074 0.713932 58.8692 1.166 59.733 1.83505C60.9927 2.8296 61.8386 4.33046 61.9825 5.93981C62.0185 6.51846 62.0005 7.0971 61.9106 7.67574C59.3551 7.69383 56.7816 7.67574 54.2261 7.67574C53.3442 7.67574 52.4624 7.71191 51.5806 7.58533C49.619 7.33217 47.6753 6.51846 46.2716 5.07185C45.1198 3.87839 44.4 2.28712 44.166 0.641602Z" fill="#008CD2"/>
</g>
<defs>
<clipPath id="clip0_137_8469">
<rect width="61.332" height="17.3774" fill="white" transform="translate(0.667969 0.623047)"/>
</clipPath>
</defs>
</svg>
