<svg viewBox="0 0 78 51" fill="none" xmlns="http://www.w3.org/2000/svg">
<g clip-path="url(#clip0_137_15278)">
<path d="M18 51H30.7749C31.9004 46.9445 32.4632 44 32.5758 42.9445C32.5758 42.9445 32.8571 36.9445 26.6104 37.5C26.6104 37.5 19.5195 37.3889 18.3377 45.5C18.3377 45.5 18.4502 47.5 18 51Z" fill="#5D5FAA"/>
<path d="M40.2294 27.0556H33.3074V36.2222H40.2294V27.0556Z" fill="#F8B78F"/>
<path d="M52.4978 40.1667C50.5844 37.2222 47.5454 36.4444 47.5454 36.4444L40.2857 33.7778H33.3073L26.0476 36.4444C26.0476 36.4444 23.0086 37.2222 21.0952 40.1667H52.4978Z" fill="#F8B78F"/>
<path d="M50.7533 51V50.2778L53.9611 44C53.0044 37.8889 47.6018 36.4444 47.6018 36.4444L42.0303 34.3889L35.7273 36.5L31.4503 34.4444L26.0477 36.3889C26.0477 36.3889 20.5888 37.8333 19.6321 43.9444L22.2208 51H50.7533Z" fill="#5D5FAA"/>
<path d="M43.2121 51H57C55.1991 45.2222 53.4546 41.2222 52.7792 40C52.7792 40 49.5152 34.9444 44.7316 38.9444C44.7316 38.9444 38.8788 42.8889 42.6494 50.2222C42.6494 50.2222 42.8182 50.5 43.2121 51Z" fill="#5D5FAA"/>
<path d="M25.1472 14C24.9784 12.7778 24.8658 12.3333 24.8096 9.38889C24.8096 8 25.091 5.88889 26.8355 5.72222C29.2555 5.5 30.0433 9.61111 30.1559 11.4444C30.381 13.9444 29.7057 16.6111 29.2555 19C29.0866 19.8889 29.0866 21.6111 28.0736 22.0556C27.2295 22.4444 27.342 22.5556 26.9481 21.9444C25.8788 20.3889 25.3723 15.7778 25.1472 14Z" fill="#825829"/>
<path d="M26.4416 25.7778C27.3983 29.5 29.0867 30.5 29.0867 30.5L31.3377 30.9444C32.6321 30.7778 34.8832 30.2778 34.8832 30.2778C40.0607 28.5556 41.8053 28.6667 42.8745 26C42.9308 25.9444 46.4763 12.1667 46.4763 12.1667C47.2079 4.94445 39.6105 3.44445 38.4849 3.27778C37.3594 3 30.0996 1.05556 27.9611 7.88889C27.9611 7.88889 24.8096 15.8889 26.4416 25.7778Z" fill="#F8B78F"/>
<path d="M41.2424 27.1667C39.1601 28.7778 35.6147 29.8334 33.0259 30.0556C28.4112 30.5556 27.3982 27.2222 26.6104 23.6667C26.6666 24.5 26.7792 25.3334 26.8917 26.1667C27.7922 29.6111 29.3679 30.6111 29.3679 30.6111L31.5065 31C32.7446 30.8334 34.8268 30.3334 34.8268 30.3334C39.6666 28.7222 41.2987 28.7778 42.2554 26.3334C42.2554 26.3334 42.3117 26.0556 42.4242 25.6667C42.1428 26.2222 41.7489 26.7778 41.2424 27.1667Z" fill="#E6AB86"/>
<path d="M36.7965 0.888898C38.9351 0.61112 41.4675 0.0555648 43.6061 0.777787C46.4199 1.72223 46.4199 4.8889 47.7143 7.05556C49.0649 9.3889 49.9654 11.3333 49.8528 13.8889C49.7403 15.8333 49.0087 14.8889 48.7273 16.8889C48.3896 19.1111 47.9957 19.2778 46.9264 21.1667L43.0433 26C43.6623 23.5556 43.2121 23.1111 43.7749 21.2222C44.4502 18.9445 44.2814 15.9445 43.2684 13.6667C42.368 11.6111 41.7489 11.6667 39.8355 11.1667C37.3593 10.5556 35.2771 10.2778 32.6883 10.2778C30.381 10.2222 27.7922 10.1667 25.9351 8.61112C24.1905 7.16668 23.5714 4.05556 24.1905 1.8889C24.1905 1.8889 25.2597 -0.499991 28.2424 0.166676C30.0996 0.555565 31.9567 1.11112 33.8701 1.16668C34.7706 1.11112 35.7836 1.05556 36.7965 0.888898Z" fill="#825829"/>
<path d="M43.1559 19.8334C43.1559 19.8334 44.4503 17.0556 46.4763 18.7222C46.4763 18.7222 47.3767 19.4445 46.2511 21.2778C46.2511 21.2778 44.6191 23.9445 42.6494 22.4445L43.1559 19.8334Z" fill="#F8B78F"/>
<path d="M43.381 13.3889C43.381 13.3889 43.381 18.3333 42.4243 20.9444L43.381 21.1111C43.381 21.1111 43.8875 17.7222 45.6884 17.6667L43.381 13.3889Z" fill="#825829"/>
</g>
<g clip-path="url(#clip1_137_15278)">
<path d="M51.0429 16.8012H66.689V51H51.0429V16.8012Z" fill="#9E6826"/>
<path d="M70.2766 51C69.6787 45.0655 73.4656 43.5567 73.4656 43.5567C76.9536 43.5567 77.7509 49.2901 77.7509 49.2901L78 51H70.2766Z" fill="#F8B78F"/>
<path d="M60.0121 33.9509H65.842V41.8468H60.0121V33.9509Z" fill="#F8B78F"/>
<path d="M50.1459 45.2667C51.7903 42.752 53.8831 42.0479 53.8831 42.0479L60.0119 39.7345H65.8418L71.9707 42.0479C71.9707 42.0479 74.5119 42.752 76.1562 45.2667H50.1459Z" fill="#F8B78F"/>
<path d="M55.5774 44.0094H72.0706V51H55.5774V44.0094Z" fill="#F8B78F"/>
<path d="M50.0962 51C49.2492 49.6924 49.6976 48.4351 49.6976 48.4351C49.598 43.5567 53.8832 42.048 53.8832 42.048L58.567 40.2877C58.3179 48.8374 65.8419 47.5298 65.8419 47.5298C72.3196 47.0772 67.4364 40.338 67.4364 40.338L71.1736 41.7462L74.0636 48.938C74.0636 48.938 74.512 49.7427 74.8608 51H50.0962Z" fill="#49B437"/>
<path d="M56.1753 51H49.0001L49.0499 50.1953C49.0499 41.6959 53.8334 42.5006 53.8334 42.5006C57.421 44.1099 56.5241 49.2398 56.5241 49.2398L56.1753 51Z" fill="#F8B78F"/>
<path d="M56.3745 30.6819C56.6236 31.2854 56.9724 31.7883 57.4707 32.2409C59.6133 34.3029 62.5033 35.7614 65.493 35.7614C73.316 32.3415 70.7748 17.0526 70.7748 17.0526C69.6288 9.76023 63.4002 9.76023 63.4002 9.76023C58.7164 9.55906 54.481 11.7719 53.7336 16.7509C53.4346 18.662 53.8332 20.6737 53.9329 22.5848C53.9827 23.993 54.182 25.4012 54.6305 26.7088C55.0789 28.117 55.8264 29.324 56.3745 30.6819Z" fill="#F8B78F"/>
<path d="M65.8917 34.9064C62.8521 35.6105 59.713 33.3977 57.1219 31.8386C57.2216 31.9895 57.371 32.1403 57.5205 32.2409C59.6631 34.3029 62.5532 35.7614 65.5429 35.7614C66.4398 35.3591 67.1872 34.8058 67.835 34.152C67.1374 34.5041 66.5394 34.7556 65.8917 34.9064Z" fill="#E6AB86"/>
<path d="M71.1734 24.2947C71.3229 21.8807 71.1236 19.9696 69.6288 18.0585C68.2336 16.248 67.8848 15.8456 67.4862 13.2807C67.1374 11.0678 62.4535 8.10059 65.2439 8.50293C69.7782 9.15673 72.1202 14.2363 72.2198 16.6503C72.3195 18.8632 72.3195 21.5287 71.3229 23.3895L71.1734 24.2947Z" fill="#9E6826"/>
<path d="M60.2114 21.9813C54.1822 23.8924 55.0293 26.4574 56.2251 30.2796C53.6839 28.2176 52.4382 26.4071 51.5911 23.8422C50.744 21.1767 50.7939 19.6679 51.043 16.8012C51.7406 9.76028 58.9159 5.98835 66.6392 9.10648C69.4794 10.2632 68.8815 15.0913 67.3368 17.4047C65.7921 19.6679 64.397 20.6737 60.2114 21.9813Z" fill="#9E6826"/>
<path d="M56.4741 24.5462C56.4741 24.5462 55.8762 21.931 53.8831 23.0374C53.8831 23.0374 52.9861 23.4901 53.6339 25.3006C53.6339 25.3006 54.5807 27.8655 56.4741 26.91V24.5462Z" fill="#F8B78F"/>
</g>
<g clip-path="url(#clip2_137_15278)">
<path d="M24.9603 43.7114C24.6812 46.2344 22.8072 48.2367 22.6079 50.9199C22.6079 50.9599 22.6079 50.9599 22.6079 51H18.82C18.6605 48.3969 20.1756 46.7149 20.375 43.9917C20.5744 41.2285 18.2618 39.4264 18.7801 36.4629C19.2984 33.5394 21.013 31.7774 19.0991 29.0141C18.1421 27.6125 17.265 25.3698 17.4643 23.6478C17.6238 22.086 18.501 21.6054 19.5377 21.7255C20.6142 21.8857 21.8104 22.6066 22.6079 23.4476C23.6844 24.6089 24.2426 26.0506 24.3622 27.6525C24.6015 30.3357 22.887 32.6184 23.0863 35.5418C23.2857 38.3451 25.3192 40.7479 24.9603 43.7114Z" fill="#E98824"/>
<path d="M0.000187874 51C0.19955 48.9176 0.837508 45.7138 2.79126 45.6737C2.79126 45.6737 6.93799 44.3922 6.65888 51H0.000187874Z" fill="#F8B78F"/>
<path d="M9.56955 37.5842H14.2346V43.8716H9.56955V37.5842Z" fill="#F8B78F"/>
<path d="M22.488 46.5948C21.1722 44.5925 19.1388 44.0318 19.1388 44.0318L14.2344 42.1896H9.56938L4.66507 44.0318C4.66507 44.0318 2.63157 44.5925 1.31579 46.5948H22.488Z" fill="#F8B78F"/>
<path d="M17.1851 35.1814C16.3079 36.543 15.1516 37.6643 13.5966 38.3852C13.0383 38.6655 12.4004 38.9058 11.8023 39.0259C11.3637 39.146 10.3669 39.4664 9.9283 39.2662C3.62846 36.5029 5.70182 24.3687 5.70182 24.3687C6.61889 18.6019 11.5631 18.6019 11.5631 18.6019C15.3111 18.4417 18.7002 20.2038 19.2983 24.1684C19.5375 25.6902 19.2186 27.2921 19.1388 28.8139C19.0989 29.9352 18.9395 31.0565 18.5806 32.0978C18.2218 33.2191 17.7832 34.2603 17.1851 35.1814Z" fill="#F8B78F"/>
<path d="M10.6858 38.8257C13.4769 38.6254 15.7097 36.4629 17.5837 34.4605C17.4641 34.7008 17.3046 34.9812 17.1451 35.2214C16.268 36.583 15.1117 37.7044 13.5566 38.4252C12.9984 38.7055 12.3605 38.9458 11.7624 39.066C11.3238 39.1861 10.327 39.5065 9.88837 39.3062C8.89156 38.8657 8.13398 38.225 7.49602 37.384C8.37321 37.9847 9.60926 38.9058 10.6858 38.8257Z" fill="#E6AB86"/>
<path d="M16.6269 35.9423C17.1851 31.6973 17.3048 28.4535 14.0751 27.0118C11.8821 26.0506 10.8853 25.53 11.0049 22.6867C11.1245 19.6831 10.8056 18.3215 13.1181 17.7208C16.6269 16.7997 20.1756 19.7632 21.0129 23.4476C21.0129 23.4476 23.4451 31.9376 16.6269 35.9423Z" fill="#E98824"/>
<path d="M16.6269 30.7762C16.6269 30.7762 17.1054 28.6937 18.7002 29.5748C18.7002 29.5748 19.418 29.9352 18.8996 31.3769C18.8996 31.3769 18.142 33.4193 16.6269 32.6584V30.7762Z" fill="#F8B78F"/>
<path d="M2.95073 51C5.14371 45.9941 5.58231 43.7114 5.58231 43.7114L8.01452 42.7903C8.37337 44.3922 10.0879 45.073 10.0879 45.073C13.3176 44.7126 15.4707 42.6702 15.4707 42.6702L19.0991 44.0318C19.0991 44.0318 22.7673 45.033 23.4053 49.1979L22.249 50.96H2.95073V51Z" fill="#006BB6"/>
<path d="M17.5837 51C17.5837 44.7126 21.252 45.6737 21.252 45.6737C23.1659 45.6737 23.8038 48.8775 24.0032 51H17.5837Z" fill="#F8B78F"/>
<path d="M8.37322 24.3286C7.49603 24.609 6.77833 25.0094 6.06062 25.8104C5.46254 26.4912 5.42266 26.9317 5.34292 28.9741C5.30305 29.8551 2.55185 27.5324 3.03032 22.927C3.22968 21.245 4.26637 19.6832 5.6619 18.7621C6.73845 18.0813 9.96812 15.8787 15.0319 17.7208C16.8262 18.4016 12.3605 23.0872 8.37322 24.3286Z" fill="#E98824"/>
</g>
<defs>
<clipPath id="clip0_137_15278">
<rect width="39" height="51" fill="white" transform="translate(18)"/>
</clipPath>
<clipPath id="clip1_137_15278">
<rect width="29" height="43" fill="white" transform="matrix(-1 0 0 1 78 8)"/>
</clipPath>
<clipPath id="clip2_137_15278">
<rect width="25" height="34" fill="white" transform="matrix(-1 0 0 1 25 17)"/>
</clipPath>
</defs>
</svg>
