<svg viewBox="0 0 60 60" fill="none" xmlns="http://www.w3.org/2000/svg">
<path d="M23.5999 42C22.6999 41.1 19.9999 42.1 16.8999 44.4C17.0999 43.6 17.0999 43 16.7999 42.6C16.3999 42.3 15.7999 42.3 14.9999 42.5C17.2999 39.4 18.3999 36.7 17.3999 35.8C16.0999 34.5 11.1999 37.2 6.4999 41.9C1.7999 46.6 0.399902 52.8 0.399902 52.8C0.399902 52.8 1.6999 52.5 3.4999 51.7C1.1999 55 0.199902 58.3 -0.100098 59.3C0.899902 59 4.1999 58 7.4999 55.7C6.8999 57.7 6.5999 59 6.5999 59C6.5999 59 12.7999 57.6 17.4999 52.9C22.1999 48.2 24.8999 43.4 23.5999 42Z" fill="#FD6D60"/>
<path d="M28 37.6C27.1 36.7 24.4 37.7 21.3 40C21.5 39.2 21.5 38.6 21.2 38.2C20.8 37.9 20.2 37.9 19.4 38.1C21.7 35 22.8 32.3 21.8 31.4C20.5 30.1 15.6 32.8 10.9 37.5C6.2 42.2 4.8 48.4 4.8 48.4C4.8 48.4 6.1 48.1 7.9 47.3C5.7 50.7 4.7 54 4.5 55C5.5 54.7 8.8 53.7 12.1 51.4C11.3 53.2 11 54.5 11 54.5C11 54.5 17.2 53.1 21.9 48.4C26.6 43.8 29.3 38.9 28 37.6Z" fill="#FD8C7F"/>
<path d="M37.7999 39.6L23.6999 53.8L5.59985 35.7L19.6999 21.6C27.3999 14 36.9999 10.1 43.8999 8.09998C44.9999 7.69998 45.9999 7.49998 46.9999 7.29998C50.8999 6.39998 53.3999 6.09998 53.3999 6.09998C53.3999 6.09998 52.9999 9.99998 51.3999 15.5C49.3999 22.5 45.3999 32.1 37.7999 39.6Z" fill="#EF893A"/>
<path d="M37.7999 39.6L23.6999 53.8L19.6999 49.8C14.7999 43.1 19.3999 29.5 30.4999 18.4C34.8999 14 39.6999 10.6 44.2999 8.49998C45.1999 7.99998 46.0999 7.59998 46.9999 7.29998C50.8999 6.39998 53.3999 6.09998 53.3999 6.09998C53.3999 6.09998 52.9999 9.99998 51.3999 15.5C49.3999 22.5 45.3999 32.1 37.7999 39.6Z" fill="#F3AA43"/>
<path d="M31.0795 37.3235C33.5398 34.8632 33.5398 30.8743 31.0795 28.414C28.6192 25.9538 24.6303 25.9538 22.1701 28.414C19.7098 30.8743 19.7098 34.8632 22.1701 37.3235C24.6303 39.7838 28.6192 39.7838 31.0795 37.3235Z" fill="#D5E5E6"/>
<path d="M21.3 38.0999C18.4 35.1999 18.4 30.5 21.3 27.5C24.2 24.6 28.9 24.6 31.9 27.5C34.8 30.4 34.8 35.0999 31.9 38.0999C28.9 41 24.2 41 21.3 38.0999ZM30.2 29.2C28.2 27.2 24.9 27.2 22.9 29.2C20.9 31.2 20.9 34.5 22.9 36.5C24.9 38.5 28.2 38.5 30.2 36.5C32.2 34.5 32.2 31.2 30.2 29.2Z" fill="#C52E25"/>
<path d="M30.2808 34.7652C31.2572 33.7889 31.2573 32.2059 30.281 31.2294C29.3047 30.253 27.7217 30.2529 26.7453 31.2292C25.7689 32.2055 25.7687 33.7885 26.745 34.7649C27.7213 35.7414 29.3044 35.7415 30.2808 34.7652Z" fill="white"/>
<path d="M42.7476 23.7566C44.7002 21.804 44.7002 18.6382 42.7476 16.6856C40.795 14.733 37.6292 14.733 35.6766 16.6856C33.724 18.6382 33.724 21.804 35.6766 23.7566C37.6292 25.7092 40.795 25.7092 42.7476 23.7566Z" fill="#D5E5E6"/>
<path d="M34.9999 24.4C32.6999 22.1 32.6999 18.3 34.9999 16C37.2999 13.7 41.0999 13.7 43.3999 16C45.6999 18.3 45.6999 22.1 43.3999 24.4C41.0999 26.7 37.3999 26.7 34.9999 24.4ZM42.0999 17.3C40.4999 15.7 37.8999 15.7 36.2999 17.3C34.6999 18.9 34.6999 21.5 36.2999 23.1C37.8999 24.7 40.4999 24.7 42.0999 23.1C43.6999 21.5 43.6999 18.9 42.0999 17.3Z" fill="#C52E25"/>
<path d="M42.2026 21.6908C42.9838 20.9099 42.9839 19.6436 42.203 18.8624C41.4221 18.0812 40.1558 18.0811 39.3746 18.862C38.5935 19.6429 38.5933 20.9092 39.3742 21.6904C40.1551 22.4716 41.4215 22.4717 42.2026 21.6908Z" fill="white"/>
<path d="M56.5595 1.70387L47.1577 11.111L48.2894 12.242L57.6912 2.83491L56.5595 1.70387Z" fill="#B5C5C6"/>
<path d="M59.0182 2.8653C59.6821 2.20151 59.6823 1.12514 59.0185 0.461159C58.3547 -0.20282 57.2783 -0.202972 56.6143 0.460819C55.9504 1.12461 55.9502 2.20098 56.614 2.86496C57.2778 3.52894 58.3542 3.52909 59.0182 2.8653Z" fill="#C52E25"/>
<path d="M51.4 15.5L44 8.09998C45 7.69998 46 7.49998 47 7.29998C50.9 6.39998 53.4 6.09998 53.4 6.09998C53.4 6.09998 52.9 9.99998 51.4 15.5Z" fill="#C52E25"/>
<path d="M21.3999 51.6C20.4999 52.5 19.0999 52.5 18.2999 51.6L7.1999 40.5C6.2999 39.6 6.2999 38.2 7.1999 37.4C8.0999 36.5 9.4999 36.5 10.2999 37.4L21.3999 48.5C22.2999 49.3 22.2999 50.7 21.3999 51.6Z" fill="#B5C5C6"/>
<path d="M4.49989 43.1C4.19989 43.1 3.89989 43.1 3.69989 42.9C3.49989 42.8 3.39989 42.7 3.29989 42.6C1.89989 41.2 2.39989 37.1 3.19989 35.3L7.59989 26.3C8.49989 24.4 10.7999 23.7 12.6999 24.6C13.0999 24.8 13.3999 25 13.6999 25.3C13.8999 25.5 14.0999 25.8 14.2999 26C14.8999 27.1 14.9999 28.4 14.3999 29.6L9.99989 38.6C9.09989 40.3 6.39989 43 4.49989 43.1Z" fill="#C52E25"/>
<path d="M4.49987 43.1C4.19987 43 3.99987 42.9 3.79987 42.8L3.69987 42.7C2.29987 41.3 3.69987 36.9 4.99987 35.3L11.2999 27.5C11.9999 26.6 13.0999 26.1 14.0999 26.1C14.6999 27.2 14.7999 28.5 14.1999 29.7L9.79987 38.7C9.09987 40.3 6.39987 43 4.49987 43.1Z" fill="#D53D33"/>
<path d="M15.3999 54C15.3999 54.3 15.3999 54.6 15.5999 54.8C15.6999 55 15.7999 55.1 15.8999 55.2C17.2999 56.6 21.3999 56.1 23.1999 55.3L32.1999 50.9C34.0999 50 34.7999 47.7 33.8999 45.8C33.6999 45.4 33.4999 45.1 33.1999 44.8C32.9999 44.6 32.6999 44.4 32.4999 44.2C31.3999 43.6 30.0999 43.5 28.8999 44.1L19.8999 48.5C18.1999 49.4 15.4999 52.1 15.3999 54Z" fill="#C52E25"/>
<path d="M15.3999 54C15.4999 54.2 15.5999 54.4 15.6999 54.6L15.7999 54.7C17.1999 56.1 21.5999 54.7 23.1999 53.4L30.9999 47.1C31.8999 46.4 32.3999 45.3 32.3999 44.3C31.2999 43.7 29.9999 43.6 28.7999 44.2L19.7999 48.6C18.1999 49.4 15.4999 52.1 15.3999 54Z" fill="#D53D33"/>
<path d="M13.9999 49.8C12.6999 51.1 9.29993 52.7 8.09993 51.5L7.99993 51.4C6.99993 50.1 8.49993 46.8 9.59993 45.6L15.1999 39.7C16.3999 38.5 18.2999 38.5 19.4999 39.7L19.5999 39.8C20.6999 41 20.6999 42.8 19.5999 44L13.9999 49.8Z" fill="#C52E25"/>
<path d="M14 49.8C12.7 51.1 9.3 52.7 8.1 51.5L8 51.4001L19.6 39.8C20.7 41 20.7 42.8 19.6 44L14 49.8Z" fill="#D53D33"/>
</svg>
