<svg viewBox="0 0 92 51" fill="none" xmlns="http://www.w3.org/2000/svg">
<g clip-path="url(#clip0_137_15149)">
<path d="M92 6H0V45.6332H92V6Z" fill="url(#paint0_linear_137_15149)"/>
<path d="M69.1939 6H17.1016V45.6332H69.1939V6Z" fill="url(#paint1_linear_137_15149)"/>
<path d="M37.6521 6H17.1016V45.6332H37.6521V6Z" fill="url(#paint2_linear_137_15149)"/>
<path d="M23.6655 40.2034C23.6655 40.2034 24.0236 40.9553 23.9281 41.3491C23.8446 41.7429 22.1141 42.4948 21.6725 41.3491C21.6725 41.3491 21.7561 40.2392 20.8372 39.3203C20.8372 39.3203 25.3841 35.7401 33.1651 38.4849L32.9383 38.8787C32.9383 38.8787 34.9671 39.4993 36.077 38.652C36.077 38.652 35.8145 37.1483 35.5519 36.7903C35.5519 36.7903 38.1177 34.6302 43.0823 35.6446C48.0588 36.659 47.5218 36.9693 49.0255 36.9693C49.0255 36.9693 49.2165 36.1339 49.2165 34.9763C49.2165 34.5347 49.7177 34.4512 49.9444 34.4512C55.4222 34.4512 70.495 34.4512 70.495 34.4512C70.495 34.4512 71.3781 34.9405 71.0201 35.5133C70.662 36.0861 69.9579 38.1149 70.0892 39.01C70.0892 39.01 68.502 40.2034 67.2131 39.01L67.3921 38.7474C67.3921 38.7474 50.8634 38.4849 50.8634 38.7474C50.8634 39.01 50.7798 40.0721 50.7798 40.0721C50.7798 40.0721 49.4551 41.6594 40.3017 39.6306C40.3017 39.6306 40.612 43.0795 37.9984 43.4734C35.3968 43.8672 31.8165 42.9483 30.8379 42.3277V41.7548C30.8379 41.7548 30.2174 41.6236 29.8235 41.6713C29.8235 41.6713 30.0025 42.3754 29.74 42.638C29.4774 42.9005 28.4153 43.0795 28.105 42.3754C28.105 42.3754 28.2363 41.54 27.747 40.5614C27.747 40.5614 28.6779 39.8096 29.9071 39.8931C29.9309 39.8931 27.377 39.01 23.6655 40.2034Z" fill="url(#paint3_linear_137_15149)"/>
<path d="M49.0725 39.6303C48.9412 38.974 48.3923 39.0098 48.3923 39.0098C48.3445 38.6876 48.1894 38.4131 48.1894 38.4131C48.1894 38.4131 48.7145 38.4369 48.7384 38.3295C48.7622 38.2221 48.4758 38.0431 48.1894 37.9118C47.903 37.7806 47.2824 37.3987 47.2347 37.2913C47.1869 37.1839 47.0318 36.981 46.9005 36.8497C46.7692 36.7184 46.8766 36.5633 46.9005 36.1814C46.9244 35.8114 46.638 29.7728 46.5425 29.4267C46.4589 29.0687 46.1248 28.2571 45.7668 27.6843C45.4087 27.1115 44.991 26.2283 44.991 26.2283L45.3252 22.0991L45.4803 22.0753V21.586C45.4803 21.586 44.8001 21.5144 44.7524 21.5621C44.7046 21.6098 44.7524 22.0753 44.7524 22.0753C44.7524 22.0753 44.8598 22.2066 44.8836 22.1588C44.9075 22.1111 44.6211 25.5123 44.5495 25.4288C44.4779 25.3452 44.4421 25.0349 44.3705 24.6769C44.2989 24.3189 44.0363 23.5074 44.0363 23.5074C44.0363 23.5074 44.5853 22.9345 44.4779 22.672C44.3705 22.4094 44.0363 21.5621 44.0363 21.5621C44.5853 21.5382 44.5614 21.1922 44.5614 21.1922C44.5614 21.1922 44.7882 21.1922 45.0268 20.9893C45.2655 20.7864 44.9433 19.9271 44.9433 19.9271C45.9816 19.9271 45.9816 19.1514 45.9577 18.8053C45.9338 18.4473 45.4087 17.5403 45.3013 17.3016C45.1939 17.063 45.1939 16.4424 44.9314 16.156C44.6688 15.8695 43.9767 15.7383 43.5828 15.7383C43.189 15.7383 42.6997 15.9411 42.6997 15.9411C42.3417 15.8099 42.0195 15.965 41.9479 15.8934C41.8762 15.8218 41.8762 15.058 41.8404 14.9864C41.7927 14.9148 41.733 14.9387 41.733 14.9029C41.733 14.8551 41.733 14.7477 41.9359 14.5449C42.1388 14.342 42.0911 14.1272 42.0911 13.9482C42.0911 13.7691 42.1746 13.7691 42.1985 13.4827C42.2223 13.1963 42.0433 12.9934 42.0195 12.9338C41.9956 12.8622 42.0911 12.707 42.1507 12.5757C42.2223 12.4445 42.1507 12.5757 42.0433 12.0029C41.9359 11.4301 41.2079 11.0004 41.2079 11.0004C41.1244 10.7259 40.9454 10.5469 40.3009 10.4634C39.6565 10.3799 39.2627 10.8334 39.2627 10.8334C39.024 10.8095 38.7495 10.8811 38.5824 11.0959C38.4034 11.3227 38.4512 11.2749 38.4273 12.1103C38.4034 12.9457 39.3343 14.4733 39.382 14.7C39.382 14.7239 39.394 14.7358 39.394 14.7477C39.3582 14.7358 39.3224 14.7358 39.2746 14.7835C39.1672 14.8671 39.1911 15.7979 39.1911 15.7979C39.1911 15.7979 37.0907 15.6905 36.8759 15.7979C36.6491 15.9053 36.0166 17.0988 36.0166 17.3613C36.0166 17.6239 36.5059 17.8864 36.5059 17.8864C36.5059 17.8864 36.7923 19.6765 36.9236 19.9868C37.0549 20.2971 37.5919 20.2732 37.7829 20.3448C37.9857 20.4164 38.4034 21.407 38.4034 21.6098C38.4034 21.8127 37.9141 23.1135 37.7829 24.3308C37.6516 25.5481 37.58 29.3193 37.58 29.3193C37.7351 29.546 38.8569 29.9399 38.8569 29.9399C39.0956 30.2024 39.3223 34.2003 39.3701 34.9999C39.4178 35.7995 39.6804 36.969 39.8594 37.518C40.0384 38.067 40.3487 39.6423 40.3487 39.6423L36.7446 42.1604L36.8281 42.6019L36.0166 42.9122V43.8431H42.7116L43.1055 43.0912H49.0964C49.0725 43.0674 49.2038 40.2867 49.0725 39.6303ZM44.8717 38.8546C44.8717 38.8546 44.7166 39.0814 44.5137 38.8546C44.3108 38.6279 44.1437 38.5682 44.0005 38.6756C43.8692 38.783 43.8454 38.7234 43.7141 38.8308C43.5828 38.9382 43.4277 39.1172 43.4516 39.2962C43.4516 39.2962 43.0577 39.2723 42.9384 39.3797C42.831 39.4871 43.3799 39.7736 43.3083 39.7974C43.2367 39.8213 42.0075 39.7974 42.0075 39.7974C42.0075 39.7974 42.0314 38.5563 41.924 38.3892C41.8166 38.2102 41.8166 36.8736 41.7927 36.1575C41.7569 35.4415 41.5302 34.3913 41.5063 33.711C41.4824 33.0308 41.4824 31.3958 41.5063 31.1094C41.5302 30.823 41.5063 29.9995 41.5063 29.9995C41.554 30.0473 42.9145 29.5102 43.189 29.4506C43.189 29.4506 43.4993 29.725 43.7141 30.0115C43.9408 30.2979 44.0483 30.3814 44.0483 30.3814C44.0483 30.3814 43.7857 30.6201 43.9408 30.8468C44.096 31.0736 44.2511 31.1094 44.2511 31.1094C44.2511 31.1094 44.4063 36.5871 44.4301 36.9452C44.454 37.3032 44.3824 38.246 44.6569 38.4011C44.9075 38.5443 44.8717 38.8546 44.8717 38.8546Z" fill="url(#paint4_linear_137_15149)"/>
<path d="M80.5068 40.1317C83.7034 40.1317 86.2948 38.5341 86.2948 36.5634C86.2948 34.5927 83.7034 32.9951 80.5068 32.9951C77.3101 32.9951 74.7188 34.5927 74.7188 36.5634C74.7188 38.5341 77.3101 40.1317 80.5068 40.1317Z" fill="url(#paint5_linear_137_15149)"/>
<path d="M86.6892 43.0674H43.082L44.7647 39.6304H88.3839L86.6892 43.0674Z" fill="url(#paint6_linear_137_15149)"/>
<path d="M87.7274 10.9764H49.2161L50.7078 8.60156H89.2072L87.7274 10.9764Z" fill="url(#paint7_linear_137_15149)"/>
<path d="M11.6119 12.9459L12.3041 11.7405L11.6119 10.5471V9.9385L11.0868 9.62821L10.3946 8.4348H9.01024L8.48514 8.12451L7.96004 8.4348H6.56375L5.87158 9.62821L5.34647 9.9385V10.5471L4.6543 11.7405L5.34647 12.9459V13.5545L5.87158 13.8529L6.56375 15.0582H7.96004L8.48514 15.3566L9.01024 15.0582H10.3946L11.0868 13.8529L11.6119 13.5545V12.9459Z" fill="url(#paint8_linear_137_15149)"/>
<path d="M31.123 12.3612C31.123 11.6571 31.2066 11.0484 31.3737 10.5352C31.5407 10.0221 31.7675 9.61632 32.042 9.30603C32.3165 8.99575 32.6267 8.78093 32.9609 8.64966C33.2951 8.51838 33.6292 8.44678 33.9753 8.44678C34.3572 8.44678 34.7152 8.51838 35.0613 8.67353C35.4074 8.82867 35.7057 9.05542 35.9802 9.37764C36.2428 9.68792 36.4576 10.1056 36.6127 10.6068C36.7679 11.1081 36.8514 11.7048 36.8514 12.3731C36.8514 13.0414 36.7798 13.6381 36.6247 14.1393C36.4695 14.6406 36.2547 15.0583 35.9922 15.3686C35.7177 15.6908 35.4193 15.9175 35.0732 16.0727C34.7271 16.2278 34.3691 16.2994 33.9872 16.2994C33.6411 16.2994 33.307 16.2278 32.9848 16.0965C32.6506 15.9653 32.3523 15.7385 32.0658 15.4282C31.7794 15.1179 31.5527 14.7122 31.3856 14.199C31.2066 13.6739 31.123 13.0653 31.123 12.3612ZM32.7342 12.3612C32.7342 12.9459 32.7938 13.4114 32.9132 13.7575C33.0325 14.1155 33.1876 14.3542 33.3786 14.4974C33.5695 14.6406 33.7605 14.7122 33.9753 14.7122C34.3333 14.7122 34.6197 14.5212 34.8584 14.1513C35.0971 13.7694 35.2164 13.1846 35.2164 12.3612C35.2164 11.8122 35.1568 11.3706 35.0494 11.0126C34.93 10.6546 34.7868 10.404 34.5959 10.2488C34.4049 10.0937 34.202 10.0101 33.9753 10.0101C33.7724 10.0101 33.5695 10.0817 33.3786 10.225C33.1876 10.3682 33.0325 10.6188 32.9132 10.9649C32.7938 11.311 32.7342 11.7764 32.7342 12.3612Z" fill="url(#paint9_linear_137_15149)"/>
<path d="M33.9763 16.6574C33.5944 16.6574 33.2006 16.5858 32.8307 16.4306C32.4488 16.2755 32.1027 16.0249 31.7805 15.6669C31.4582 15.3208 31.2076 14.8553 31.0167 14.2944C30.8377 13.7455 30.7422 13.0891 30.7422 12.3492C30.7422 11.6093 30.8377 10.9529 31.0167 10.4039C31.1957 9.84302 31.4582 9.38952 31.7685 9.04343C32.0788 8.69735 32.4368 8.44673 32.8187 8.29159C33.6183 7.96937 34.4656 7.99323 35.2055 8.31545C35.5994 8.48253 35.9574 8.75702 36.2557 9.11504C36.5541 9.47306 36.7928 9.92656 36.9599 10.4755C37.1269 11.0126 37.2105 11.6451 37.2105 12.3492C37.2105 13.0533 37.1269 13.6858 36.9599 14.2228C36.7928 14.7718 36.5541 15.2372 36.2557 15.5833C35.9455 15.9413 35.5994 16.2158 35.2055 16.3829C34.8236 16.5739 34.406 16.6574 33.9763 16.6574ZM33.9763 8.81669C33.6899 8.81669 33.3916 8.87636 33.1051 8.9957C32.8187 9.11504 32.5562 9.30598 32.3175 9.56853C32.0788 9.83109 31.8759 10.201 31.7208 10.6545C31.5656 11.1319 31.4821 11.7047 31.4821 12.3611C31.4821 13.0175 31.5656 13.6023 31.7208 14.0677C31.8759 14.5212 32.0788 14.8911 32.3175 15.1656C32.5681 15.4282 32.8307 15.6311 33.1051 15.7385C33.7018 15.9891 34.3463 15.9652 34.8953 15.7146C35.1817 15.5833 35.4442 15.3804 35.671 15.1179C35.9097 14.8434 36.1006 14.4735 36.2319 14.02C36.3751 13.5545 36.4467 12.9936 36.4467 12.3611C36.4467 11.7286 36.3751 11.1677 36.2319 10.7023C36.0887 10.2488 35.8977 9.87882 35.671 9.60434C35.4442 9.32985 35.1817 9.12697 34.8953 9.00763C34.6208 8.87636 34.3105 8.81669 33.9763 8.81669ZM33.9763 15.0821C33.6899 15.0821 33.4154 14.9866 33.1529 14.7957C32.9023 14.6047 32.7113 14.3064 32.5562 13.8767C32.4249 13.4829 32.3533 12.9817 32.3533 12.3611C32.3533 11.7405 32.4249 11.2393 32.5562 10.8455C32.6994 10.4159 32.9023 10.1175 33.1529 9.92656C33.4035 9.73561 33.678 9.64014 33.9763 9.64014C34.2866 9.64014 34.573 9.74755 34.8356 9.96236C35.0862 10.1652 35.2771 10.4755 35.4084 10.9052C35.5278 11.299 35.5994 11.7883 35.5994 12.373C35.5994 13.2681 35.4681 13.9245 35.1817 14.366C34.7998 14.9508 34.3105 15.0821 33.9763 15.0821ZM33.9763 10.3801C33.8451 10.3801 33.7257 10.4278 33.6064 10.5113C33.5228 10.571 33.3916 10.7261 33.2722 11.0722C33.1648 11.3825 33.1051 11.8121 33.1051 12.3492C33.1051 12.8862 33.1648 13.3158 33.2722 13.6261C33.3916 13.9722 33.5228 14.1274 33.6064 14.187C33.7257 14.2825 33.8451 14.3183 33.9763 14.3183C34.1195 14.3183 34.3224 14.2825 34.5492 13.9245C34.752 13.6142 34.8475 13.0772 34.8475 12.3372C34.8475 11.836 34.7998 11.4183 34.6924 11.0961C34.5969 10.8097 34.4895 10.6187 34.3582 10.4994C34.2389 10.4278 34.1195 10.3801 33.9763 10.3801Z" fill="url(#paint10_linear_137_15149)"/>
<path d="M25.5381 12.3612C25.5381 11.6571 25.6216 11.0484 25.7887 10.5352C25.9558 10.0221 26.1825 9.61632 26.457 9.30603C26.7315 8.99575 27.0418 8.78093 27.3759 8.64966C27.7101 8.51838 28.0442 8.44678 28.3903 8.44678C28.7722 8.44678 29.1303 8.51838 29.4763 8.67353C29.8224 8.82867 30.1208 9.05542 30.3953 9.37764C30.6578 9.68792 30.8726 10.1056 31.0278 10.6068C31.1829 11.1081 31.2665 11.7048 31.2665 12.3731C31.2665 13.0414 31.1949 13.6381 31.0397 14.1393C30.8846 14.6406 30.6698 15.0583 30.4072 15.3686C30.1327 15.6908 29.8344 15.9175 29.4883 16.0727C29.1422 16.2278 28.7842 16.2994 28.4023 16.2994C28.0562 16.2994 27.722 16.2278 27.3998 16.0965C27.0657 15.9653 26.7673 15.7385 26.4809 15.4282C26.1945 15.1179 25.9677 14.7122 25.8006 14.199C25.6216 13.6739 25.5381 13.0653 25.5381 12.3612ZM27.1492 12.3612C27.1492 12.9459 27.2089 13.4114 27.3282 13.7575C27.4475 14.1155 27.6027 14.3542 27.7936 14.4974C27.9846 14.6406 28.1755 14.7122 28.3903 14.7122C28.7484 14.7122 29.0348 14.5212 29.2735 14.1513C29.5121 13.7694 29.6315 13.1846 29.6315 12.3612C29.6315 11.8122 29.5718 11.3706 29.4644 11.0126C29.3451 10.6546 29.2019 10.404 29.0109 10.2488C28.82 10.0937 28.6171 10.0101 28.3903 10.0101C28.1875 10.0101 27.9846 10.0817 27.7936 10.225C27.6027 10.3682 27.4475 10.6188 27.3282 10.9649C27.2089 11.311 27.1492 11.7764 27.1492 12.3612Z" fill="url(#paint11_linear_137_15149)"/>
<path d="M28.3914 16.6574C28.0095 16.6574 27.6157 16.5858 27.2457 16.4306C26.8638 16.2755 26.5177 16.0249 26.1955 15.6669C25.8733 15.3208 25.6227 14.8553 25.4317 14.2944C25.2527 13.7455 25.1572 13.0891 25.1572 12.3492C25.1572 11.6093 25.2527 10.9529 25.4317 10.4039C25.6107 9.84302 25.8733 9.38952 26.1836 9.04343C26.4938 8.69735 26.8519 8.44673 27.2338 8.29159C28.0333 7.96937 28.8807 7.99323 29.6206 8.31545C30.0144 8.48253 30.3724 8.75702 30.6708 9.11504C30.9691 9.47306 31.2078 9.92656 31.3749 10.4755C31.542 11.0126 31.6255 11.6451 31.6255 12.3492C31.6255 13.0533 31.542 13.6858 31.3749 14.2228C31.2078 14.7718 30.9691 15.2372 30.6708 15.5833C30.3605 15.9413 30.0144 16.2158 29.6206 16.3829C29.2387 16.5739 28.821 16.6574 28.3914 16.6574ZM28.3914 8.81669C28.1049 8.81669 27.8066 8.87636 27.5202 8.9957C27.2338 9.11504 26.9712 9.30598 26.7325 9.56853C26.4938 9.83109 26.291 10.201 26.1358 10.6545C25.9807 11.1319 25.8971 11.7047 25.8971 12.3611C25.8971 13.0175 25.9807 13.6023 26.1358 14.0677C26.291 14.5212 26.4938 14.8911 26.7325 15.1656C26.9831 15.4282 27.2457 15.6311 27.5202 15.7385C28.1169 15.9891 28.7613 15.9652 29.3103 15.7146C29.5967 15.5833 29.8593 15.3804 30.086 15.1179C30.3247 14.8434 30.5156 14.4735 30.6469 14.02C30.7901 13.5545 30.8617 12.9936 30.8617 12.3611C30.8617 11.7286 30.7901 11.1677 30.6469 10.7023C30.5037 10.2488 30.3128 9.87882 30.086 9.60434C29.8593 9.32985 29.5967 9.12697 29.3103 9.00763C29.0358 8.87636 28.7136 8.81669 28.3914 8.81669ZM28.3914 15.0821C28.1049 15.0821 27.8305 14.9866 27.5679 14.7957C27.3173 14.6047 27.1264 14.3064 26.9712 13.8767C26.8399 13.4829 26.7683 12.9817 26.7683 12.3611C26.7683 11.7405 26.8399 11.2393 26.9712 10.8455C27.1144 10.4159 27.3173 10.1175 27.5679 9.92656C27.8185 9.73561 28.093 9.64014 28.3914 9.64014C28.7017 9.64014 28.9881 9.74755 29.2506 9.96236C29.5012 10.1652 29.6922 10.4755 29.8235 10.9052C29.9428 11.299 30.0144 11.7883 30.0144 12.373C30.0144 13.2681 29.8831 13.9245 29.5967 14.366C29.2148 14.9508 28.7255 15.0821 28.3914 15.0821ZM28.3914 10.3801C28.2601 10.3801 28.1408 10.4278 28.0214 10.5113C27.9379 10.571 27.8066 10.7261 27.6873 11.0722C27.5798 11.3825 27.5202 11.8121 27.5202 12.3492C27.5202 12.8862 27.5798 13.3158 27.6873 13.6261C27.8066 13.9722 27.9379 14.1274 28.0214 14.187C28.1408 14.2825 28.2601 14.3183 28.3914 14.3183C28.5346 14.3183 28.7375 14.2825 28.9642 13.9245C29.1671 13.6142 29.2626 13.0772 29.2626 12.3372C29.2626 11.836 29.2148 11.4183 29.1074 11.0961C29.0119 10.8097 28.9045 10.6187 28.7733 10.4994C28.6539 10.4278 28.5226 10.3801 28.3914 10.3801Z" fill="url(#paint12_linear_137_15149)"/>
<path d="M19.9434 12.3612C19.9434 11.6571 20.0269 11.0484 20.194 10.5352C20.3611 10.0221 20.5878 9.61632 20.8623 9.30603C21.1368 8.99575 21.4471 8.78093 21.7812 8.64966C22.1154 8.51838 22.4495 8.44678 22.7956 8.44678C23.1775 8.44678 23.5355 8.51838 23.8816 8.67353C24.2277 8.82867 24.5261 9.05542 24.8005 9.37764C25.0631 9.68792 25.2779 10.1056 25.433 10.6068C25.5882 11.1081 25.6717 11.7048 25.6717 12.3731C25.6717 13.0414 25.6001 13.6381 25.445 14.1393C25.2898 14.6406 25.075 15.0583 24.8125 15.3686C24.538 15.6908 24.2396 15.9175 23.8935 16.0727C23.5475 16.2278 23.1894 16.2994 22.8075 16.2994C22.4615 16.2994 22.1273 16.2278 21.8051 16.0965C21.4709 15.9653 21.1726 15.7385 20.8862 15.4282C20.5997 15.1179 20.373 14.7122 20.2059 14.199C20.0388 13.6739 19.9434 13.0653 19.9434 12.3612ZM21.5664 12.3612C21.5664 12.9459 21.6261 13.4114 21.7454 13.7575C21.8647 14.1155 22.0199 14.3542 22.2108 14.4974C22.4018 14.6406 22.5927 14.7122 22.8075 14.7122C23.1656 14.7122 23.452 14.5212 23.6907 14.1513C23.9293 13.7694 24.0487 13.1846 24.0487 12.3612C24.0487 11.8122 23.989 11.3706 23.8816 11.0126C23.7623 10.6546 23.6191 10.404 23.4281 10.2488C23.2372 10.0937 23.0343 10.0101 22.8075 10.0101C22.6047 10.0101 22.4018 10.0817 22.2108 10.225C22.0199 10.3682 21.8647 10.6188 21.7454 10.9649C21.6261 11.311 21.5664 11.7764 21.5664 12.3612Z" fill="url(#paint13_linear_137_15149)"/>
<path d="M22.8074 16.6574C22.4255 16.6574 22.0317 16.5858 21.6617 16.4306C21.2798 16.2755 20.9218 16.0249 20.6115 15.6669C20.2893 15.3208 20.0387 14.8553 19.8477 14.2944C19.6687 13.7455 19.5732 13.0891 19.5732 12.3492C19.5732 11.6093 19.6687 10.9529 19.8477 10.4039C20.0267 9.84302 20.2893 9.38952 20.5996 9.04343C20.9099 8.69735 21.2679 8.44673 21.6498 8.29159C22.4494 7.96937 23.2967 7.99323 24.0366 8.31545C24.4304 8.48253 24.7765 8.75702 25.0868 9.11504C25.3851 9.47306 25.6238 9.92656 25.7909 10.4755C25.958 11.0126 26.0415 11.6451 26.0415 12.3492C26.0415 13.0533 25.958 13.6858 25.7909 14.2228C25.6238 14.7718 25.3851 15.2372 25.0868 15.5833C24.7765 15.9413 24.4304 16.2158 24.0366 16.3829C23.6547 16.5739 23.237 16.6574 22.8074 16.6574ZM22.8074 8.81669C22.521 8.81669 22.2226 8.87636 21.9362 8.9957C21.6498 9.11504 21.3872 9.30598 21.1485 9.56853C20.9099 9.83109 20.707 10.201 20.5518 10.6545C20.3967 11.1319 20.3132 11.7047 20.3132 12.3611C20.3132 13.0175 20.3967 13.6023 20.5518 14.0677C20.707 14.5212 20.9099 14.8911 21.1485 15.1656C21.3992 15.4282 21.6617 15.6311 21.9362 15.7385C22.5329 15.9891 23.1773 15.9652 23.7263 15.7146C24.0127 15.5833 24.2753 15.3804 24.502 15.1179C24.7407 14.8434 24.9317 14.4735 25.0629 14.02C25.2061 13.5545 25.2777 12.9936 25.2777 12.3611C25.2777 11.7286 25.2061 11.1677 25.0629 10.7023C24.9197 10.2488 24.7288 9.87882 24.502 9.60434C24.2753 9.32985 24.0127 9.12697 23.7263 9.00763C23.4399 8.87636 23.1296 8.81669 22.8074 8.81669ZM22.8074 15.0821C22.521 15.0821 22.2465 14.9866 21.9839 14.7957C21.7333 14.6047 21.5424 14.3064 21.3872 13.8767C21.256 13.4829 21.1843 12.9817 21.1843 12.3611C21.1843 11.7405 21.256 11.2393 21.3872 10.8455C21.5304 10.4159 21.7333 10.1175 21.9839 9.92656C22.2345 9.73561 22.509 9.64014 22.8074 9.64014C23.1177 9.64014 23.4041 9.74755 23.6666 9.96236C23.9173 10.1652 24.1082 10.4755 24.2395 10.9052C24.3588 11.299 24.4304 11.7883 24.4304 12.373C24.4304 13.2681 24.2991 13.9245 24.0127 14.366C23.6189 14.9508 23.1415 15.0821 22.8074 15.0821ZM22.8074 10.3801C22.6761 10.3801 22.5568 10.4278 22.4374 10.5113C22.3539 10.571 22.2226 10.7261 22.1033 11.0722C21.9959 11.3825 21.9362 11.8121 21.9362 12.3492C21.9362 12.8862 21.9959 13.3158 22.1033 13.6261C22.2226 13.9722 22.3539 14.1274 22.4374 14.187C22.5568 14.2825 22.6761 14.3183 22.8074 14.3183C22.9506 14.3183 23.1535 14.2825 23.3802 13.9245C23.5115 13.7097 23.6786 13.2562 23.6786 12.3372C23.6786 11.836 23.6308 11.4183 23.5234 11.0961C23.4399 10.8216 23.3206 10.6068 23.1893 10.4994C23.0699 10.4278 22.9387 10.3801 22.8074 10.3801Z" fill="url(#paint14_linear_137_15149)"/>
<path d="M19.6084 8.61371V10.189H16.8993L16.8038 11.1199C17.1738 10.9409 17.5557 10.8573 17.9376 10.8573C18.2956 10.8573 18.6059 10.9289 18.8804 11.0602C19.1549 11.2034 19.3935 11.3944 19.5726 11.645C19.7635 11.8956 19.9067 12.1939 20.0022 12.5281C20.0977 12.8742 20.1454 13.2322 20.1454 13.626C20.1454 14.0676 20.0619 14.4972 19.8948 14.903C19.7277 15.3087 19.4651 15.6429 19.0952 15.8935C18.7372 16.1561 18.2837 16.2754 17.7466 16.2754C17.4005 16.2754 17.0783 16.2396 16.78 16.1561C16.4816 16.0845 16.1833 15.9174 15.873 15.6668C15.5746 15.4162 15.2882 15.0581 15.0376 14.5808L16.2668 13.6499C16.3503 13.9005 16.4936 14.1392 16.6964 14.3659C16.8874 14.5927 17.1499 14.7001 17.496 14.7001C17.7108 14.7001 17.9018 14.6404 18.0569 14.533C18.2121 14.4256 18.3314 14.2824 18.4149 14.0915C18.4985 13.9125 18.5343 13.7096 18.5343 13.5067C18.5343 13.2919 18.4866 13.089 18.3911 12.8981C18.2956 12.7071 18.1524 12.5639 17.9734 12.4565C17.7944 12.3491 17.5796 12.2894 17.3528 12.2894C16.8993 12.2894 16.4936 12.5042 16.1355 12.9219L15.2763 12.2297L15.682 8.58984H19.6084V8.61371Z" fill="url(#paint15_linear_137_15149)"/>
<path d="M17.7702 16.6574C17.3883 16.6574 17.0302 16.6097 16.708 16.5261C16.3619 16.4307 16.0039 16.2397 15.6578 15.9652C15.3237 15.6907 15.0014 15.285 14.727 14.7718C14.6434 14.6047 14.6792 14.4019 14.8344 14.2945L16.0636 13.3636C16.0875 13.3517 16.1113 13.3278 16.1352 13.3159C16.0516 13.3159 15.98 13.292 15.9084 13.2323L15.0492 12.5401C14.9537 12.4566 14.894 12.3373 14.9179 12.206L15.3237 8.56609C15.3475 8.37514 15.5027 8.23193 15.6936 8.23193H19.608C19.8109 8.23193 19.978 8.39901 19.978 8.60189V10.1772C19.978 10.3801 19.8109 10.5471 19.608 10.5471H18.5936C18.7607 10.583 18.9158 10.6426 19.071 10.7142C19.3932 10.8813 19.6796 11.1081 19.8944 11.4064C20.1092 11.6928 20.2763 12.027 20.3837 12.4208C20.4911 12.7908 20.5389 13.1965 20.5389 13.6261C20.5389 14.1154 20.4434 14.5928 20.2644 15.0463C20.0734 15.5117 19.7632 15.9056 19.3455 16.2039C18.9158 16.5023 18.3907 16.6574 17.7702 16.6574ZM15.5504 14.6883C15.7414 14.9866 15.9323 15.2134 16.1352 15.3924C16.3977 15.6072 16.6484 15.7504 16.899 15.8101C17.1615 15.8817 17.4599 15.9175 17.7821 15.9175C18.2475 15.9175 18.6175 15.8101 18.9158 15.5953C19.2261 15.3805 19.4409 15.106 19.5841 14.7599C19.7274 14.4019 19.8109 14.02 19.8109 13.6261C19.8109 13.2681 19.7632 12.934 19.6796 12.6237C19.5961 12.3253 19.4767 12.0747 19.3097 11.8599C19.1545 11.657 18.9755 11.5019 18.7488 11.3825C18.522 11.2751 18.2595 11.2155 17.973 11.2155C17.6389 11.2155 17.3167 11.2871 16.9944 11.4422C16.8751 11.5019 16.7319 11.4899 16.6245 11.4064C16.5171 11.3348 16.4574 11.2035 16.4693 11.0603L16.5648 10.1295C16.5887 9.93851 16.7438 9.7953 16.9348 9.7953H19.2619V8.95991H16.0516L15.6698 12.0866L16.1113 12.4447C16.4813 12.1105 16.899 11.9434 17.3644 11.9434C17.6628 11.9434 17.9372 12.015 18.1759 12.1583C18.4146 12.3015 18.6055 12.5043 18.7368 12.755C18.8562 12.9936 18.9158 13.2562 18.9158 13.5307C18.9158 13.7932 18.8681 14.0438 18.7607 14.2706C18.6533 14.5212 18.4862 14.7122 18.2714 14.8673C18.0446 15.0224 17.794 15.094 17.5076 15.094C17.066 15.094 16.6842 14.927 16.4216 14.6286C16.3142 14.5093 16.2187 14.378 16.1471 14.2467L15.5504 14.6883ZM16.3023 13.292C16.3381 13.292 16.3619 13.292 16.3977 13.3039C16.5171 13.3397 16.6006 13.4233 16.6364 13.5307C16.708 13.7336 16.8274 13.9364 16.9944 14.1274C17.1138 14.2706 17.2809 14.3303 17.5076 14.3303C17.6508 14.3303 17.7582 14.2945 17.8537 14.2348C17.9492 14.1632 18.0327 14.0796 18.0804 13.9603C18.1401 13.829 18.164 13.6858 18.164 13.5187C18.164 13.3636 18.1282 13.2204 18.0685 13.0891C18.0088 12.9698 17.9134 12.8743 17.794 12.7908C17.6747 12.7192 17.5315 12.6834 17.3644 12.6834C17.0183 12.6834 16.72 12.8504 16.4216 13.1846C16.3977 13.2323 16.35 13.2681 16.3023 13.292ZM17.2451 10.5591V10.571C17.2689 10.571 17.2809 10.5591 17.3047 10.5591H17.2451Z" fill="url(#paint16_linear_137_15149)"/>
<path d="M12.0881 37.4467C12.0881 36.9693 12.1478 36.5516 12.2552 36.2055C12.3746 35.8594 12.5178 35.573 12.7087 35.3701C12.8997 35.1673 13.1025 35.0121 13.3412 34.9166C13.568 34.8212 13.7947 34.7734 14.0334 34.7734C14.2959 34.7734 14.5346 34.8212 14.7733 34.9286C15.012 35.036 15.2149 35.1911 15.3939 35.4059C15.5729 35.6208 15.7161 35.8952 15.8235 36.2413C15.9309 36.5874 15.9787 36.9812 15.9787 37.4467C15.9787 37.9002 15.9309 38.3059 15.8235 38.652C15.7161 38.9981 15.5729 39.2726 15.3939 39.4874C15.2149 39.7022 15.0001 39.8693 14.7733 39.9648C14.5346 40.0722 14.2959 40.1199 14.0334 40.1199C13.8066 40.1199 13.568 40.0722 13.3531 39.9767C13.1264 39.8812 12.9235 39.738 12.7206 39.5232C12.5297 39.3084 12.3746 39.0339 12.2552 38.6878C12.1359 38.3417 12.0881 37.936 12.0881 37.4467ZM13.1861 37.4467C13.1861 37.8405 13.2219 38.1627 13.3054 38.4014C13.389 38.6401 13.4964 38.8072 13.6157 38.9026C13.747 38.9981 13.8782 39.0458 14.0215 39.0458C14.2601 39.0458 14.463 38.9146 14.6301 38.664C14.7972 38.4133 14.8688 37.9956 14.8688 37.4467C14.8688 37.0767 14.833 36.7664 14.7494 36.5278C14.6778 36.2891 14.5704 36.1101 14.4392 36.0026C14.3079 35.8952 14.1647 35.8475 14.0215 35.8475C13.8782 35.8475 13.747 35.8952 13.6157 35.9907C13.4844 36.0862 13.377 36.2533 13.3054 36.4919C13.2219 36.7426 13.1861 37.0529 13.1861 37.4467Z" fill="url(#paint17_linear_137_15149)"/>
<path d="M8.28149 37.4467C8.28149 36.9693 8.34116 36.5516 8.44857 36.2055C8.56791 35.8594 8.71112 35.573 8.90207 35.3701C9.09301 35.1673 9.29589 35.0121 9.53457 34.9166C9.76132 34.8212 9.98807 34.7734 10.2268 34.7734C10.4893 34.7734 10.728 34.8212 10.9667 34.9286C11.2053 35.036 11.4082 35.1911 11.5872 35.4059C11.7663 35.6208 11.9095 35.8952 12.0169 36.2413C12.1243 36.5874 12.172 36.9812 12.172 37.4467C12.172 37.9002 12.1243 38.3059 12.0169 38.652C11.9095 38.9981 11.7663 39.2726 11.5872 39.4874C11.4082 39.7022 11.1934 39.8693 10.9667 39.9648C10.728 40.0722 10.4893 40.1199 10.2268 40.1199C10 40.1199 9.76132 40.0722 9.54651 39.9767C9.31976 39.8812 9.11688 39.738 8.914 39.5232C8.72306 39.3084 8.56791 39.0339 8.44857 38.6878C8.34116 38.3417 8.28149 37.936 8.28149 37.4467ZM9.37943 37.4467C9.37943 37.8405 9.41523 38.1627 9.49877 38.4014C9.58231 38.6401 9.68972 38.8072 9.80906 38.9026C9.94033 38.9981 10.0716 39.0458 10.2148 39.0458C10.4535 39.0458 10.6564 38.9146 10.8235 38.664C10.9905 38.4133 11.0621 37.9956 11.0621 37.4467C11.0621 37.0767 11.0263 36.7664 10.9428 36.5278C10.8712 36.2891 10.7638 36.1101 10.6325 36.0026C10.5012 35.8952 10.358 35.8475 10.2148 35.8475C10.0716 35.8475 9.94033 35.8952 9.80906 35.9907C9.67778 36.0862 9.57038 36.2533 9.49877 36.4919C9.41523 36.7426 9.37943 37.0529 9.37943 37.4467Z" fill="url(#paint18_linear_137_15149)"/>
<path d="M4.47388 37.4467C4.47388 36.9693 4.53355 36.5516 4.64095 36.2055C4.7603 35.8594 4.9035 35.573 5.09445 35.3701C5.2854 35.1673 5.48828 35.0121 5.72696 34.9166C5.95371 34.8212 6.18045 34.7734 6.41914 34.7734C6.68169 34.7734 6.92037 34.8212 7.15905 34.9286C7.39773 35.036 7.60061 35.1911 7.77962 35.4059C7.95863 35.6208 8.10184 35.8952 8.20925 36.2413C8.31666 36.5874 8.36439 36.9812 8.36439 37.4467C8.36439 37.9002 8.31666 38.3059 8.20925 38.652C8.10184 38.9981 7.95863 39.2726 7.77962 39.4874C7.60061 39.7022 7.3858 39.8693 7.15905 39.9648C6.92037 40.0722 6.68169 40.1199 6.41914 40.1199C6.19239 40.1199 5.95371 40.0722 5.73889 39.9767C5.51214 39.8812 5.30926 39.738 5.10638 39.5232C4.91544 39.3084 4.7603 39.0339 4.64095 38.6878C4.53355 38.3417 4.47388 37.936 4.47388 37.4467ZM5.57181 37.4467C5.57181 37.8405 5.60762 38.1627 5.69116 38.4014C5.77469 38.6401 5.8821 38.8072 6.00144 38.9026C6.13272 38.9981 6.26399 39.0458 6.4072 39.0458C6.64588 39.0458 6.84876 38.9146 7.01584 38.664C7.18292 38.4133 7.25452 37.9956 7.25452 37.4467C7.25452 37.0767 7.21872 36.7664 7.13518 36.5278C7.06358 36.2891 6.95617 36.1101 6.8249 36.0026C6.69362 35.8952 6.55041 35.8475 6.4072 35.8475C6.26399 35.8475 6.13272 35.8952 6.00144 35.9907C5.87017 36.0862 5.76276 36.2533 5.69116 36.4919C5.61955 36.7426 5.57181 37.0529 5.57181 37.4467Z" fill="url(#paint19_linear_137_15149)"/>
<path d="M4.23571 34.8926V35.9666H2.39786L2.33819 36.5992C2.5888 36.4798 2.85135 36.4201 3.1139 36.4201C3.35258 36.4201 3.5674 36.4679 3.75834 36.5634C3.94929 36.6588 4.10443 36.7901 4.23571 36.9572C4.36698 37.1243 4.46246 37.3271 4.52213 37.5658C4.59373 37.8045 4.6176 38.0432 4.6176 38.3177C4.6176 38.616 4.55793 38.9144 4.45052 39.1889C4.33118 39.4633 4.15217 39.6901 3.91349 39.8691C3.66287 40.0481 3.36452 40.1316 2.99456 40.1316C2.75588 40.1316 2.54107 40.1078 2.33819 40.0481C2.13531 40.0004 1.93243 39.881 1.71761 39.714C1.51473 39.5469 1.32379 39.2963 1.14478 38.974L1.98016 38.3415C2.03983 38.5086 2.13531 38.6757 2.26658 38.8308C2.39786 38.986 2.57687 39.0576 2.81555 39.0576C2.95876 39.0576 3.09003 39.0218 3.19744 38.9502C3.30485 38.8786 3.38839 38.7831 3.44806 38.6518C3.50773 38.5325 3.5316 38.3893 3.5316 38.2461C3.5316 38.1029 3.49579 37.9596 3.43612 37.8403C3.37645 37.709 3.28098 37.6136 3.1497 37.5419C3.03036 37.4703 2.88715 37.4345 2.72008 37.4345C2.40979 37.4345 2.13531 37.5778 1.88469 37.8642L1.29992 37.3868L1.5744 34.9045H4.23571V34.8926Z" fill="url(#paint20_linear_137_15149)"/>
</g>
<g filter="url(#filter0_d_137_15149)">
<rect x="34" y="4" width="28" height="43" fill="#E3E3E3"/>
</g>
<rect x="34" y="4" width="4" height="43" fill="#D8C9B1"/>
<rect x="58" y="4" width="4" height="43" fill="#D8C9B1"/>
<path d="M49.1053 29.0281C52.9419 29.0281 55 26.6611 55 23.1248C55 19.617 52.9419 17.25 49.1053 17.25H43.363V25.2922H41V29.0281H43.363V30.5111H41V31.3667H43.363V36.5H47.0472V31.3667H51.6969V30.5111H47.0472V29.0281H49.1053ZM47.0472 20.9859H48.6733C50.1216 20.9859 51.0363 21.4993 51.0363 23.0963C51.0363 24.7789 50.1216 25.2922 48.6733 25.2922H47.0472V20.9859Z" fill="#A86A5A"/>
<defs>
<filter id="filter0_d_137_15149" x="30" y="0" width="36" height="51" filterUnits="userSpaceOnUse" color-interpolation-filters="sRGB">
<feFlood flood-opacity="0" result="BackgroundImageFix"/>
<feColorMatrix in="SourceAlpha" type="matrix" values="0 0 0 0 0 0 0 0 0 0 0 0 0 0 0 0 0 0 127 0" result="hardAlpha"/>
<feOffset/>
<feGaussianBlur stdDeviation="2"/>
<feComposite in2="hardAlpha" operator="out"/>
<feColorMatrix type="matrix" values="0 0 0 0 0 0 0 0 0 0 0 0 0 0 0 0 0 0 0.25 0"/>
<feBlend mode="normal" in2="BackgroundImageFix" result="effect1_dropShadow_137_15149"/>
<feBlend mode="normal" in="SourceGraphic" in2="effect1_dropShadow_137_15149" result="shape"/>
</filter>
<linearGradient id="paint0_linear_137_15149" x1="13.0903" y1="-7.09031" x2="78.9065" y2="58.7258" gradientUnits="userSpaceOnUse">
<stop stop-color="#F0F0F0"/>
<stop offset="1" stop-color="#DCDCDC"/>
</linearGradient>
<linearGradient id="paint1_linear_137_15149" x1="20.2154" y1="2.88483" x2="66.0813" y2="48.7507" gradientUnits="userSpaceOnUse">
<stop stop-color="#DBD5C1"/>
<stop offset="1" stop-color="#C2885B"/>
</linearGradient>
<linearGradient id="paint2_linear_137_15149" x1="17.1003" y1="25.8178" x2="37.6471" y2="25.8178" gradientUnits="userSpaceOnUse">
<stop stop-color="#DBD5C1"/>
<stop offset="1" stop-color="#C2885B"/>
</linearGradient>
<linearGradient id="paint3_linear_137_15149" x1="34.1549" y1="25.9934" x2="58.6343" y2="50.4729" gradientUnits="userSpaceOnUse">
<stop stop-color="#AE917E"/>
<stop offset="1" stop-color="#A87165"/>
</linearGradient>
<linearGradient id="paint4_linear_137_15149" x1="30.4478" y1="19.199" x2="51.6941" y2="40.4453" gradientUnits="userSpaceOnUse">
<stop stop-color="#AE917E"/>
<stop offset="1" stop-color="#A87165"/>
</linearGradient>
<linearGradient id="paint5_linear_137_15149" x1="77.1071" y1="33.1662" x2="83.908" y2="39.9672" gradientUnits="userSpaceOnUse">
<stop stop-color="#DCDCDC"/>
<stop offset="1" stop-color="#AAAAAA"/>
</linearGradient>
<linearGradient id="paint6_linear_137_15149" x1="54.386" y1="30.0059" x2="77.0732" y2="52.693" gradientUnits="userSpaceOnUse">
<stop stop-color="#AE917E"/>
<stop offset="1" stop-color="#A87165"/>
</linearGradient>
<linearGradient id="paint7_linear_137_15149" x1="59.3667" y1="-0.0557826" x2="79.0641" y2="19.6415" gradientUnits="userSpaceOnUse">
<stop stop-color="#AE917E"/>
<stop offset="1" stop-color="#A87165"/>
</linearGradient>
<linearGradient id="paint8_linear_137_15149" x1="5.86683" y1="9.13068" x2="11.093" y2="14.3569" gradientUnits="userSpaceOnUse">
<stop stop-color="#AE917E"/>
<stop offset="1" stop-color="#A87165"/>
</linearGradient>
<linearGradient id="paint9_linear_137_15149" x1="31.1211" y1="12.3632" x2="36.8413" y2="12.3632" gradientUnits="userSpaceOnUse">
<stop stop-color="#F0F0F0"/>
<stop offset="1" stop-color="#C8C8C8"/>
</linearGradient>
<linearGradient id="paint10_linear_137_15149" x1="30.7493" y1="12.3636" x2="37.2152" y2="12.3636" gradientUnits="userSpaceOnUse">
<stop stop-color="#AE917E"/>
<stop offset="1" stop-color="#A87165"/>
</linearGradient>
<linearGradient id="paint11_linear_137_15149" x1="25.534" y1="12.3632" x2="31.2542" y2="12.3632" gradientUnits="userSpaceOnUse">
<stop stop-color="#F0F0F0"/>
<stop offset="1" stop-color="#C8C8C8"/>
</linearGradient>
<linearGradient id="paint12_linear_137_15149" x1="25.1622" y1="12.3636" x2="31.6281" y2="12.3636" gradientUnits="userSpaceOnUse">
<stop stop-color="#AE917E"/>
<stop offset="1" stop-color="#A87165"/>
</linearGradient>
<linearGradient id="paint13_linear_137_15149" x1="19.9491" y1="12.3632" x2="25.6693" y2="12.3632" gradientUnits="userSpaceOnUse">
<stop stop-color="#F0F0F0"/>
<stop offset="1" stop-color="#C8C8C8"/>
</linearGradient>
<linearGradient id="paint14_linear_137_15149" x1="19.5761" y1="12.3636" x2="26.042" y2="12.3636" gradientUnits="userSpaceOnUse">
<stop stop-color="#AE917E"/>
<stop offset="1" stop-color="#A87165"/>
</linearGradient>
<linearGradient id="paint15_linear_137_15149" x1="15.0582" y1="12.447" x2="20.1663" y2="12.447" gradientUnits="userSpaceOnUse">
<stop stop-color="#F0F0F0"/>
<stop offset="1" stop-color="#C8C8C8"/>
</linearGradient>
<linearGradient id="paint16_linear_137_15149" x1="14.685" y1="12.4472" x2="20.5388" y2="12.4472" gradientUnits="userSpaceOnUse">
<stop stop-color="#AE917E"/>
<stop offset="1" stop-color="#A87165"/>
</linearGradient>
<linearGradient id="paint17_linear_137_15149" x1="12.0832" y1="37.4541" x2="15.9795" y2="37.4541" gradientUnits="userSpaceOnUse">
<stop stop-color="#DCDCDC"/>
<stop offset="1" stop-color="#AAAAAA"/>
</linearGradient>
<linearGradient id="paint18_linear_137_15149" x1="8.2777" y1="37.4541" x2="12.1741" y2="37.4541" gradientUnits="userSpaceOnUse">
<stop stop-color="#DCDCDC"/>
<stop offset="1" stop-color="#AAAAAA"/>
</linearGradient>
<linearGradient id="paint19_linear_137_15149" x1="4.47125" y1="37.4541" x2="8.36764" y2="37.4541" gradientUnits="userSpaceOnUse">
<stop stop-color="#DCDCDC"/>
<stop offset="1" stop-color="#AAAAAA"/>
</linearGradient>
<linearGradient id="paint20_linear_137_15149" x1="1.14103" y1="37.5111" x2="4.62039" y2="37.5111" gradientUnits="userSpaceOnUse">
<stop stop-color="#DCDCDC"/>
<stop offset="1" stop-color="#AAAAAA"/>
</linearGradient>
<clipPath id="clip0_137_15149">
<rect width="92" height="39.6332" fill="white" transform="translate(0 6)"/>
</clipPath>
</defs>
</svg>
