<svg viewBox="0 0 93 51" fill="none" xmlns="http://www.w3.org/2000/svg">
<g clip-path="url(#clip0_137_15196)">
<path d="M92.8506 6H-0.000976562V46H92.8506V6Z" fill="url(#paint0_linear_137_15196)"/>
<path d="M69.8343 6H17.2598V46H69.8343V6Z" fill="url(#paint1_linear_137_15196)"/>
<path d="M38.0005 6H17.2598V46H38.0005V6Z" fill="url(#paint2_linear_137_15196)"/>
<path d="M37.999 23.5246H39.1312V19.9715C39.1312 19.9715 38.6374 19.4054 38.6856 17.9961C38.7337 16.5869 39.4082 14.5153 39.6732 14.0696C39.9382 13.624 40.3477 13.2145 40.4802 13.2385C40.6127 13.2506 41.6485 13.8408 41.6124 14.455C41.5763 15.0693 41.5763 15.0693 41.5763 15.0693C41.5763 15.0693 41.8412 15.7197 41.4438 16.0449C41.4438 16.0449 41.6847 16.2979 41.6606 17.1771H42.1785C42.1785 17.1771 42.311 16.2617 42.4073 16.0449C42.4073 16.0449 42.2748 15.3343 42.4073 14.997C42.5398 14.6598 42.6362 14.3948 42.7807 14.2985C42.9132 14.2021 42.4073 13.7203 42.7807 13.2385C43.1541 12.7568 43.6479 13.2385 43.6479 13.2385C43.6479 13.2385 44.1177 13.359 44.2863 13.4915C44.2863 13.4915 45.0571 13.3951 45.3221 13.7565C45.3221 13.7565 46.2977 13.7926 46.093 14.6237C45.8882 15.4547 45.7919 15.4307 45.7557 15.6595C45.7196 15.8883 45.7196 16.4303 45.4185 16.7917C45.1174 17.1651 44.9487 17.3216 44.9487 17.3216L44.9126 17.6228L48.5621 17.9239V23.103C48.5621 23.103 50.0677 23.0308 49.9713 24.3798C49.875 25.7167 52.1153 25.5481 52.4766 26.5598C52.85 27.5595 51.6696 28.0654 52.1393 29.5348C52.1393 29.5348 52.0671 29.6071 51.6335 29.8721C51.1999 30.1371 50.7181 30.7272 50.7181 30.7272C50.7181 30.7272 50.959 30.8597 51.0553 31.0645H59.4383V35.2801H63.7021V39.0741H37.999V23.5246Z" fill="url(#paint3_linear_137_15196)"/>
<path d="M8.59839 15.1421C10.4477 15.1421 11.9468 13.643 11.9468 11.7937C11.9468 9.94444 10.4477 8.44531 8.59839 8.44531C6.74913 8.44531 5.25 9.94444 5.25 11.7937C5.25 13.643 6.74913 15.1421 8.59839 15.1421Z" fill="url(#paint4_linear_137_15196)"/>
<path d="M44.2031 39.0745L45.7568 33.9556H24.0164C24.0164 33.9556 23.5105 37.0149 22.7517 38.0748C22.3904 38.0868 22.0531 38.0387 21.74 37.9664C21.74 37.9664 22.1375 36.9306 22.3181 36.5933C22.5349 36.2199 23.3419 35.148 23.3419 35.148C19.7285 33.3172 18.7891 35.8225 18.7891 35.8225V40.7728C22.5349 44.7234 25.7508 41.8448 25.7508 41.8448C25.6906 41.1582 25.9435 40.0501 26.2567 39.0384L44.2031 39.0745Z" fill="url(#paint5_linear_137_15196)"/>
<path d="M26.9912 12.0462C26.9912 11.3355 27.0876 10.7213 27.2682 10.2033C27.4609 9.68542 27.7018 9.27591 28.015 8.96275C28.3282 8.64959 28.6654 8.43279 29.0388 8.28825C29.4122 8.15576 29.7855 8.0835 30.171 8.0835C30.5925 8.0835 30.99 8.15576 31.3754 8.31234C31.7609 8.46892 32.0981 8.69777 32.3992 9.02297C32.7003 9.34818 32.9292 9.75769 33.1098 10.2636C33.2785 10.7694 33.3748 11.3717 33.3748 12.0462C33.3748 12.7207 33.2905 13.3229 33.1219 13.8288C32.9533 14.3346 32.7124 14.7562 32.4113 15.0814C32.1102 15.4066 31.7729 15.6354 31.3875 15.792C31.0021 15.9486 30.6046 16.0209 30.183 16.0209C29.7976 16.0209 29.4242 15.9486 29.0629 15.8161C28.6895 15.6836 28.3522 15.4548 28.0391 15.1416C27.7259 14.8285 27.473 14.4189 27.2803 13.901C27.0876 13.3711 26.9912 12.7568 26.9912 12.0462ZM28.7979 12.0462C28.7979 12.6363 28.8702 13.1061 29.0027 13.4554C29.1351 13.8167 29.3158 14.0576 29.5206 14.2021C29.7253 14.3467 29.9542 14.4189 30.183 14.4189C30.5805 14.4189 30.9057 14.2262 31.1707 13.8528C31.4357 13.4674 31.5681 12.8652 31.5681 12.0462C31.5681 11.4921 31.5079 11.0344 31.3754 10.6851C31.255 10.3238 31.0743 10.0708 30.8696 9.91427C30.6528 9.75769 30.4239 9.67338 30.183 9.67338C29.9542 9.67338 29.7253 9.74565 29.5206 9.89018C29.3158 10.0347 29.1351 10.2877 29.0027 10.6369C28.8702 10.9862 28.7979 11.456 28.7979 12.0462Z" fill="url(#paint6_linear_137_15196)"/>
<path d="M30.183 16.3821C29.7615 16.3821 29.3399 16.3099 28.9304 16.1533C28.5088 15.9967 28.1234 15.7438 27.7741 15.3945C27.4248 15.0452 27.1358 14.5755 26.931 14.0094C26.7262 13.4553 26.6299 12.7929 26.6299 12.034C26.6299 11.2873 26.7383 10.6128 26.931 10.0587C27.1358 9.49265 27.4248 9.02291 27.7741 8.67362C28.1234 8.32432 28.5088 8.07139 28.9304 7.91481C29.7976 7.58961 30.725 7.6137 31.532 7.9389C31.9656 8.10752 32.351 8.38455 32.6883 8.73384C33.0255 9.09518 33.2905 9.55287 33.4712 10.1069C33.6519 10.6489 33.7482 11.2993 33.7482 12.01C33.7482 12.7206 33.6519 13.371 33.4712 13.913C33.2785 14.4671 33.0135 14.9368 32.6883 15.2981C32.351 15.6595 31.9656 15.9365 31.532 16.1051C31.0984 16.2978 30.6528 16.3821 30.183 16.3821ZM30.183 8.45681C29.8458 8.45681 29.5206 8.51704 29.1833 8.63748C28.8581 8.75793 28.5691 8.95064 28.292 9.21562C28.0271 9.4806 27.7982 9.85398 27.6296 10.3117C27.461 10.7814 27.3646 11.3596 27.3646 12.034C27.3646 12.6965 27.4489 13.2746 27.6296 13.7444C27.7982 14.2021 28.0271 14.5755 28.292 14.8525C28.5691 15.1295 28.8702 15.3222 29.1833 15.4427C29.8699 15.6956 30.6046 15.6715 31.2429 15.4186C31.5682 15.2861 31.8693 15.0813 32.1222 14.8043C32.3872 14.5273 32.5919 14.1539 32.7485 13.6962C32.9051 13.2265 32.9894 12.6724 32.9894 12.034C32.9894 11.3957 32.9051 10.8416 32.7485 10.3719C32.5919 9.91421 32.3872 9.54083 32.1222 9.2638C31.8693 8.98678 31.5682 8.78202 31.2429 8.64953C30.9057 8.52908 30.5564 8.45681 30.183 8.45681ZM30.183 14.7923C29.8699 14.7923 29.5808 14.6959 29.3038 14.5152C29.0268 14.3346 28.8099 14.0214 28.6413 13.5878C28.4847 13.1783 28.4125 12.6724 28.4125 12.0461C28.4125 11.4077 28.4847 10.9019 28.6413 10.5044C28.8099 10.0708 29.0268 9.76967 29.3038 9.57696C29.5808 9.39629 29.8699 9.29993 30.183 9.29993C30.5082 9.29993 30.8214 9.40834 31.0984 9.61309C31.3754 9.81785 31.5802 10.131 31.7368 10.5646C31.8813 10.9621 31.9536 11.468 31.9536 12.0581C31.9536 12.9735 31.797 13.636 31.4838 14.0816C31.0623 14.6718 30.5444 14.7923 30.183 14.7923ZM30.183 10.0347C30.0265 10.0347 29.8819 10.0828 29.7374 10.1792C29.5928 10.2755 29.4724 10.4683 29.364 10.7573C29.2436 11.0705 29.1833 11.5041 29.1833 12.034C29.1833 12.5761 29.2436 12.9976 29.364 13.3108C29.4724 13.5878 29.6049 13.7926 29.7374 13.8889C29.8819 13.9853 30.0265 14.0334 30.183 14.0334C30.3517 14.0334 30.6046 13.9853 30.8696 13.6239C31.0864 13.3108 31.1948 12.7688 31.1948 12.034C31.1948 11.5282 31.1346 11.1066 31.0261 10.7935C30.9298 10.5044 30.7973 10.3117 30.6528 10.1912C30.4962 10.0949 30.3396 10.0347 30.183 10.0347Z" fill="url(#paint7_linear_137_15196)"/>
<path d="M25.8711 8.25212V9.842H22.86L22.7516 10.7815C23.1611 10.6008 23.5827 10.5165 24.0163 10.5165C24.4137 10.5165 24.763 10.5888 25.0762 10.7213C25.3894 10.8658 25.6423 11.0585 25.847 11.3114C26.0518 11.5644 26.2204 11.8655 26.3288 12.2148C26.4372 12.5641 26.4975 12.9375 26.4975 13.3229C26.4975 13.7685 26.4011 14.2021 26.2204 14.6116C26.0277 15.0212 25.7386 15.3584 25.3291 15.6113C24.9196 15.8763 24.4258 15.9968 23.8236 15.9968C23.4381 15.9968 23.0768 15.9606 22.7395 15.8763C22.4023 15.792 22.0651 15.6354 21.7278 15.3825C21.3906 15.1296 21.0774 14.7682 20.7883 14.2864L22.1614 13.347C22.2578 13.5999 22.4143 13.8408 22.6311 14.0696C22.8479 14.2985 23.137 14.4069 23.5224 14.4069C23.7633 14.4069 23.9681 14.3467 24.1488 14.2383C24.3294 14.1299 24.4619 13.9853 24.5462 13.7926C24.6305 13.6119 24.6787 13.4072 24.6787 13.2024C24.6787 12.9856 24.6305 12.7809 24.5221 12.5882C24.4137 12.3954 24.2572 12.2509 24.0645 12.1425C23.8597 12.0341 23.6308 11.9739 23.3659 11.9739C22.86 11.9739 22.4023 12.1907 22.0048 12.6122L21.0413 11.9137L21.499 8.22803H25.8711V8.25212Z" fill="url(#paint8_linear_137_15196)"/>
<path d="M23.8355 16.3822C23.426 16.3822 23.0285 16.334 22.6672 16.2497C22.2818 16.1654 21.8963 15.9727 21.523 15.6836C21.1496 15.4066 20.8003 14.9971 20.4871 14.4792C20.3908 14.3105 20.4269 14.0937 20.5955 13.9733L21.9686 13.0338C21.9927 13.0218 22.0047 13.0097 22.0288 12.9977C21.9566 12.9977 21.8723 12.9736 21.8 12.9254L20.8364 12.2268C20.728 12.1425 20.6678 12.01 20.6798 11.8775L21.1375 8.1919C21.1616 7.99919 21.3182 7.8667 21.5109 7.8667H25.871C26.0758 7.8667 26.2444 8.03532 26.2444 8.24008V9.82996C26.2444 10.0347 26.0758 10.2033 25.871 10.2033H24.7268C24.9075 10.2395 25.0761 10.2997 25.2327 10.372C25.594 10.5406 25.8951 10.7694 26.136 11.0585C26.3769 11.3476 26.5576 11.6969 26.678 12.0823C26.7985 12.4677 26.8587 12.8772 26.8587 13.3108C26.8587 13.8167 26.7503 14.2985 26.5455 14.7562C26.3287 15.2259 25.9794 15.6234 25.5218 15.9245C25.0761 16.2377 24.498 16.3822 23.8355 16.3822ZM21.3182 14.4069C21.523 14.696 21.7398 14.9248 21.9686 15.0934C22.2697 15.3102 22.5588 15.4548 22.8358 15.527C23.1369 15.5993 23.4742 15.6354 23.8355 15.6354C24.3534 15.6354 24.787 15.527 25.1363 15.3102C25.4856 15.0934 25.7265 14.8164 25.8831 14.4671C26.0517 14.1058 26.124 13.7324 26.124 13.3349C26.124 12.9736 26.0758 12.6484 25.9794 12.3352C25.8831 12.0341 25.7506 11.7812 25.5699 11.5644C25.4013 11.3596 25.1845 11.191 24.9316 11.0826C24.6786 10.9622 24.3775 10.9019 24.0282 10.9019C23.6428 10.9019 23.2694 10.9862 22.9081 11.1308C22.7876 11.179 22.6431 11.1669 22.5347 11.0826C22.4263 10.9983 22.3661 10.8778 22.3902 10.7333L22.4986 9.79383C22.5227 9.60112 22.6792 9.45658 22.872 9.45658H25.5097V8.61346H21.8482L21.4627 11.745L21.9927 12.1305C22.4022 11.7812 22.872 11.6005 23.3899 11.6005C23.7151 11.6005 24.0041 11.6728 24.2691 11.8173C24.5341 11.9619 24.7389 12.1666 24.8834 12.4075C25.0159 12.6484 25.0882 12.9134 25.0882 13.2024C25.0882 13.4674 25.0279 13.7204 24.9195 13.9612C24.7991 14.2142 24.6184 14.4069 24.3775 14.5635C24.1366 14.708 23.8596 14.7803 23.5585 14.7803C23.0767 14.7803 22.6792 14.6237 22.4022 14.3226C22.2697 14.1901 22.1613 14.0456 22.065 13.901L21.3182 14.4069ZM22.1734 12.9856C22.2095 12.9856 22.2456 12.9856 22.2818 12.9977C22.3902 13.0338 22.4745 13.1181 22.5227 13.2145C22.607 13.4192 22.7395 13.624 22.9201 13.8167C23.0647 13.9612 23.2694 14.0456 23.5344 14.0456C23.703 14.0456 23.8476 14.0094 23.956 13.9372C24.0764 13.8649 24.1607 13.7685 24.2089 13.6481C24.2691 13.5156 24.3053 13.3711 24.3053 13.2145C24.3053 13.0579 24.2691 12.9254 24.1969 12.7929C24.1246 12.6725 24.0282 12.5641 23.8837 12.4918C23.7392 12.4075 23.5705 12.3714 23.3658 12.3714C22.9683 12.3714 22.607 12.54 22.2818 12.9013C22.2577 12.9375 22.2095 12.9616 22.1734 12.9856ZM23.1972 10.2154V10.2395C23.2333 10.2274 23.2694 10.2274 23.3056 10.2154H23.1972Z" fill="url(#paint9_linear_137_15196)"/>
<path d="M81.2518 40.4473C84.478 40.4473 87.0934 38.8349 87.0934 36.846C87.0934 34.857 84.478 33.2446 81.2518 33.2446C78.0255 33.2446 75.4102 34.857 75.4102 36.846C75.4102 38.8349 78.0255 40.4473 81.2518 40.4473Z" fill="url(#paint10_linear_137_15196)"/>
<path d="M7.69476 32.6911V34.281H5.35811L5.2738 35.2204C5.58696 35.0398 5.92421 34.9555 6.26145 34.9555C6.57461 34.9555 6.83959 35.0277 7.08048 35.1602C7.32138 35.3048 7.51409 35.4975 7.68271 35.7504C7.83929 36.0033 7.97178 36.3045 8.05609 36.6537C8.14041 37.003 8.17654 37.3764 8.17654 37.7618C8.17654 38.2075 8.10427 38.6411 7.95974 39.0506C7.8152 39.4601 7.58636 39.7974 7.2732 40.0503C6.96004 40.3153 6.57461 40.4357 6.11692 40.4357C5.8158 40.4357 5.53878 40.3996 5.28584 40.3153C5.03291 40.231 4.76793 40.0744 4.50295 39.8215C4.23797 39.5685 3.99708 39.2072 3.78027 38.7254L4.8402 37.7859C4.91246 38.0389 5.04495 38.2798 5.20153 38.5086C5.37016 38.7375 5.599 38.8459 5.88807 38.8459C6.06874 38.8459 6.23736 38.7856 6.36986 38.6772C6.50235 38.5688 6.61075 38.4243 6.68301 38.2316C6.75528 38.0509 6.79141 37.8462 6.79141 37.6414C6.79141 37.4246 6.75528 37.2198 6.67097 37.0271C6.58666 36.8344 6.46621 36.6899 6.30963 36.5815C6.15305 36.4731 5.97238 36.4129 5.76763 36.4129C5.37016 36.4129 5.02086 36.6297 4.71975 37.0512L3.97299 36.3526L4.32228 32.667H7.69476V32.6911Z" fill="url(#paint11_linear_137_15196)"/>
<path d="M8.5498 36.4851C8.5498 35.7745 8.62207 35.1602 8.76661 34.6423C8.91114 34.1244 9.10385 33.7149 9.34475 33.4017C9.58564 33.0886 9.85062 32.8718 10.1397 32.7272C10.4288 32.5947 10.7178 32.5225 11.0069 32.5225C11.3321 32.5225 11.6453 32.5947 11.9343 32.7513C12.2234 32.9079 12.4884 33.1367 12.7172 33.4619C12.9461 33.7871 13.1267 34.1967 13.2592 34.7025C13.3917 35.2084 13.464 35.8106 13.464 36.4851C13.464 37.1596 13.3917 37.7618 13.2592 38.2677C13.1267 38.7736 12.9461 39.1951 12.7172 39.5204C12.4884 39.8456 12.2234 40.0744 11.9223 40.231C11.6332 40.3876 11.3201 40.4598 10.9949 40.4598C10.7058 40.4598 10.4167 40.3876 10.1276 40.2551C9.83857 40.1226 9.57359 39.8937 9.3327 39.5806C9.09181 39.2674 8.88705 38.8579 8.74252 38.34C8.63412 37.81 8.5498 37.1958 8.5498 36.4851ZM9.94697 36.4851C9.94697 37.0753 9.99515 37.545 10.1036 37.8943C10.212 38.2557 10.3444 38.4966 10.501 38.6411C10.6576 38.7856 10.8383 38.8579 11.0189 38.8579C11.3201 38.8579 11.585 38.6652 11.7898 38.2918C11.9946 37.9064 12.103 37.3042 12.103 36.4851C12.103 35.9311 12.0548 35.4734 11.9584 35.1241C11.8621 34.7628 11.7296 34.5098 11.5609 34.3532C11.3923 34.1967 11.2237 34.1123 11.031 34.1123C10.8503 34.1123 10.6817 34.1846 10.5131 34.3291C10.3565 34.4737 10.212 34.7266 10.1156 35.0759C10.0072 35.4252 9.94697 35.8949 9.94697 36.4851Z" fill="url(#paint12_linear_137_15196)"/>
<path d="M87.4901 43.4102H43.3347L45.045 39.9414H89.2004L87.4901 43.4102Z" fill="url(#paint13_linear_137_15196)"/>
<path d="M88.5387 11.0224H49.6709L51.1765 8.62549H90.0322L88.5387 11.0224Z" fill="url(#paint14_linear_137_15196)"/>
</g>
<g filter="url(#filter0_d_137_15196)">
<rect x="32" y="4" width="28" height="43" fill="#D7EFE8"/>
</g>
<rect x="32" y="4" width="4" height="43" fill="#A0DBC9"/>
<rect x="56" y="4" width="4" height="43" fill="#A0DBC9"/>
<path d="M47.1053 27.7781C50.9419 27.7781 53 25.4111 53 21.8748C53 18.367 50.9419 16 47.1053 16H41.363V24.0422H39V27.7781H41.363V29.2611H39V30.1167H41.363V35.25H45.0472V30.1167H49.6969V29.2611H45.0472V27.7781H47.1053ZM45.0472 19.7359H46.6733C48.1216 19.7359 49.0363 20.2493 49.0363 21.8463C49.0363 23.5289 48.1216 24.0422 46.6733 24.0422H45.0472V19.7359Z" fill="#7D98A1"/>
<defs>
<filter id="filter0_d_137_15196" x="28" y="0" width="36" height="51" filterUnits="userSpaceOnUse" color-interpolation-filters="sRGB">
<feFlood flood-opacity="0" result="BackgroundImageFix"/>
<feColorMatrix in="SourceAlpha" type="matrix" values="0 0 0 0 0 0 0 0 0 0 0 0 0 0 0 0 0 0 127 0" result="hardAlpha"/>
<feOffset/>
<feGaussianBlur stdDeviation="2"/>
<feComposite in2="hardAlpha" operator="out"/>
<feColorMatrix type="matrix" values="0 0 0 0 0 0 0 0 0 0 0 0 0 0 0 0 0 0 0.25 0"/>
<feBlend mode="normal" in2="BackgroundImageFix" result="effect1_dropShadow_137_15196"/>
<feBlend mode="normal" in="SourceGraphic" in2="effect1_dropShadow_137_15196" result="shape"/>
</filter>
<linearGradient id="paint0_linear_137_15196" x1="13.2105" y1="-7.21148" x2="79.6359" y2="59.2139" gradientUnits="userSpaceOnUse">
<stop stop-color="#F0F0F0"/>
<stop offset="1" stop-color="#DCDCDC"/>
</linearGradient>
<linearGradient id="paint1_linear_137_15196" x1="20.4024" y1="2.85601" x2="66.6928" y2="49.1464" gradientUnits="userSpaceOnUse">
<stop stop-color="#BDDBD3"/>
<stop offset="1" stop-color="#8CC2B2"/>
</linearGradient>
<linearGradient id="paint2_linear_137_15196" x1="17.2585" y1="26.0012" x2="37.9955" y2="26.0012" gradientUnits="userSpaceOnUse">
<stop stop-color="#BDDBD3"/>
<stop offset="1" stop-color="#8CC2B2"/>
</linearGradient>
<linearGradient id="paint3_linear_137_15196" x1="34.515" y1="19.0795" x2="59.1073" y2="43.6718" gradientUnits="userSpaceOnUse">
<stop stop-color="#95AEA7"/>
<stop offset="1" stop-color="#6F8C9D"/>
</linearGradient>
<linearGradient id="paint4_linear_137_15196" x1="6.23084" y1="9.43268" x2="10.9609" y2="14.1628" gradientUnits="userSpaceOnUse">
<stop stop-color="#BFD1CC"/>
<stop offset="1" stop-color="#9CBCC2"/>
</linearGradient>
<linearGradient id="paint5_linear_137_15196" x1="24.6623" y1="29.7623" x2="39.0916" y2="44.1915" gradientUnits="userSpaceOnUse">
<stop stop-color="#95AEA7"/>
<stop offset="1" stop-color="#6F8C9D"/>
</linearGradient>
<linearGradient id="paint6_linear_137_15196" x1="26.9952" y1="12.0464" x2="33.3695" y2="12.0464" gradientUnits="userSpaceOnUse">
<stop stop-color="#F0F0F0"/>
<stop offset="1" stop-color="#C8C8C8"/>
</linearGradient>
<linearGradient id="paint7_linear_137_15196" x1="26.619" y1="12.0467" x2="33.7458" y2="12.0467" gradientUnits="userSpaceOnUse">
<stop stop-color="#95ACAE"/>
<stop offset="1" stop-color="#6F889D"/>
</linearGradient>
<linearGradient id="paint8_linear_137_15196" x1="20.806" y1="12.1312" x2="26.4982" y2="12.1312" gradientUnits="userSpaceOnUse">
<stop stop-color="#F0F0F0"/>
<stop offset="1" stop-color="#C8C8C8"/>
</linearGradient>
<linearGradient id="paint9_linear_137_15196" x1="20.4296" y1="12.1312" x2="26.8744" y2="12.1312" gradientUnits="userSpaceOnUse">
<stop stop-color="#95ACAE"/>
<stop offset="1" stop-color="#6F889D"/>
</linearGradient>
<linearGradient id="paint10_linear_137_15196" x1="77.8206" y1="33.4173" x2="84.6845" y2="40.2813" gradientUnits="userSpaceOnUse">
<stop stop-color="#DCDCDC"/>
<stop offset="1" stop-color="#AAAAAA"/>
</linearGradient>
<linearGradient id="paint11_linear_137_15196" x1="3.41647" y1="33.5899" x2="8.58572" y2="38.7592" gradientUnits="userSpaceOnUse">
<stop stop-color="#DCDCDC"/>
<stop offset="1" stop-color="#AAAAAA"/>
</linearGradient>
<linearGradient id="paint12_linear_137_15196" x1="8.6333" y1="34.0897" x2="13.4253" y2="38.8817" gradientUnits="userSpaceOnUse">
<stop stop-color="#DCDCDC"/>
<stop offset="1" stop-color="#AAAAAA"/>
</linearGradient>
<linearGradient id="paint13_linear_137_15196" x1="54.7872" y1="30.196" x2="77.7481" y2="53.1568" gradientUnits="userSpaceOnUse">
<stop stop-color="#95AEA7"/>
<stop offset="1" stop-color="#6F8C9D"/>
</linearGradient>
<linearGradient id="paint14_linear_137_15196" x1="59.9155" y1="-0.111989" x2="79.7952" y2="19.7677" gradientUnits="userSpaceOnUse">
<stop stop-color="#95AEA7"/>
<stop offset="1" stop-color="#6F8C9D"/>
</linearGradient>
<clipPath id="clip0_137_15196">
<rect width="92.8515" height="40" fill="white" transform="translate(0 6)"/>
</clipPath>
</defs>
</svg>
