<svg viewBox="0 0 57 56" fill="none" xmlns="http://www.w3.org/2000/svg">
<g clip-path="url(#clip0_137_8259)">
<path d="M28.7158 55.8574C44.1166 55.8574 56.6015 43.3725 56.6015 27.9717C56.6015 12.5708 44.1166 0.0859375 28.7158 0.0859375C13.3149 0.0859375 0.830078 12.5708 0.830078 27.9717C0.830078 43.3725 13.3149 55.8574 28.7158 55.8574Z" fill="#FFDD67"/>
<path d="M45.3551 34.5427C45.3137 36.9169 43.478 42.7012 36.9352 46.261C34.423 47.6638 31.5935 48.4003 28.7161 48.4003C25.8388 48.4003 23.0093 47.6638 20.497 46.261C13.9542 42.7012 12.1186 36.9169 12.0771 34.5427C12.0038 33.2105 12.6157 32.127 14.2028 32.127H43.2167C44.8962 32.127 45.4284 33.2105 45.3551 34.5427Z" fill="#B26D3C"/>
<path d="M34.292 33.584V46.4879C34.292 49.3561 31.7966 51.6507 28.7148 51.6507C25.6331 51.6507 23.1377 49.3402 23.1377 46.4879V33.584C23.6189 33.6382 33.8108 33.6382 34.292 33.584Z" fill="#8BC34A"/>
<path d="M29.6034 44.4697C29.6174 44.2303 29.5425 43.9942 29.393 43.8068C29.1868 43.6031 28.9374 43.4484 28.6632 43.3542C28.3158 43.2108 27.994 43.0674 27.7071 42.924C27.4304 42.7905 27.1731 42.62 26.9423 42.4173C26.7347 42.2313 26.5676 42.0046 26.4515 41.7512C26.3322 41.4603 26.2747 41.1477 26.2826 40.8334C26.2741 40.557 26.3239 40.2819 26.4288 40.026C26.5337 39.7701 26.6912 39.5392 26.8913 39.3482C27.3364 38.9418 27.9084 38.702 28.5102 38.6694V37.5444H29.358V38.6917C29.9508 38.758 30.4975 39.0433 30.8909 39.4917C31.2727 39.9637 31.4708 40.558 31.4486 41.1648H29.6384C29.6579 40.8648 29.5833 40.5662 29.4249 40.3107C29.3574 40.2138 29.2665 40.1355 29.1606 40.0832C29.0547 40.0308 28.9374 40.006 28.8194 40.0111C28.7171 40.005 28.6148 40.0218 28.52 40.0604C28.4251 40.099 28.3401 40.1584 28.2712 40.2342C28.134 40.4064 28.0649 40.6231 28.0768 40.8429C28.0699 40.9589 28.0864 41.0751 28.1252 41.1846C28.1641 41.2941 28.2246 41.3947 28.3031 41.4803C28.5115 41.6726 28.7549 41.823 29.0202 41.9233C29.3389 42.0635 29.6575 42.2069 29.9571 42.3599C30.231 42.4975 30.486 42.6699 30.7156 42.873C30.9267 43.0605 31.097 43.2894 31.216 43.5454C31.344 43.8352 31.406 44.1498 31.3976 44.4665C31.4085 44.7408 31.363 45.0145 31.2637 45.2705C31.1645 45.5265 31.0137 45.7594 30.8208 45.9548C30.3897 46.3527 29.8324 46.5862 29.2464 46.6145V47.6853H28.3987V46.6145C27.7257 46.579 27.0897 46.2951 26.614 45.8177C26.1791 45.33 25.9505 44.6924 25.9766 44.0394H27.7741C27.7509 44.3695 27.8458 44.697 28.0418 44.9636C28.1372 45.0707 28.2555 45.155 28.3879 45.2101C28.5203 45.2653 28.6634 45.29 28.8066 45.2823C28.9116 45.2879 29.0165 45.2715 29.1147 45.2341C29.213 45.1968 29.3023 45.1394 29.3771 45.0656C29.453 44.9867 29.5122 44.8932 29.5511 44.7907C29.59 44.6883 29.6078 44.5791 29.6034 44.4697Z" fill="white"/>
<path d="M39.8697 25.753C44.2699 25.753 47.837 22.1859 47.837 17.7857C47.837 13.3855 44.2699 9.81836 39.8697 9.81836C35.4694 9.81836 31.9023 13.3855 31.9023 17.7857C31.9023 22.1859 35.4694 25.753 39.8697 25.753Z" fill="#8BC34A"/>
<path d="M40.7538 19.6369C40.7685 19.3984 40.6935 19.1631 40.5434 18.9772C40.3372 18.7735 40.0878 18.6188 39.8136 18.5246C39.4662 18.3812 39.1444 18.2378 38.8575 18.0912C38.5803 17.9599 38.3228 17.7904 38.0927 17.5877C37.8843 17.4011 37.7172 17.1732 37.6019 16.9184C37.4826 16.6286 37.4251 16.3171 37.433 16.0038C37.4245 15.7274 37.4743 15.4523 37.5792 15.1964C37.6841 14.9405 37.8416 14.7096 38.0417 14.5187C38.4868 14.1122 39.0588 13.8724 39.6606 13.8398V12.7148H40.5084V13.859C41.102 13.9249 41.6491 14.2115 42.0413 14.6621C42.4218 15.1357 42.6177 15.7313 42.5926 16.3384H40.7888C40.8078 16.0395 40.7332 15.742 40.5753 15.4875C40.5082 15.3902 40.4174 15.3116 40.3114 15.2591C40.2054 15.2067 40.0879 15.1822 39.9698 15.1879C39.8675 15.1818 39.7652 15.1986 39.6704 15.2372C39.5755 15.2758 39.4905 15.3352 39.4216 15.411C39.2844 15.5832 39.2153 15.7998 39.2272 16.0197C39.2203 16.1357 39.2368 16.2519 39.2756 16.3614C39.3145 16.4709 39.375 16.5714 39.4535 16.6571C39.6621 16.8483 39.9056 16.9976 40.1705 17.0969C40.4892 17.2403 40.8079 17.3837 41.1075 17.5367C41.3814 17.6743 41.6364 17.8467 41.866 18.0498C42.0777 18.2367 42.2482 18.4657 42.3663 18.7222C42.4944 19.012 42.5564 19.3266 42.548 19.6432C42.5568 19.9154 42.5102 20.1866 42.411 20.4402C42.3119 20.6939 42.1622 20.9247 41.9712 21.1188C41.5412 21.5202 40.9841 21.7581 40.3968 21.7912V22.8621H39.5491V21.7817C38.8761 21.7462 38.2401 21.4623 37.7644 20.985C37.341 20.4923 37.1241 19.8553 37.1589 19.2066H38.9563C38.9332 19.5367 39.0281 19.8642 39.224 20.1309C39.3195 20.2379 39.4377 20.3222 39.5701 20.3774C39.7025 20.4325 39.8457 20.4572 39.9889 20.4495C40.0938 20.4551 40.1988 20.4387 40.297 20.4014C40.3952 20.364 40.4846 20.3066 40.5594 20.2328C40.6295 20.1512 40.6827 20.0565 40.7161 19.9543C40.7494 19.852 40.7622 19.7441 40.7538 19.6369Z" fill="white"/>
<path d="M17.5621 25.753C21.9623 25.753 25.5294 22.1859 25.5294 17.7857C25.5294 13.3855 21.9623 9.81836 17.5621 9.81836C13.1618 9.81836 9.59473 13.3855 9.59473 17.7857C9.59473 22.1859 13.1618 25.753 17.5621 25.753Z" fill="#8BC34A"/>
<path d="M18.4491 19.6369C18.4639 19.3984 18.3888 19.1631 18.2387 18.9772C18.0325 18.7735 17.7831 18.6188 17.5089 18.5246C17.1616 18.3812 16.8397 18.2378 16.5529 18.0912C16.2756 17.9599 16.0182 17.7904 15.788 17.5877C15.5796 17.4011 15.4125 17.1732 15.2972 16.9184C15.1779 16.634 15.1182 16.3281 15.1219 16.0197C15.1134 15.7433 15.1632 15.4682 15.2681 15.2123C15.373 14.9564 15.5306 14.7255 15.7306 14.5346C16.1757 14.1282 16.7477 13.8883 17.3496 13.8558V12.7148H18.1973V13.859C18.7909 13.9249 19.3381 14.2115 19.7302 14.6621C20.113 15.1348 20.3112 15.7305 20.2879 16.3384H18.4841C18.5032 16.0395 18.4285 15.742 18.2706 15.4875C18.2035 15.3902 18.1127 15.3116 18.0067 15.2591C17.9008 15.2067 17.7832 15.1822 17.6651 15.1879C17.5629 15.1818 17.4606 15.1986 17.3657 15.2372C17.2708 15.2758 17.1858 15.3352 17.1169 15.411C16.9798 15.5832 16.9106 15.7998 16.9225 16.0197C16.9156 16.1357 16.9321 16.2519 16.9709 16.3614C17.0098 16.4709 17.0703 16.5714 17.1488 16.6571C17.3574 16.8483 17.6009 16.9976 17.8659 17.0969C18.1846 17.2403 18.5033 17.3837 18.8028 17.5367C19.0768 17.6743 19.3317 17.8467 19.5613 18.0498C19.7731 18.2367 19.9435 18.4657 20.0617 18.7222C20.1897 19.012 20.2517 19.3266 20.2433 19.6432C20.2521 19.9154 20.2055 20.1866 20.1063 20.4402C20.0072 20.6939 19.8575 20.9247 19.6665 21.1188C19.2365 21.5202 18.6794 21.7581 18.0921 21.7912V22.8621H17.2444V21.7817C16.5714 21.7462 15.9355 21.4623 15.4597 20.985C15.0363 20.4923 14.8194 19.8553 14.8542 19.2066H16.6516C16.6285 19.5367 16.7234 19.8642 16.9194 20.1309C17.0148 20.2379 17.1331 20.3222 17.2655 20.3774C17.3979 20.4325 17.541 20.4572 17.6842 20.4495C17.7891 20.4551 17.8941 20.4387 17.9923 20.4014C18.0905 20.364 18.1799 20.3066 18.2547 20.2328C18.3248 20.1512 18.378 20.0565 18.4114 19.9543C18.4448 19.852 18.4576 19.7441 18.4491 19.6369Z" fill="white"/>
</g>
<defs>
<clipPath id="clip0_137_8259">
<rect width="55.7714" height="55.7714" fill="white" transform="translate(0.828125 0.0859375)"/>
</clipPath>
</defs>
</svg>
