<svg viewBox="0 0 54 54" fill="none" xmlns="http://www.w3.org/2000/svg">
<path d="M27.5789 0.50293C42.0142 0.50293 54.5249 12.0512 54.5249 27.449C54.5249 41.8844 42.9766 54.395 27.5789 54.395C12.1811 54.395 0.632812 41.8844 0.632812 27.449C0.632812 12.0512 12.1811 0.50293 27.5789 0.50293Z" fill="#FFDD67"/>
<path d="M39.1275 38.9956C40.0899 37.0709 37.2028 37.0709 36.2404 34.1838C36.2404 31.2967 38.1651 30.3343 37.2028 28.4096C35.2781 27.4473 32.391 29.372 29.5039 27.4473C29.5039 29.372 31.4286 31.2967 34.3157 30.3343C34.3157 30.3343 32.391 31.2967 33.3533 34.1838C34.3157 37.0709 36.2404 38.0332 36.2404 38.0332C33.3533 38.9956 32.391 40.9203 32.391 42.845C34.3157 39.9579 38.1651 40.9203 39.1275 38.9956Z" fill="#664E27"/>
<g opacity="0.8">
<path opacity="0.8" d="M47.7872 16.8624C43.9378 15.9001 40.0883 17.8248 39.126 19.7495C39.126 22.6366 41.0507 25.5237 44.9001 26.486C48.7496 27.4484 52.599 26.486 52.599 23.5989C53.5614 20.7119 51.6366 17.8248 47.7872 16.8624Z" fill="#FF717F"/>
</g>
<g opacity="0.8">
<path opacity="0.8" d="M17.9516 25.5242C16.0269 22.6371 10.2528 22.6371 6.40334 25.5242C2.5539 27.4489 0.629187 31.2983 2.5539 34.1854C4.47862 37.0725 10.2528 37.0725 14.1022 34.1854C18.914 32.2607 20.8387 27.4489 17.9516 25.5242Z" fill="#FF717F"/>
</g>
<path d="M30.459 13.9769C35.2708 20.7134 42.0073 19.7511 44.8943 12.0522C44.8943 12.0522 44.8943 12.0522 43.932 11.0898C41.0449 14.9393 34.3084 14.9393 30.459 13.0146C30.459 13.9769 29.4966 13.9769 30.459 13.9769Z" fill="#664E27"/>
<path d="M8.33789 17.825C13.1497 24.5615 20.8486 22.6368 22.7733 14.9379C22.7733 14.9379 22.7733 14.9379 21.8109 13.9756C18.9238 17.825 12.1873 18.7874 9.30025 15.9003C8.33789 17.825 8.33789 17.825 8.33789 17.825Z" fill="#664E27"/>
</svg>
