<svg viewBox="0 0 57 58" fill="none" xmlns="http://www.w3.org/2000/svg">
<path d="M56.8433 29.4519C56.8433 44.7895 44.5732 58.0821 28.2131 58.0821C12.8755 57.0596 0.605469 44.7895 0.605469 29.4519C0.605469 13.0918 12.8755 0.821777 29.2356 0.821777C44.5732 0.821777 56.8433 13.0918 56.8433 29.4519Z" fill="#FFDD67"/>
<path d="M38.436 43.7675C33.3235 39.6775 35.3685 41.7225 40.481 36.61C45.5936 31.4975 43.5485 29.4525 48.6611 33.5425C53.7736 38.655 53.7736 42.745 50.7061 45.8126C47.6386 48.8801 42.526 48.8801 38.436 43.7675Z" fill="#FF717F"/>
<path d="M41.5128 35.5859L47.6478 43.766L39.4678 37.6309L41.5128 35.5859Z" fill="#E2596C"/>
<path d="M25.1422 22.2933C24.1197 17.1808 21.0522 15.1357 19.0072 15.1357C15.9396 15.1357 13.8946 17.1808 11.8496 22.2933L12.8721 23.3158C13.8946 21.2708 15.9396 20.2483 19.0072 20.2483C22.0747 20.2483 23.0972 21.2708 24.1197 23.3158C25.1422 23.3158 26.1647 23.3158 25.1422 22.2933Z" fill="#664E27"/>
<path d="M46.6149 22.2933C44.5699 17.1808 41.5024 15.1357 39.4573 15.1357C36.3898 15.1357 34.3448 17.1808 32.2998 22.2933L33.3223 23.3158C35.3673 21.2708 37.4123 20.2483 39.4573 20.2483C41.5024 20.2483 43.5474 21.2708 44.5699 23.3158C45.5924 23.3158 46.6149 23.3158 46.6149 22.2933Z" fill="#664E27"/>
<path d="M43.5473 30.4759C39.4573 35.5884 35.3673 37.6334 29.2322 37.6334C23.0972 37.6334 17.9846 35.5884 13.8946 30.4759C12.8721 29.4534 11.8496 30.4759 11.8496 31.4984C13.8946 38.6559 21.0522 42.7459 29.2322 42.7459C36.3898 42.7459 43.5473 38.6559 46.6148 30.4759C45.5923 29.4534 44.5698 29.4534 43.5473 30.4759Z" fill="#664E27"/>
</svg>
