<svg viewBox="0 0 57 54" fill="none" xmlns="http://www.w3.org/2000/svg">
<g clip-path="url(#clip0_137_8119)">
<path d="M46.8997 8.09787C51.7064 13.0446 54.1097 19.4753 54.5904 26.8953C54.5904 34.3154 51.7064 40.7461 46.8997 45.6928C42.0931 50.6395 35.8444 53.1129 28.6344 53.6076C22.8665 53.6076 17.5791 51.6289 13.2532 48.1662C8.92717 44.2088 6.04318 39.7568 4.12052 33.8207H3.63985C2.67852 33.8207 2.19786 33.3261 1.71719 32.8314C1.23652 32.3367 0.755859 31.8421 0.755859 30.8527C0.755859 29.8634 1.23652 29.3687 1.71719 28.874C2.19786 28.3794 2.67852 27.8847 3.63985 27.8847V26.4007C3.63985 18.9806 6.52384 12.5499 11.3305 7.6032C16.1371 2.6565 22.3858 0.183147 29.5958 -0.311523C36.3251 0.183147 42.0931 3.15117 46.8997 8.09787Z" fill="#FFD469"/>
<path d="M56.5116 28.8748C56.9923 29.3695 57.473 30.3588 57.473 30.8535C57.473 31.8428 56.9923 32.3375 56.5116 32.8322C56.031 33.3268 55.0696 33.8215 54.589 33.8215H53.6276C51.705 39.7575 48.821 44.2096 44.495 47.6723C40.169 51.135 34.8817 53.1136 29.1137 53.1136C25.7491 53.1136 22.3844 52.1243 19.5004 51.135C16.1358 49.6509 13.7324 48.1669 11.3291 45.6936C15.1744 48.1669 19.9811 49.6509 25.2684 49.6509C32.959 49.6509 39.2077 46.6829 44.0143 41.7362C48.821 36.7895 51.705 30.3588 51.705 22.4441C51.705 17.0027 50.263 12.5507 47.8597 8.09863C49.7823 10.572 51.705 13.0453 53.147 16.508C54.589 19.4761 55.0696 22.9387 55.0696 26.4014C55.0696 26.8961 55.0696 27.3908 55.0696 27.3908C55.0696 27.8854 56.031 28.3801 56.5116 28.8748Z" fill="#FFB636"/>
<path d="M44.018 33.8218L43.5374 34.3165C43.0567 35.3058 42.576 35.8005 41.6147 36.7898C41.1341 37.2845 40.6534 37.7792 39.6921 38.7685C38.7307 39.7579 37.2887 40.7472 36.3274 41.2419L35.3661 41.7365C34.4047 41.2419 33.4434 41.2419 32.4821 41.2419C31.0401 41.7365 30.0788 41.7365 29.1174 42.2312C28.1561 42.2312 26.7141 41.7365 25.7528 41.2419C24.7914 41.2419 23.3494 41.2419 22.8688 41.7365L21.9074 41.2419C20.4654 40.2525 19.0234 39.7579 18.0621 38.7685C17.5815 37.7792 16.6201 37.2845 16.1395 36.7898C15.6588 35.8005 15.1781 35.3058 14.2168 34.3165V33.8218V33.3271H15.6588H16.6201C17.1008 33.3271 18.0621 33.8218 19.5041 33.8218C20.9461 33.8218 22.3881 34.3165 23.8301 34.3165C25.2721 34.3165 27.1948 34.3165 28.6368 34.3165C30.0788 34.3165 32.0014 34.3165 33.4434 34.3165C34.8854 34.3165 36.3274 33.8218 37.7694 33.8218C39.2114 33.8218 40.1727 33.3271 40.6534 33.3271H41.6147C42.576 33.3271 43.0567 33.3272 44.018 33.8218C43.5374 33.3272 44.018 33.3272 44.018 33.8218ZM17.1008 33.3271H16.1395H18.0621H21.9074H29.1174H36.3274H39.6921H42.0954H41.1341C40.1727 33.3271 39.2114 33.8218 38.2501 33.8218C36.8081 33.8218 35.3661 34.3165 33.9241 34.3165C32.4821 34.3165 30.5594 34.3165 29.1174 34.3165C27.6754 34.3165 25.7528 34.3165 24.3108 34.3165C22.3881 34.3165 21.4268 33.8218 19.9848 33.8218C18.5428 33.8218 17.5815 33.3271 17.1008 33.3271Z" fill="#2B3B47"/>
<path d="M18.0615 27.8849C17.5808 28.3795 17.1001 28.3795 16.6195 27.8849L10.8515 23.9275C10.3708 23.9275 9.89014 23.4328 9.40947 22.4435C8.44814 20.9595 8.44814 19.4755 9.40947 17.9915C10.3708 16.5074 11.3321 16.0128 12.7741 15.5181C13.7355 15.5181 15.1775 15.5181 16.1388 16.5074L16.6195 17.0021L17.1001 16.5074C17.5808 15.5181 18.5421 15.0234 19.9841 15.0234C21.4261 15.0234 22.3874 15.5181 23.3488 16.5074C23.8294 17.0021 24.3101 17.9915 24.3101 18.4861C24.3101 19.4755 24.3101 19.9701 23.8294 20.9595C23.8294 21.9488 23.3488 22.4435 22.8681 22.9382L18.0615 27.8849ZM17.1001 33.3262H16.1388H18.0615H21.9068H29.1168H36.3267H39.6914H42.0947H41.1334C40.1721 33.3262 39.2107 33.8209 38.2494 33.8209C36.8074 33.8209 35.3654 34.3156 33.9234 34.3156C32.4814 34.3156 30.5587 34.3156 29.1168 34.3156C27.6748 34.3156 25.7521 34.3156 24.3101 34.3156C22.3874 34.3156 21.4261 33.8209 19.9841 33.8209C18.5421 33.8209 17.5808 33.3262 17.1001 33.3262ZM35.3654 41.7356C32.9621 42.725 31.0394 43.2197 29.1168 43.2197C26.7134 43.2197 24.7908 42.725 22.8681 41.7356C23.3488 41.241 24.7908 40.7463 25.7521 40.7463C26.7134 40.7463 28.1554 40.7463 29.1168 41.241C30.0781 41.241 31.5201 40.7463 32.4814 40.7463C33.4427 40.7463 34.4041 41.241 35.3654 41.7356ZM39.6914 27.8849C40.1721 28.3795 40.6527 28.3795 41.1334 27.8849L46.9014 23.9275C47.382 23.4328 48.3434 22.9382 48.824 22.4435C49.7854 20.9595 49.7854 19.4755 48.824 17.9915C47.8627 16.5074 46.4207 16.0128 45.4594 15.5181C44.498 15.5181 43.056 15.5181 42.0947 16.5074L41.614 17.0021L41.1334 16.5074C40.1721 15.5181 39.2107 15.0234 37.7687 15.0234C36.3267 15.0234 35.3654 15.5181 34.4041 16.5074C33.9234 17.0021 33.4427 17.9915 33.4427 18.4861C33.4427 19.4755 33.4427 19.9701 33.9234 20.9595C33.9234 21.9488 34.4041 22.4435 34.8847 22.9382L39.6914 27.8849Z" fill="#FF473E"/>
<path d="M32.9615 46.187C31.5195 46.6816 30.0776 47.1763 28.6356 47.1763C27.1936 47.1763 26.2322 46.6816 24.7902 46.187C24.3096 46.187 24.3096 45.6923 24.3096 45.1976C24.7902 44.7029 25.2709 44.2083 25.7516 44.7029C28.1549 45.6923 30.0776 45.6923 32.4809 44.7029C32.9615 44.7029 33.4422 44.7029 33.4422 45.1976C33.4422 45.6923 33.4422 45.6923 32.9615 46.187Z" fill="#F2A74E"/>
</g>
<defs>
<clipPath id="clip0_137_8119">
<rect width="56.2378" height="52.9297" fill="white" transform="translate(0.755859 0.183594)"/>
</clipPath>
</defs>
</svg>
