<svg viewBox="0 0 64 44" fill="none" xmlns="http://www.w3.org/2000/svg">
<path d="M2.66357 42.3518L1.51172 41.4919L12.1664 27.2313L30.1641 22.7883C33.3317 18.2019 38.3711 10.9642 38.875 9.96091C39.019 9.31596 40.5308 8.81433 59.6085 4.44299L59.9684 5.80456C52.9853 7.45277 41.6827 10.1042 40.1709 10.6775C39.667 11.6091 37.7952 14.4756 31.244 23.7915L31.1 24.0065L13.0303 28.4495L2.66357 42.3518ZM40.3869 10.1759C40.3869 10.2476 40.3149 10.3192 40.2429 10.5342C40.3149 10.4625 40.3869 10.3909 40.3869 10.1759Z" fill="#E94E1B"/>
<path d="M57.5929 42.6385H1.36792V6.37787H2.80774V41.2052H57.5929V42.6385Z" fill="#575756"/>
<path d="M56.2249 39.8436L63.9999 41.9218L56.2249 44V39.8436Z" fill="#575756"/>
<path d="M4.17548 7.73941L2.08774 0L0 7.73941H4.17548Z" fill="#575756"/>
<path d="M13.8943 36.5472H7.48706V41.2769H13.8943V36.5472Z" fill="#00A19A"/>
<path d="M21.9572 28.7362H15.55V41.3486H21.9572V28.7362Z" fill="#00A19A"/>
<path d="M30.0202 26.873H23.613V41.3486H30.0202V26.873Z" fill="#00A19A"/>
<path d="M38.0112 24.9381H31.604V41.2769H38.0112V24.9381Z" fill="#00A19A"/>
<path d="M46.0742 13.2573H39.667V41.3485H46.0742V13.2573Z" fill="#00A19A"/>
<path d="M54.1372 9.67426H47.73V41.3485H54.1372V9.67426Z" fill="#E94E1B"/>
</svg>
