<svg viewBox="0 0 52 52" fill="none" xmlns="http://www.w3.org/2000/svg">
<g clip-path="url(#clip0_137_8281)">
<path d="M28.7281 15.5525C28.1506 15.7426 27.5289 15.9079 26.86 16.0456C26.86 16.0456 26.49 15.1549 26.2567 13.7751C25.7389 10.7084 25.8961 5.22222 32.2949 1.722C32.6772 1.51347 33.082 1.311 33.5095 1.11691C34.3408 0.739868 35.3098 1.23402 35.4989 2.12683C35.5811 2.51721 35.6623 2.96516 35.7291 3.45623C36.2204 7.1372 35.834 13.2142 28.7281 15.5525Z" fill="#368B4C"/>
<path d="M26.2597 13.7753C25.7418 10.7086 25.899 5.22238 32.2978 1.72217C32.3132 1.81877 32.3276 1.91736 32.3409 2.01804C32.8096 5.5337 32.4787 11.2336 26.2597 13.7753Z" fill="#3FA45A"/>
<path d="M22.7106 18.748C22.4705 18.748 22.2337 18.6361 22.0834 18.4259L14.6685 8.06765C14.4208 7.72159 14.5004 7.24028 14.8466 6.9926C15.1925 6.74513 15.6741 6.8245 15.9219 7.17077L23.3368 17.529C23.5845 17.8752 23.5048 18.3564 23.1587 18.6041C23.0227 18.7013 22.8659 18.748 22.7106 18.748Z" fill="#368B4C"/>
<path d="M19.5964 21.2427C14.4266 30.0453 6.76276 26.7916 3.63273 24.9279C2.84871 24.4604 2.69352 23.3848 3.31827 22.72C3.84341 22.1611 4.36845 21.668 4.8915 21.2355C11.2133 15.9999 17.2257 19.5084 19.0415 20.8122C19.4012 21.0713 19.5964 21.2427 19.5964 21.2427Z" fill="#368B4C"/>
<path d="M19.0426 20.8132C14.0958 25.8422 7.98774 23.1865 5.27797 21.5725C5.12487 21.4811 4.99538 21.367 4.89258 21.2366C11.2144 16.0009 17.2269 19.5093 19.0426 20.8132Z" fill="#3FA45A"/>
<path d="M23.4714 19.2564C15.0225 24.988 9.49711 18.7601 7.47075 15.7324C6.96314 14.9743 7.28578 13.9366 8.13565 13.6037C8.77793 13.3521 9.3975 13.1496 9.99456 12.9904C17.0213 11.1124 20.9477 15.2619 22.5723 17.6783C23.1857 18.5905 23.4714 19.2564 23.4714 19.2564Z" fill="#4CBA68"/>
<path d="M22.57 17.6783C16.2431 20.0844 11.9446 15.7108 9.99219 12.9904C17.0189 11.1124 20.9453 15.2619 22.57 17.6783Z" fill="#64C37D"/>
<path d="M23.787 19.075C31.9174 12.9001 27.7784 5.67668 25.5555 2.78992C24.9989 2.06681 23.9123 2.04132 23.3255 2.74023C22.8819 3.26844 22.4923 3.79078 22.1506 4.30565C18.1271 10.3636 20.8066 15.4086 22.5784 17.7192C23.2472 18.5917 23.787 19.075 23.787 19.075Z" fill="#4CBA68"/>
<path d="M22.5804 17.7197C26.8811 12.4935 24.108 7.0246 22.1526 4.30615C18.129 10.364 20.8086 15.409 22.5804 17.7197Z" fill="#64C37D"/>
<path d="M47.7697 47.2565C47.6577 47.5626 47.5272 47.8565 47.3781 48.139C46.0505 50.6602 43.3223 52.1899 40.4213 51.9547C29.2483 51.0455 19.1562 43.9135 19.1562 43.9135C11.1143 38.5773 10.1155 26.9916 17.2562 21.8825L17.4997 21.7089L22.7127 17.9774L28.1692 14.0734C35.31 8.96422 45.9753 13.6409 48.4139 22.9776C51.2934 33.9972 49.5382 42.4186 47.7697 47.2565Z" fill="#C70024"/>
<path d="M47.7679 47.2565C47.656 47.5626 47.5254 47.8565 47.3764 48.139C46.1926 48.7647 44.829 49.0637 43.4253 48.9497C32.2522 48.0404 22.1602 40.9084 22.1602 40.9084C15.379 36.4086 13.6054 27.4663 17.4979 21.7089L22.7109 17.9774L28.1674 14.0734C35.3082 8.96422 45.9736 13.6409 48.4121 22.9776C51.2916 33.9972 49.5364 42.4186 47.7679 47.2565Z" fill="#FF0C38"/>
<path d="M18.2305 32.8942C17.8147 33.1917 17.9121 34.0397 18.4479 34.7883C18.9838 35.5369 19.7553 35.9026 20.171 35.6051C20.5868 35.3076 20.4894 34.4596 19.9536 33.711C19.4177 32.9624 18.6462 32.5967 18.2305 32.8942Z" fill="black"/>
<path d="M21.6211 24.3893C21.2053 24.6868 21.3027 25.5348 21.8386 26.2834C22.3744 27.032 23.1459 27.3977 23.5616 27.1002C23.9774 26.8027 23.88 25.9547 23.3442 25.2061C22.8083 24.4575 22.0369 24.0918 21.6211 24.3893Z" fill="black"/>
<path d="M29.9492 29.8522C29.5335 30.1497 29.6308 30.9977 30.1667 31.7463C30.7026 32.4949 31.474 32.8606 31.8898 32.5631C32.3055 32.2656 32.2082 31.4176 31.6723 30.669C31.1364 29.9204 30.365 29.5547 29.9492 29.8522Z" fill="black"/>
<path d="M41.8174 17.216C41.4016 17.5135 41.499 18.3615 42.0348 19.1101C42.5707 19.8587 43.3422 20.2243 43.7579 19.9268C44.1737 19.6293 44.0763 18.7813 43.5405 18.0328C43.0046 17.2842 42.2331 16.9185 41.8174 17.216Z" fill="black"/>
<path d="M39.3076 27.5163C38.8918 27.8138 38.9892 28.6618 39.5251 29.4104C40.0609 30.159 40.8324 30.5246 41.2482 30.2271C41.6639 29.9296 41.5666 29.0816 41.0307 28.3331C40.4948 27.5845 39.7234 27.2188 39.3076 27.5163Z" fill="black"/>
<path d="M44.5254 36.2043C44.1096 36.5018 44.207 37.3498 44.7429 38.0984C45.2787 38.8469 46.0502 39.2126 46.4659 38.9151C46.8817 38.6176 46.7843 37.7696 46.2485 37.021C45.7126 36.2725 44.9412 35.9068 44.5254 36.2043Z" fill="black"/>
<path d="M33.0967 40.839C32.6809 41.1365 32.7783 41.9845 33.3141 42.7331C33.85 43.4817 34.6215 43.8474 35.0372 43.5499C35.453 43.2524 35.3556 42.4044 34.8198 41.6558C34.2839 40.9072 33.5124 40.5415 33.0967 40.839Z" fill="black"/>
<path d="M41.1211 45.1364C40.7053 45.4339 40.8027 46.2819 41.3386 47.0305C41.8744 47.7791 42.6459 48.1448 43.0616 47.8473C43.4774 47.5498 43.38 46.7017 42.8442 45.9532C42.3083 45.2046 41.5369 44.8389 41.1211 45.1364Z" fill="black"/>
<path d="M31.8945 18.5329C31.4788 18.8304 31.5761 19.6784 32.112 20.427C32.6479 21.1756 33.4193 21.5412 33.8351 21.2437C34.2508 20.9462 34.1535 20.0982 33.6176 19.3497C33.0817 18.6011 32.3103 18.2354 31.8945 18.5329Z" fill="black"/>
<path d="M22.5459 40.9294C22.1301 41.2269 22.2275 42.0749 22.7634 42.8235C23.2992 43.572 24.0707 43.9377 24.4864 43.6402C24.9022 43.3427 24.8049 42.4947 24.269 41.7461C23.7331 40.9976 22.9617 40.6319 22.5459 40.9294Z" fill="black"/>
</g>
<defs>
<clipPath id="clip0_137_8281">
<rect width="51" height="50.989" fill="white" transform="translate(0.9375 0.989258)"/>
</clipPath>
</defs>
</svg>
