<svg viewBox="0 0 105 105" fill="none" xmlns="http://www.w3.org/2000/svg">
<path d="M86.4701 0C82.1703 0 78.417 0 74.1172 0V33.9706H77.2054L80.2937 30.8824V6.17647H86.4701V0Z" fill="#00467D"/>
<path d="M24.7071 61.7645H6.17773V37.0586H12.3542V55.588H24.7071V61.7645Z" fill="#3B6BAB"/>
<path d="M98.8243 61.7645H80.2949V55.588H92.6479V37.0586H98.8243V61.7645Z" fill="#00467D"/>
<path d="M64.8547 47.3527L52.5017 49.4116H37.0605V37.0586H52.5017L64.8547 39.1174V47.3527Z" fill="#3B6BAB"/>
<path d="M52.5 37.0586H67.9412V49.4116H52.5V37.0586Z" fill="#00467D"/>
<path d="M80.2937 77.2056L52.4995 80.2938H21.6172V46.3232H52.4995L80.2937 49.4115V77.2056Z" fill="#FA686C"/>
<path d="M52.5 46.3232H83.3823V80.2938H52.5V46.3232Z" fill="#E40C57"/>
<path d="M40.1453 105H18.8896L17.3455 92.6466L19.2242 89.5583L16.5734 86.4701L15.0293 74.1172H40.1453V86.4701L38.2924 89.5583L40.1453 92.6466V105Z" fill="#3B6BAB"/>
<path d="M16.5742 86.4707L17.3463 92.6472H40.1461V86.4707H16.5742Z" fill="#00467D"/>
<path d="M89.1952 105H67.9395V92.6466L70.41 89.5583L67.9395 86.4701V74.1172H93.0555L91.5114 86.4701L88.8606 89.5583L90.7393 92.6466L89.1952 105Z" fill="#00467D"/>
<path d="M67.9395 86.4707V92.6472H90.7393L91.5113 86.4707H67.9395Z" fill="#033A5D"/>
<path d="M18.5294 40.1466H0V21.6172H6.17647V33.9701H12.3529V21.6172H18.5294V40.1466Z" fill="#FA686C"/>
<path d="M105 40.1466H86.4707V21.6172H92.6472V33.9701H98.8237V21.6172H105V40.1466Z" fill="#E40C57"/>
<path d="M37.0605 58.6758H71.0311V64.8523H37.0605V58.6758Z" fill="#FEE682"/>
<path d="M52.5 58.6768H71.0294V64.8532H52.5V58.6768Z" fill="#FDD742"/>
<path d="M77.2051 37.0585L52.4992 40.1467H24.7051V30.882C24.7051 15.5563 37.1735 3.08789 52.4992 3.08789C67.8249 3.08789 77.2051 15.5563 77.2051 30.882V37.0585Z" fill="#FA686C"/>
<path d="M52.5 3.08789V40.1467H80.2941V30.882C80.2941 15.5563 67.8259 3.08789 52.5 3.08789Z" fill="#E40C57"/>
<path d="M30.8828 33.9705H74.1181V30.8823C74.1181 18.9623 64.4204 9.26465 52.5005 9.26465C40.5805 9.26465 30.8828 18.9623 30.8828 30.8823V33.9705Z" fill="#ECF4FE"/>
<path d="M52.5 9.26465V33.9705H74.1177V30.8823C74.1177 18.9623 64.42 9.26465 52.5 9.26465Z" fill="#D4E7FD"/>
<path d="M40.1455 21.6172H46.322V27.7937H40.1455V21.6172Z" fill="#3B6BAB"/>
<path d="M58.6777 21.6172H64.8542V27.7937H58.6777V21.6172Z" fill="#00467D"/>
</svg>
