<svg viewBox="0 0 106 86" fill="none" xmlns="http://www.w3.org/2000/svg">
<g clip-path="url(#clip0_137_8564)">
<path d="M66.4386 84.2735H39.5615L41.1042 72.7373H65.1188L66.4386 84.2735Z" fill="#81858A"/>
<path d="M0 63.0811V70.2078C0 71.6605 1.18273 72.8398 2.63972 72.8398H103.36C104.817 72.8398 106 71.6605 106 70.2078V63.0811H0Z" fill="#D0D6DB"/>
<path d="M106 2.63196C106 1.17925 104.817 0 103.36 0H2.63972C1.18273 0 0 1.17925 0 2.63196V63.0815H106V2.63196Z" fill="#3E3D40"/>
<path d="M102.263 3.50391H3.73633V59.5782H102.263V3.50391Z" fill="white"/>
<path d="M39.561 84.2734H66.4381L71.169 85.3843L34.8301 85.4014L39.561 84.2734Z" fill="#D0D6DB"/>
<path d="M70.9123 86H35.0876L34.8477 85.4019L71.1695 85.3848L70.9123 86Z" fill="#81858A"/>
<path d="M54.8855 68.2599C54.8855 69.3024 54.0456 70.1398 53 70.1398C51.9544 70.1398 51.1145 69.3024 51.1145 68.2599C51.1145 67.2173 51.9544 66.3799 53 66.3799C54.0456 66.3799 54.8855 67.2344 54.8855 68.2599Z" fill="#3E3D40"/>
</g>
<rect x="38" y="7" width="61" height="47" rx="1.6" fill="#4099F7"/>
<path d="M53.8288 26.2473C55.0654 26.2473 55.7908 25.6043 56.1701 24.8459H56.203V26H57.8188V18.3826H56.203V22.0264C56.203 23.9555 55.4116 24.681 54.2905 24.681C53.3177 24.681 52.6911 24.0874 52.6911 22.8343V18.3826H51.0424V22.9992C51.0424 25.3405 52.3284 26.2473 53.8288 26.2473ZM63.5791 19.7511V18.3826H62.0293V15.3324H60.4135V18.3826H59.0615V19.7511H60.4135V24.0544C60.4135 25.3075 61.1389 26.0165 62.4745 26.0165H63.2164V24.5326H62.8207C62.2601 24.5326 62.0293 24.2853 62.0293 23.7412V19.7511H63.5791ZM64.8915 26H66.5073V22.0594C66.5073 20.3941 67.2327 19.7511 68.2055 19.7511C69.1948 19.7511 69.7224 20.3117 69.7224 21.3669V26H71.3382V22.0429C71.3382 20.3941 72.0637 19.7511 73.0529 19.7511C74.0257 19.7511 74.5533 20.3117 74.5533 21.3669V26H76.1691V21.2845C76.1691 19.0257 74.9985 18.1353 73.5641 18.1353C72.6078 18.1353 71.635 18.597 71.1733 19.6852H71.1403C70.6952 18.6135 69.9202 18.1353 68.8321 18.1353C67.8593 18.1353 66.9854 18.5475 66.5402 19.5698H66.5073V18.3826H64.8915V26ZM85.6962 26.2473H77.238V27.5993H85.6962V26.2473ZM46.7835 44.2473C47.7727 44.2473 48.6136 43.9835 49.3886 43.4724L48.6301 42.1039C48.1025 42.4337 47.443 42.681 46.734 42.681C45.2666 42.681 44.3103 41.6258 44.3103 40.1913C44.3103 38.7569 45.2666 37.7017 46.734 37.7017C47.443 37.7017 48.1025 37.949 48.6301 38.2787L49.3886 36.9102C48.6136 36.3991 47.7727 36.1353 46.7835 36.1353C44.3268 36.1353 42.5956 37.7676 42.5956 40.1913C42.5956 42.615 44.3268 44.2473 46.7835 44.2473ZM53.8838 36.1353C51.4931 36.1353 49.7124 37.85 49.7124 40.1913C49.7124 42.5326 51.4931 44.2473 53.8838 44.2473C56.2745 44.2473 58.0552 42.5326 58.0552 40.1913C58.0552 37.85 56.2745 36.1353 53.8838 36.1353ZM53.8838 37.7181C55.3347 37.7181 56.3405 38.6909 56.3405 40.1913C56.3405 41.6917 55.3347 42.6645 53.8838 42.6645C52.4329 42.6645 51.4271 41.6917 51.4271 40.1913C51.4271 38.6909 52.4329 37.7181 53.8838 37.7181ZM63.6843 36.1353C62.5136 36.1353 61.6892 36.6629 61.1946 37.5368H61.1616V36.3826H59.5458V44H61.1616V40.3562C61.1616 38.4601 62.0025 37.7511 63.1896 37.7511C64.2778 37.7511 64.9373 38.2952 64.9373 39.5978V44H66.5531V39.3175C66.5531 37.0092 65.3165 36.1353 63.6843 36.1353ZM71.8069 37.7511V36.3826H70.2571V33.3324H68.6413V36.3826H67.2893V37.7511H68.6413V42.0544C68.6413 43.3075 69.3667 44.0165 70.7023 44.0165H71.4442V42.5326H71.0485C70.4879 42.5326 70.2571 42.2853 70.2571 41.7412V37.7511H71.8069ZM76.1937 36.1353C73.7535 36.1353 72.3026 37.8995 72.3026 40.2078C72.3026 42.615 73.8525 44.2473 76.2762 44.2473C78.1558 44.2473 79.1615 43.2086 79.7221 42.4337L78.5845 41.362C78.2052 41.8731 77.4963 42.6975 76.2432 42.6975C74.9407 42.6975 74.0009 41.8071 73.9349 40.4551H79.8375V40.1913C79.8375 37.7346 78.5185 36.1353 76.1937 36.1353ZM76.0948 37.6192C77.249 37.6192 78.0239 38.2293 78.0898 39.2845H74.0173C74.2152 38.1798 75.0066 37.6192 76.0948 37.6192ZM85.4533 36.1353C84.2827 36.1353 83.4583 36.6629 82.9636 37.5368H82.9307V36.3826H81.3149V44H82.9307V40.3562C82.9307 38.4601 83.7716 37.7511 84.9587 37.7511C86.0469 37.7511 86.7064 38.2952 86.7064 39.5978V44H88.3222V39.3175C88.3222 37.0092 87.0856 36.1353 85.4533 36.1353ZM93.576 37.7511V36.3826H92.0261V33.3324H90.4103V36.3826H89.0583V37.7511H90.4103V42.0544C90.4103 43.3075 91.1358 44.0165 92.4713 44.0165H93.2133V42.5326H92.8176C92.257 42.5326 92.0261 42.2853 92.0261 41.7412V37.7511H93.576Z" fill="white"/>
<rect x="7.4375" y="26.999" width="27.8334" height="27.8314" rx="1.6" fill="#EDF5FD"/>
<path d="M28.13 27.8024H31.7732L14.2862 53.4797H10.6431L28.13 27.8024ZM12.829 39.9074C11.9789 39.9074 11.1896 39.7607 10.461 39.4672C9.75662 39.1738 9.14944 38.7703 8.6394 38.2567C8.12936 37.7187 7.72862 37.0829 7.43717 36.3492C7.14572 35.5912 7 34.7597 7 33.8549V33.4881C7 32.5832 7.14572 31.764 7.43717 31.0304C7.72862 30.2967 8.12936 29.6609 8.6394 29.1229C9.14944 28.5849 9.75662 28.1692 10.461 27.8757C11.1896 27.5823 11.9789 27.4355 12.829 27.4355C13.679 27.4355 14.4562 27.5823 15.1606 27.8757C15.8892 28.1692 16.5085 28.5849 17.0186 29.1229C17.5286 29.6609 17.9293 30.2967 18.2208 31.0304C18.5122 31.764 18.658 32.5832 18.658 33.4881V33.8549C18.658 34.7597 18.5122 35.5912 18.2208 36.3492C17.9293 37.0829 17.5286 37.7187 17.0186 38.2567C16.5085 38.7703 15.8892 39.1738 15.1606 39.4672C14.4562 39.7607 13.679 39.9074 12.829 39.9074ZM12.829 37.1196C13.6547 37.1196 14.3105 36.8506 14.7963 36.3126C15.282 35.7746 15.5249 34.9553 15.5249 33.8549V33.4881C15.5249 32.3876 15.282 31.5684 14.7963 31.0304C14.3105 30.4924 13.6547 30.2234 12.829 30.2234C12.0032 30.2234 11.3474 30.4924 10.8617 31.0304C10.3759 31.5684 10.1331 32.3876 10.1331 33.4881V33.8549C10.1331 34.9553 10.3759 35.7746 10.8617 36.3126C11.3474 36.8506 12.0032 37.1196 12.829 37.1196ZM29.5873 53.8098C28.7372 53.8098 27.9479 53.6631 27.2193 53.3696C26.5149 53.0762 25.9077 52.6727 25.3977 52.1591C24.8877 51.6211 24.4869 50.9853 24.1955 50.2517C23.904 49.4936 23.7583 48.6621 23.7583 47.7573V47.3905C23.7583 46.4857 23.904 45.6665 24.1955 44.9328C24.4869 44.1992 24.8877 43.5634 25.3977 43.0254C25.9077 42.4874 26.5149 42.0716 27.2193 41.7782C27.9479 41.4847 28.7372 41.338 29.5873 41.338C30.4374 41.338 31.2145 41.4847 31.9189 41.7782C32.6475 42.0716 33.2668 42.4874 33.7769 43.0254C34.2869 43.5634 34.6876 44.1992 34.9791 44.9328C35.2705 45.6665 35.4163 46.4857 35.4163 47.3905V47.7573C35.4163 48.6621 35.2705 49.4936 34.9791 50.2517C34.6876 50.9853 34.2869 51.6211 33.7769 52.1591C33.2668 52.6727 32.6475 53.0762 31.9189 53.3696C31.2145 53.6631 30.4374 53.8098 29.5873 53.8098ZM29.5873 51.022C30.4131 51.022 31.0688 50.753 31.5546 50.215C32.0403 49.677 32.2832 48.8578 32.2832 47.7573V47.3905C32.2832 46.29 32.0403 45.4708 31.5546 44.9328C31.0688 44.3948 30.4131 44.1258 29.5873 44.1258C28.7615 44.1258 28.1058 44.3948 27.62 44.9328C27.1343 45.4708 26.8914 46.29 26.8914 47.3905V47.7573C26.8914 48.8578 27.1343 49.677 27.62 50.215C28.1058 50.753 28.7615 51.022 29.5873 51.022Z" fill="#4099F7"/>
<path d="M17.4103 7.18072H19.2051L10.5897 19.8313H8.79487L17.4103 7.18072ZM9.87179 13.1446C9.45299 13.1446 9.0641 13.0723 8.70513 12.9277C8.35812 12.7831 8.05897 12.5843 7.80769 12.3313C7.55641 12.0663 7.35897 11.753 7.21538 11.3916C7.07179 11.0181 7 10.6084 7 10.1626V9.98193C7 9.53614 7.07179 9.13253 7.21538 8.77108C7.35897 8.40964 7.55641 8.09638 7.80769 7.83132C8.05897 7.56626 8.35812 7.36145 8.70513 7.21687C9.0641 7.07229 9.45299 7 9.87179 7C10.2906 7 10.6735 7.07229 11.0205 7.21687C11.3795 7.36145 11.6846 7.56626 11.9359 7.83132C12.1872 8.09638 12.3846 8.40964 12.5282 8.77108C12.6718 9.13253 12.7436 9.53614 12.7436 9.98193V10.1626C12.7436 10.6084 12.6718 11.0181 12.5282 11.3916C12.3846 11.753 12.1872 12.0663 11.9359 12.3313C11.6846 12.5843 11.3795 12.7831 11.0205 12.9277C10.6735 13.0723 10.2906 13.1446 9.87179 13.1446ZM9.87179 11.7711C10.2786 11.7711 10.6017 11.6386 10.841 11.3735C11.0803 11.1084 11.2 10.7048 11.2 10.1626V9.98193C11.2 9.43976 11.0803 9.03614 10.841 8.77108C10.6017 8.50602 10.2786 8.37349 9.87179 8.37349C9.46496 8.37349 9.14188 8.50602 8.90256 8.77108C8.66325 9.03614 8.54359 9.43976 8.54359 9.98193V10.1626C8.54359 10.7048 8.66325 11.1084 8.90256 11.3735C9.14188 11.6386 9.46496 11.7711 9.87179 11.7711ZM18.1282 19.994C17.7094 19.994 17.3205 19.9217 16.9615 19.7771C16.6145 19.6325 16.3154 19.4337 16.0641 19.1807C15.8128 18.9157 15.6154 18.6024 15.4718 18.241C15.3282 17.8675 15.2564 17.4578 15.2564 17.012V16.8313C15.2564 16.3855 15.3282 15.9819 15.4718 15.6205C15.6154 15.259 15.8128 14.9458 16.0641 14.6807C16.3154 14.4157 16.6145 14.2108 16.9615 14.0663C17.3205 13.9217 17.7094 13.8494 18.1282 13.8494C18.547 13.8494 18.9299 13.9217 19.2769 14.0663C19.6359 14.2108 19.941 14.4157 20.1923 14.6807C20.4436 14.9458 20.641 15.259 20.7846 15.6205C20.9282 15.9819 21 16.3855 21 16.8313V17.012C21 17.4578 20.9282 17.8675 20.7846 18.241C20.641 18.6024 20.4436 18.9157 20.1923 19.1807C19.941 19.4337 19.6359 19.6325 19.2769 19.7771C18.9299 19.9217 18.547 19.994 18.1282 19.994ZM18.1282 18.6205C18.535 18.6205 18.8581 18.4879 19.0974 18.2229C19.3368 17.9578 19.4564 17.5542 19.4564 17.012V16.8313C19.4564 16.2891 19.3368 15.8855 19.0974 15.6205C18.8581 15.3554 18.535 15.2229 18.1282 15.2229C17.7214 15.2229 17.3983 15.3554 17.159 15.6205C16.9197 15.8855 16.8 16.2891 16.8 16.8313V17.012C16.8 17.5542 16.9197 17.9578 17.159 18.2229C17.3983 18.4879 17.7214 18.6205 18.1282 18.6205Z" fill="#263F5A"/>
</svg>
