<svg viewBox="0 0 105 105" fill="none" xmlns="http://www.w3.org/2000/svg">
<path d="M25.8006 74.3496H9.0293V96.5616H25.8006V74.3496Z" fill="#FFDB0C"/>
<path d="M49.1902 50.7402H32.4189V96.5609H49.1902V50.7402Z" fill="#FFA900"/>
<path d="M95.9734 34.3955H79.2021V96.5608H95.9734V34.3955Z" fill="#DE0418"/>
<path d="M72.5809 60.7998H55.8096V96.5634H72.5809V60.7998Z" fill="#FF6536"/>
<path d="M105 93.4844H0V99.6367H105V93.4844Z" fill="#808080"/>
<path d="M105 93.4844H52.5V99.6367H105V93.4844Z" fill="#666666"/>
<path d="M15.228 51.3546L19.5986 55.6846L42.9894 32.0745L38.6188 27.7444L15.228 51.3546Z" fill="#333333"/>
<path d="M39.5897 32.7351L62.9824 42.793L65.4127 37.1406L42.0199 27.0828L39.5897 32.7351Z" fill="#333333"/>
<path d="M61.8951 37.9274L66.5 42.0068L89.8893 15.6053L85.2844 11.5258L61.8951 37.9274Z" fill="#333333"/>
<path d="M17.4131 61.7227C21.9435 61.7227 25.6162 58.05 25.6162 53.5195C25.6162 48.9891 21.9435 45.3164 17.4131 45.3164C12.8826 45.3164 9.20996 48.9891 9.20996 53.5195C9.20996 58.05 12.8826 61.7227 17.4131 61.7227Z" fill="#E6E6E6"/>
<path d="M40.803 38.1133C45.3334 38.1133 49.0061 34.4406 49.0061 29.9102C49.0061 25.3797 45.3334 21.707 40.803 21.707C36.2725 21.707 32.5999 25.3797 32.5999 29.9102C32.5999 34.4406 36.2725 38.1133 40.803 38.1133Z" fill="#B3B3B3"/>
<path d="M87.5869 21.7695C92.1174 21.7695 95.79 18.0969 95.79 13.5664C95.79 9.03595 92.1174 5.36328 87.5869 5.36328C83.0565 5.36328 79.3838 9.03595 79.3838 13.5664C79.3838 18.0969 83.0565 21.7695 87.5869 21.7695Z" fill="#4D4D4D"/>
<path d="M64.197 48.1709C68.7275 48.1709 72.4001 44.4982 72.4001 39.9678C72.4001 35.4373 68.7275 31.7646 64.197 31.7646C59.6666 31.7646 55.9939 35.4373 55.9939 39.9678C55.9939 44.4982 59.6666 48.1709 64.197 48.1709Z" fill="#808080"/>
</svg>
