<svg viewBox="0 0 105 105" fill="none" xmlns="http://www.w3.org/2000/svg">
<g clip-path="url(#clip0_137_8045)">
<path d="M90.5158 16.308L85.0843 19.9289L76.0319 18.1184L70.6004 16.308L63.3585 18.1184L57.927 16.308L61.5479 9.06605H68.7898L75.8869 5.51758C81.3603 8.2242 86.3119 11.8777 90.5158 16.308Z" fill="#03AA6F"/>
<path d="M48.8752 9.06585L47.0648 14.4974L41.6333 16.3078L36.2018 25.3602L27.1494 30.7917L14.4762 32.6021V38.0336L18.097 41.6545V48.8964L12.6659 45.2753L7.23444 41.6545L4.08423 32.1858C9.5065 19.2642 19.8716 9.04944 32.8707 3.81543L38.0124 7.25542L48.8752 9.06585Z" fill="#03AA6F"/>
<path d="M52.4977 59.7592L50.6873 68.8115L43.4453 76.0535V81.485L36.2034 86.9163V95.9687L30.7721 94.1582L27.151 85.1058V67.0011L18.0987 65.1907L14.4778 57.9487V52.5172L18.0987 48.8964L23.5302 43.4648L27.151 50.7068H39.8243L45.2558 59.7592H52.4977Z" fill="#03AA6F"/>
<path d="M98.3013 26.8623C108.185 44.4945 107.059 66.2365 95.4046 82.7515L90.5163 77.8633V70.6213L86.8954 63.3794L83.2746 56.1375V48.8955L77.8431 45.2746L70.6011 47.0851L57.9279 41.6536L56.1174 28.9803L61.5489 23.5488H72.4117L76.0326 28.9803L86.8954 30.7908L97.7582 27.1699L98.3013 26.8623Z" fill="#03AA6F"/>
<path d="M63.3592 18.1171L70.6012 16.3067L76.0327 18.1171L85.085 19.9276L90.5165 16.3067C93.549 19.4805 96.1652 23.0271 98.3015 26.8617L97.7585 27.1695L86.8957 30.7904L76.0329 28.9799L72.412 23.5484H61.5492L56.1177 28.9799L57.9281 41.6532L70.6014 47.0847L77.8433 45.2742L83.2748 48.8951V56.137L86.8957 63.379L90.5165 70.6209V77.8628L95.4048 82.7511C78.6851 106.443 45.9245 112.094 22.2344 95.3737C2.11456 81.1722 -5.43336 54.8967 4.08434 32.1845L7.23455 41.6532L12.6661 45.274L18.0976 48.8949L14.4765 52.516V57.9475L18.0974 65.1894L27.1497 66.9998V85.1046L30.7706 94.157L36.2021 95.9674V86.915L43.444 81.4835V76.052L50.686 68.8101L52.4964 59.7577H45.2545L39.823 50.7053H27.1497L23.5289 43.4634L18.0974 48.8949V41.653L14.4765 38.0323V32.6008L27.1497 30.7904L36.2021 25.3589L41.6336 16.3065L47.0651 14.496L48.8755 9.06454L38.0127 7.25411L32.871 3.81412C46.7936 -1.79293 62.4505 -1.1738 75.8879 5.51607L68.7907 9.06454H61.5488L57.9279 16.3065L63.3592 18.1171Z" fill="#86DAF1"/>
</g>
<defs>
<clipPath id="clip0_137_8045">
<rect width="105" height="105" fill="white"/>
</clipPath>
</defs>
</svg>
