<svg xmlns="http://www.w3.org/2000/svg" viewBox="0 0 58 58" xml:space="preserve">
  <path fill="#efebde" d="m46.5 14-14-14h-31v58h45z"/>
  <path d="M11.5 23h25a1 1 0 1 0 0-2h-25a1 1 0 1 0 0 2zm0-8h10a1 1 0 1 0 0-2h-10a1 1 0 1 0 0 2zm25 14h-25a1 1 0 1 0 0 2h25a1 1 0 1 0 0-2zm0 8h-25a1 1 0 1 0 0 2h25a1 1 0 1 0 0-2zm0 8h-25a1 1 0 1 0 0 2h25a1 1 0 1 0 0-2zm-4-45v14h14z" fill="#d5d0bb"/>
  <circle cx="44.5" cy="46" r="12" fill="#26b999"/>
  <path d="M51.071 40.179a.999.999 0 0 0-1.392.25l-5.596 8.04-3.949-3.242a.999.999 0 1 0-1.268 1.546l4.786 3.929a1.003 1.003 0 0 0 1.455-.201l6.214-8.929a1.002 1.002 0 0 0-.25-1.393z" fill="#fff"/>
</svg>
