<svg viewBox="0 0 106 106" fill="none" xmlns="http://www.w3.org/2000/svg">
<g clip-path="url(#clip0_137_7957)">
<path d="M22.0699 0H4.41476C1.97835 0 0.000976562 1.97296 0.000976562 4.41378V22.0689C0.000976562 24.5097 1.97835 26.4827 4.41476 26.4827H22.0699C24.5063 26.4827 26.4837 24.5097 26.4837 22.0689V4.41378C26.4837 1.97296 24.5063 0 22.0699 0Z" fill="#42A5F5"/>
<path d="M22.0699 39.7236H4.41476C1.97835 39.7236 0.000976562 41.6966 0.000976562 44.1374V61.7925C0.000976562 64.2334 1.97835 66.2063 4.41476 66.2063H22.0699C24.5063 66.2063 26.4837 64.2334 26.4837 61.7925V44.1374C26.4837 41.6966 24.5063 39.7236 22.0699 39.7236Z" fill="#42A5F5"/>
<path d="M22.0699 79.4482H4.41476C1.97835 79.4482 0.000976562 81.4212 0.000976562 83.862V101.517C0.000976562 103.958 1.97835 105.931 4.41476 105.931H22.0699C24.5063 105.931 26.4837 103.958 26.4837 101.517V83.862C26.4837 81.4212 24.5063 79.4482 22.0699 79.4482Z" fill="#42A5F5"/>
<path d="M13.2413 0H4.41378C1.97737 0 0 1.97296 0 4.41378V22.0689C0 24.5097 1.97737 26.4827 4.41378 26.4827H13.2413V0Z" fill="#3990D5"/>
<path d="M13.2413 39.7236H4.41378C1.97737 39.7236 0 41.6966 0 44.1374V61.7925C0 64.2334 1.97737 66.2063 4.41378 66.2063H13.2413V39.7236Z" fill="#3990D5"/>
<path d="M13.2413 79.4482H4.41378C1.97737 79.4482 0 81.4212 0 83.862V101.517C0 103.958 1.97737 105.931 4.41378 105.931H13.2413V79.4482Z" fill="#3990D5"/>
<path d="M101.518 0H39.7253C37.2889 0 35.3115 1.97296 35.3115 4.41378V22.0689C35.3115 24.5097 37.2889 26.4827 39.7253 26.4827H101.518C103.955 26.4827 105.932 24.5097 105.932 22.0689V4.41378C105.932 1.97296 103.955 0 101.518 0Z" fill="#90CAF9"/>
<path d="M101.518 39.7236H39.7253C37.2889 39.7236 35.3115 41.6966 35.3115 44.1374V61.7925C35.3115 64.2334 37.2889 66.2063 39.7253 66.2063H101.518C103.955 66.2063 105.932 64.2334 105.932 61.7925V44.1374C105.932 41.6966 103.955 39.7236 101.518 39.7236Z" fill="#90CAF9"/>
<path d="M101.518 79.4482H39.7253C37.2889 79.4482 35.3115 81.4212 35.3115 83.862V101.517C35.3115 103.958 37.2889 105.931 39.7253 105.931H101.518C103.955 105.931 105.932 103.958 105.932 101.517V83.862C105.932 81.4212 103.955 79.4482 101.518 79.4482Z" fill="#90CAF9"/>
<path d="M70.6218 0H39.7253C37.2889 0 35.3115 1.97296 35.3115 4.41378V22.0689C35.3115 24.5097 37.2889 26.4827 39.7253 26.4827H70.6218V0Z" fill="#7DB0D9"/>
<path d="M70.6218 39.7236H39.7253C37.2889 39.7236 35.3115 41.6966 35.3115 44.1374V61.7925C35.3115 64.2334 37.2889 66.2063 39.7253 66.2063H70.6218V39.7236Z" fill="#7DB0D9"/>
<path d="M70.6218 79.4482H39.7253C37.2889 79.4482 35.3115 81.4212 35.3115 83.862V101.517C35.3115 103.958 37.2889 105.931 39.7253 105.931H70.6218V79.4482Z" fill="#7DB0D9"/>
</g>
<defs>
<clipPath id="clip0_137_7957">
<rect width="105.931" height="105.931" fill="white"/>
</clipPath>
</defs>
</svg>
