<svg viewBox="0 0 105 105" fill="none" xmlns="http://www.w3.org/2000/svg">
<g clip-path="url(#clip0_137_8058)">
<path d="M92.0143 32.5858L28.5925 4.0984C25.8571 2.86916 22.6419 4.09122 21.4127 6.82655L9.84277 32.5858H92.0143Z" fill="#999999"/>
<path d="M5.43108 32.5859H99.5689C102.569 32.5859 105 35.0171 105 38.017V95.9481C105 98.9478 102.569 101.379 99.5689 101.379H5.43108C2.4312 101.379 0 98.9478 0 95.9481V38.017C0 35.0173 2.4312 32.5859 5.43108 32.5859Z" fill="#CCCCCC"/>
<path d="M99.5682 32.5859H49.0723C51.0654 51.4714 67.9885 65.1648 86.8741 63.1717C93.5217 62.4711 99.8199 59.8461 104.999 55.6225V38.017C104.999 35.0173 102.568 32.5859 99.5682 32.5859Z" fill="#29ABE2"/>
<path d="M9.05371 41.6377H30.7778V56.1205H9.05371V41.6377Z" fill="#FBB03B"/>
<path d="M21.7273 41.6377H25.3479V56.1205H21.7273V41.6377Z" fill="#F15A24"/>
<path d="M9.05371 68.793H12.6744V72.4136H9.05371V68.793Z" fill="#808080"/>
<path d="M16.2988 68.793H19.9195V72.4136H16.2988V68.793Z" fill="#808080"/>
<path d="M23.5371 68.793H27.1578V72.4136H23.5371V68.793Z" fill="#808080"/>
<path d="M30.781 68.793H34.4017V72.4136H30.781V68.793Z" fill="#808080"/>
<path d="M38.0156 68.793H41.6363V72.4136H38.0156V68.793Z" fill="#808080"/>
<path d="M45.2627 68.793H48.8833V72.4136H45.2627V68.793Z" fill="#808080"/>
<path d="M52.5 68.793H56.1207V72.4136H52.5V68.793Z" fill="#808080"/>
<path d="M59.7439 68.793H63.3645V72.4136H59.7439V68.793Z" fill="#808080"/>
<path d="M76.034 92.3273C80.0333 92.3273 83.2753 89.0853 83.2753 85.086C83.2753 81.0868 80.0333 77.8447 76.034 77.8447C72.0348 77.8447 68.7927 81.0868 68.7927 85.086C68.7927 89.0853 72.0348 92.3273 76.034 92.3273Z" fill="#DA4836"/>
<path d="M86.893 77.8447C84.8057 77.8501 82.8234 78.7608 81.4619 80.343C83.8751 83.0441 83.8751 87.1282 81.4619 89.8293C84.0888 92.8364 88.6544 93.144 91.6615 90.5172C94.6685 87.8903 94.9761 83.3246 92.3493 80.3176C90.9736 78.7428 88.984 77.841 86.893 77.8447Z" fill="#F7931E"/>
<path d="M74.2273 83.2764H77.8479V86.897H74.2273V83.2764Z" fill="#C1272D"/>
<path d="M9.05371 83.2764H12.6744V86.897H9.05371V83.2764Z" fill="#808080"/>
<path d="M16.2988 83.2764H32.5919V86.897H16.2988V83.2764Z" fill="#808080"/>
<path d="M9.05371 90.5176H32.5883V94.1382H9.05371V90.5176Z" fill="#808080"/>
<path d="M39.8264 83.2764H43.4471V86.897H39.8264V83.2764Z" fill="#808080"/>
<path d="M47.0703 83.2764H63.3634V86.897H47.0703V83.2764Z" fill="#808080"/>
<path d="M39.8264 90.5176H63.361V94.1382H39.8264V90.5176Z" fill="#808080"/>
<path d="M16.295 50.6894H9.05371V47.0688H14.4848V41.6377H18.1054V48.879C18.1054 49.8786 17.2944 50.6894 16.295 50.6894Z" fill="#F15A24"/>
<path d="M105.004 53.2984L103.86 54.2307C100.547 56.9191 96.7381 58.9268 92.6486 60.1433C94.926 57.3192 96.6964 54.1204 97.8769 50.6896H105.004V47.069H99.03C100.294 42.4381 101.045 37.6805 101.269 32.8849C100.725 32.6948 100.151 32.5935 99.5733 32.5861H97.6671C97.4462 37.4941 96.6351 42.3565 95.2467 47.069H85.0907V32.5861H81.47V47.069H71.3139C69.9253 42.3567 69.1126 37.4941 68.8917 32.5861H65.2621V32.6766C65.4811 37.5429 66.2415 42.371 67.5304 47.0688H56.1705C53.2759 42.7348 51.4673 37.7672 50.897 32.5859H47.2542L47.274 32.767C49.1097 50.5157 63.6469 64.2543 81.4696 65.0871V65.1722H85.0902V65.0943C92.2955 64.7268 99.2289 62.2214 105.004 57.8965V53.2984H105.004ZM58.9725 50.6896H68.6813C69.8708 54.1437 71.6576 57.3625 73.9602 60.1975C68.1781 58.4814 62.9879 55.1903 58.9725 50.6896ZM81.4696 61.253C78.0099 60.2337 74.8692 56.3652 72.579 50.6896H81.4696V61.253ZM85.0904 61.253V50.6896H93.981C91.6909 56.3652 88.5518 60.2337 85.0904 61.253Z" fill="#0071BC"/>
<path d="M65.5019 32.5866L19.186 11.7822L15.4766 20.0391L43.4103 32.5866H65.5019Z" fill="#F7931E"/>
</g>
<defs>
<clipPath id="clip0_137_8058">
<rect width="105" height="105" fill="white"/>
</clipPath>
</defs>
</svg>
