<svg viewBox="0 0 105 105" fill="none" xmlns="http://www.w3.org/2000/svg">
<g clip-path="url(#clip0_137_7978)">
<path d="M105 27.3173C104.146 31.5855 102.439 35.8538 99.0244 39.2685C95.6098 42.6831 91.3415 45.2441 86.2195 45.2441C81.0976 46.0977 76.8293 45.2441 72.561 43.5368L43.5366 72.5611C45.2439 76.8294 46.0976 81.0977 45.2439 86.2197C44.3902 90.488 42.6829 94.7563 39.2683 99.0246C35.8537 102.439 31.5854 104.147 27.3171 105C23.0488 105.854 18.7805 105 14.5122 104.147C13.6585 104.147 13.6585 103.293 14.5122 102.439L26.4634 90.488C27.3171 89.6343 27.3171 88.7807 27.3171 87.927C27.3171 87.0733 27.3171 86.2197 26.4634 85.366L20.4878 78.5368C19.6341 78.5368 18.7805 77.6831 17.9268 77.6831C17.0732 77.6831 16.2195 77.6831 15.3659 78.5368L3.41463 90.488C2.56098 91.3416 1.70732 90.488 1.70732 90.488C0 86.2197 0 81.9514 0 77.6831C0.853658 73.4148 2.56098 69.1465 5.97561 65.7319C10.2439 63.1709 14.5122 60.6099 18.7805 59.7563C23.0488 58.9026 28.1707 59.7563 32.439 61.4636L61.4634 32.4392C59.7561 28.1709 58.9024 23.9026 59.7561 18.7807C60.6098 13.6587 62.3171 10.2441 65.7317 5.97579C69.1463 2.56116 73.4146 0.853841 77.6829 0.00018239C81.9512 -0.853476 86.2195 -0.853476 90.4878 0.853841C91.3415 1.7075 91.3415 1.7075 90.4878 2.56116L78.5366 15.366C77.6829 16.2197 77.6829 17.0734 77.6829 17.927C77.6829 18.7807 77.6829 19.6343 78.5366 20.488L84.5122 26.4636C85.3658 27.3173 86.2195 27.3173 87.0732 27.3173C87.9268 27.3173 88.7805 27.3173 89.6341 26.4636L101.585 14.5124C102.439 13.6587 103.293 14.5124 103.293 14.5124C105 18.7807 105.854 23.049 105 27.3173Z" fill="#A1A6A8"/>
</g>
<defs>
<clipPath id="clip0_137_7978">
<rect width="105" height="105" fill="white"/>
</clipPath>
</defs>
</svg>
