<svg viewBox="0 0 55 18" fill="none" xmlns="http://www.w3.org/2000/svg">
<g clip-path="url(#clip0_137_8472)">
<path d="M23.4787 17.7319H19.0737L21.8439 0.938232H26.2488L23.4787 17.7319Z" fill="#0066B3"/>
<path d="M15.3493 0.937969L11.126 12.478L10.6264 10.0083L9.12783 2.41976C9.12783 2.41976 8.94618 0.893066 7.03887 0.893066H0.0908242L0 1.20739C0 1.20739 2.13437 1.65641 4.63203 3.13821L8.49206 17.7316H13.0787L20.1176 0.937969H15.3493Z" fill="#0066B3"/>
<path d="M50.0901 17.7319H54.1318L50.5896 0.938232H47.0475C45.4126 0.938232 45.0039 2.19551 45.0039 2.19551L38.4646 17.7319H43.0512L43.9595 15.2173H49.5906L50.0901 17.7319ZM45.231 11.7598L47.547 5.47342L48.864 11.7598H45.231Z" fill="#0066B3"/>
<path d="M38.7823 4.97889L39.418 1.38666C39.418 1.38666 37.4653 0.668213 35.4218 0.668213C33.242 0.668213 28.0196 1.61117 28.0196 6.23617C28.0196 10.5917 34.1502 10.6366 34.1502 12.9267C34.1502 15.2167 28.6554 14.8126 26.8389 13.3757L26.2031 17.1476C26.2031 17.1476 28.1558 18.0905 31.1984 18.0905C34.1956 18.0905 38.7823 16.5638 38.7823 12.343C38.7823 7.98738 32.6062 7.58325 32.6062 5.65243C32.6062 3.6767 36.875 3.94612 38.7823 4.97889Z" fill="#0066B3"/>
<path d="M10.6264 9.96344L9.12783 2.41976C9.12783 2.41976 8.94618 0.893066 7.03887 0.893066H0.0908242L0 1.20739C0 1.20739 3.36049 1.88093 6.53934 4.4853C9.62736 6.91005 10.6264 9.96344 10.6264 9.96344Z" fill="#FAA634"/>
</g>
<defs>
<clipPath id="clip0_137_8472">
<rect width="54.1766" height="17.3774" fill="white" transform="translate(0 0.623047)"/>
</clipPath>
</defs>
</svg>
